<svg id="Layer_1" data-name="Layer 1" xmlns="http://www.w3.org/2000/svg" viewBox="0 0 131.83 287.63"><title>tool-4</title><path d="M193.14,245.51l1.19-1.93-2.56.93-.15-.27a43.6,43.6,0,0,0,5-3.84,40.56,40.56,0,0,0,3.66-4.93l-.39-.43L195,237.54l-.2-.36a22.29,22.29,0,0,1,2.6-1.63c2.38-1.08,4.22-2.51,5-5.21,1.35-4.57,2.95-9.08,4.08-13.92-3.25,2.72-6.34,5.38-11.47,5.23,9.85-2.53,14.27-8.77,14.61-18.15l-3,.49c1.34-.71,2.85-1.06,3.54-2s.68-2.54.9-3.86c.71-4.08-.83-7.69-2.4-11.29l3.47,7.21c1.08-4.45-1.82-10.08-5.52-10.64l2,3.09a6.2,6.2,0,0,0-7.68.31c-1.49,1.11-3.1,2.07-4.66,3.1l-.35-.58,9.67-5.44c-1.31-1.84-1.9-1.95-4.06-.34a32.66,32.66,0,0,1-4.86,3.19c1.9-1.72,3.6-3.77,5.76-5.07,2.32-1.4,7.52.86,8.68,3.4.71,1.56,1.22,3.21,1.83,4.84,2.08-4,.91-8-3-9.76-3.09-1.41-6.29-2.56-9.55-3.86l-.38,3.12c1-1.78,2.09-1.58,3.65-.63s3.61,1.6,5.33,2.71L201.63,179c-.87,4-3.83,6.32-7.27,8.06a58,58,0,0,1-6.7,2.46l-.21-.63,5.62-1.73-.07-.61c-11.39,3.68-22.5,3.25-33.47-2.25l.79,1.74-4.51-3.28,2,7.15-.71.37c-1.13-6.15-4.07-10.66-10.66-11.91,4,4,7.13,8.45,7,14.42-1.89-7.23-6.8-12.14-12.64-16.27a15.73,15.73,0,0,0-4.37-1.75q-4.41-1.39-8.87-2.6c-2.3-.62-3.93-2-4.26-4.32s1.49-3.81,3.32-4.83c4.81-2.69,9.63-5.4,14.6-7.78a119.71,119.71,0,0,1,11.94-4.73c4.86-1.71,9.8-.94,14.65.18,4,.94,8,2.17,12,3.28.14,0,.28.14.41.12,4.15-.51,6.88,2.24,9.89,4.33a5.09,5.09,0,0,1,1.27,1.4c3.22,4.89,6.42,9.8,10,14.49-.91-2.21-1.85-4.42-2.73-6.64a8.74,8.74,0,0,1-.59-2.18,3.58,3.58,0,0,0-1.57-3c-.77-.51-1-1.82-1.56-2.67-.83-1.17-1.57-2.75-2.73-3.25a167.35,167.35,0,0,0-17.39-6.77c-8.71-2.63-17.55-2.82-26.2.62-7.6,3-15.14,6.17-21.94,10.81a10.83,10.83,0,0,0-4.29,4.89c-.8,1.93-2.45,3.51-4,5.58l3.94.8,0,.18-3.53.26c3,1.64,6.65-.77,9.21,1.88l-4.51-1c2,2,5.55,2.5,8.51,1.84a11.34,11.34,0,0,1,5.06.14l-10.37,1.38,1.6,1.87-3.18-2c2.35,3.6,3.16,4.15,7.78,5.67,2.2.72,3.23,1.63,3.78,3-1.57-.77-3.37-1.81-5.28-2.55-2.28-.88-4.4-1.67-6-3.84-1.32-1.81-3.48-2.84-6.46-2.77l4.3,3.3c-6-1.32-6.49-7.34-10-11.35l-7.6,7.93-.44-.24.81-1.72c-5,3-10.57,5.19-13.24,11,2.13-7,8.24-9.56,14.08-12.91-3.33-1.18-4.92,1.86-7.63,1.75a21.89,21.89,0,0,1,3.89-2.43,23.35,23.35,0,0,1,4.63-.78l0-.57h-3.22l-.09-.23,8.34-2.67c-.11-1.65-.7-2.31-2.17-2.23a11.75,11.75,0,0,0-7.08,2.71,136.4,136.4,0,0,1-12.39,9.15c.83-.85,1.6-1.77,2.5-2.54,2.92-2.48,6-4.84,8.82-7.38,2.38-2.11,4.85-3.79,8.21-3.61,1.39.07,2.09-.76,1.76-2-2-7.7-2-15.62-2.76-23.45a8.19,8.19,0,0,0-.18-.87l-4.59,2.38-.19-.33,3.88-2.6-.26-.38L102,139l-.21-.53,3.89-1.75-.24-.63c-2.06.58-4.1,1.24-6.19,1.72a26.09,26.09,0,0,1-4.63.64c-2.38.11-4.77-.08-7.14.07-1.56.1-1.82,1.32-1.66,2.7.64,5.41,1.27,10.82,1.86,16.23.16,1.48.15,3,.23,4.56h3.48c0,.2,0,.39-.1.4-3.34.89-3.42.88-3.62,4.42-.38,6.66-.73,13.33-.92,20,0,1.72.56,3.46.92,5.5L90,190.6c-1.91,1.83-1.55,3.81-.63,5.9s1.9,4.49,2.93,6.93l1.6-1.35a3.64,3.64,0,0,0-.25,4.53c1.08,1.61.5,4.25,3.06,4.91-.47,2.69,2,4.13,2.73,6.32a27,27,0,0,0,2.29,4.11l4.84-2.95.26.32-4.64,3.78a69.44,69.44,0,0,0,4.46,6.71c.57.69,2.18.52,3.32.75l-2.05.83a23.76,23.76,0,0,0,7.08,7.38,1.61,1.61,0,0,0,.79.31c3.48,0,7,.19,10.45,0a53.06,53.06,0,0,0,8.43-1,59.89,59.89,0,0,0,6.87-2.34c-.51.58-.64.89-.85,1-3.94,1.2-7.49,3.69-11.88,3.39-1.45-.1-3-.48-4.24,1.15-.28.38-1.86-.17-2.83-.36-1.13-.22-2.25-.51-3.37-.77l-.2.65,6.41,2.54-.13.39-6.67-2.47c2.16,3.82,5.72,5.25,9.16,6.83l-.29.55-7.58-3.31c1.07,6,2.54,11.82,3.06,17.74a104.6,104.6,0,0,1-.4,18.06c0-4.57-.07-9.15,0-13.72.12-6-1.74-11.57-3-17.3s-4.28-10.17-8.39-14.33c-3.23-3.26-5.64-7.41-8.06-11.38A233.08,233.08,0,0,1,87.68,194.9a24.59,24.59,0,0,1-2.09-12.77,175.37,175.37,0,0,0,1.35-20.81c0-6.49-1.16-13-1.54-19.47-.35-6-.49-12-.48-18a67.06,67.06,0,0,1,.86-10.89,21.08,21.08,0,0,1,2.49-6.15c2-3.67,8.05-4.28,11.24-1a23.07,23.07,0,0,1,4.23,6.39c2.56,5.67,5.52,11.28,6.09,17.61.5,5.5.47,11,1,16.54.6,6.08,1.6,12.11,2.42,18.17l1,.06a20.63,20.63,0,0,0,1.3-4.32c.31-3.86.34-7.73.49-11.6,0-1.36.05-2.72.14-4.08.65-10.23,1.37-20.46,2-30.7.63-11,1-21.94,1.73-32.9s1.6-22.18,2.62-33.24c.66-7.2,1.51-14.4,2.66-21.54a16.47,16.47,0,0,1,4.38-9.41c3-2.94,6-2.53,8,1.09a32.49,32.49,0,0,1,4,15.82c.13,10,1.17,19.91,1.58,29.87.23,5.57-.1,11.17,0,16.75.06,5.06.3,10.11.47,15.16l.73,0c0-4.92,0-9.83,0-14.75.06-5.09.18-10.18.33-15.26.28-9.31.31-18.65,1-27.93.67-8.95-.18-18.17,3.65-26.68a20.56,20.56,0,0,1,2.93-5c3.07-3.58,7.71-2.52,10.35,1.64,3.43,5.4,4,11.23,3.89,17.34-.09,7.1-.22,14.22.08,21.31.34,8.07,1.14,16.13,2.06,24.23.38-3.4.92-6.79,1.12-10.2.55-9,1-18,1.39-27.06.09-2-.11-4-.21-6-.2-4.41,2.17-9.92,6.27-11.31,2.26-.76,3.67-.66,5.11,1.25,2.72,3.6,4.63,7.55,4.82,12.16q.62,14.93,1.25,29.87c.45,10.82.91,21.64,1.31,32.46a82.5,82.5,0,0,0,.53,9.75,24.57,24.57,0,0,0,.64-3.55c.28-7.45.7-14.91.65-22.36,0-6.34-.07-12.63,2.1-18.69a8.64,8.64,0,0,1,1.91-3.28c2.2-2.13,4.73-1.63,6.2,1.06,4.3,7.84,6,16.33,6.59,25.17.41,6.51,1.23,13,1.61,19.51.43,7.23.49,14.48.85,21.71.43,8.59.44,17.32,3.16,25.54,4.3,13,2.89,26.06.8,39C213,196.3,209.89,207,207,217.76c-1.67,6.2-4.05,12.22-6.24,18.28a19.74,19.74,0,0,1-2.4,4.06,49,49,0,0,0-8.63,24c-.68,9.07-1.33,18.15-1.63,27.26,0-7.95,0-15.89,0-23.84,0-3.32,1.91-6.24,1.68-9.59a42.38,42.38,0,0,1,.23-4.85c-4,1.94-8,2-12.6.56,4.53-.49,8.94,1,12.54-2.05-6.39,2.26-12.58.53-18.75-1.1,1.37.24,2.74.52,4.13.71s2.85.28,4.28.45c4.2.49,8.17.1,11.45-2.95.63-.58,1.16-1.26,1.74-1.89Zm9-86.1c-.48-.39-1-.75-1.42-1.17-1.15-1.12-2.12-2.53-3.45-3.35s-3.21-.81-4.55-1.64a22.53,22.53,0,0,0-6.91-2.65c-5.56-1.35-11-3.15-16.51-4.75a4.1,4.1,0,0,0-1.47-.22c-2.65.24-5.29.55-7.93.83a128.18,128.18,0,0,1,16.15,2.9,112.72,112.72,0,0,1,13.27,4.24c6.53,2.55,10.85,7.12,12.29,14.25.31,1.54,1.66,2.91,2.68,4.24a25.34,25.34,0,0,0,2.68,2.77,21.14,21.14,0,0,0,3.21,2.9c1.83,1.14,3.58.75,4.27-.65,1.27-2.59.65-5.07-1.44-6a43.35,43.35,0,0,1-5.78-2.81c-2-1.28-4.34-2.53-3.94-5.59ZM184.52,81.64l3.94,1.64c0-4.33.13-8.39,0-12.43-.26-6.66-.7-13.31-1.09-20-.12-2.08-1.27-2.88-3.35-2.4-.95.21-1.9.4-2.85.59a4.64,4.64,0,0,1,1.77-.91c.54-.21,1.06-.5,1.88-.9-1.16-.18-1.93-.3-2.72-.4a1.49,1.49,0,0,1-.34-.26,2.87,2.87,0,0,1-.16-.71l5.55,1.77c0-.92-.05-1.77-.13-2.62-.32-3.63-.94-7.26-.92-10.89a25.23,25.23,0,0,0-2.41-11.41c-1.7-3.49-5.41-4.62-8.5-2.73A6.6,6.6,0,0,0,172,26c0,4.3.2,8.59.2,12.89,0,2.49-.22,5-.35,7.6,3.27.19,6.36.38,9.44.53a2.54,2.54,0,0,0,.81-.25,23.26,23.26,0,0,1-3.22.66c-2,.13-4,0-6,.2a2.2,2.2,0,0,0-1.37,1.56c-.78,6.65-1.44,13.32-2.1,19.73h6.31a10.35,10.35,0,0,1-2.75.15c-1.47.17-3.58-.13-3.87,1.79-.56,3.65-.66,7.37-1,11.56,1.57-.2,2.78-.33,4-.51a27.77,27.77,0,0,1,4-.63c2.81,0,5.62.2,8.44.32-.93,2.06-3,1.76-4.58,1.82a9.85,9.85,0,0,1-3.82-1.17c-1.87-.78-3.47-.36-3.74,1.13-1.61-.25-3.08-.07-4.14,1.46a10.8,10.8,0,0,0,2.9.44c5,.31,10,.54,15,1,2.37.2,2.89-.21,2.19-2.49C186.31,84.48,185.64,82.67,184.52,81.64Zm16.33,55.63-1.51-.36.59,2.9a16.42,16.42,0,0,0-1.92-3.41c-1.85-1.93-4.79-2.83-5.3-6.15-2.66,2.47-.68,5.91-2.06,7.89l-1.11-8.36c-.27.06,0,.09.11,0a5.21,5.21,0,0,0,.15-5.66,5.13,5.13,0,0,0-3.25-2,47.86,47.86,0,0,0-6.22-.61l0-.11h9a15.15,15.15,0,0,1-.39-2.45c0-4.57.1-9.14,0-13.71,0-.49-.79-1-1.25-1.45-.11-.11-.37-.08-.56-.11l.31-.34h1.36V89.41l-2.68.14,2.51-.9c-.05-2.08-.46-2.44-2.22-1.86-3.58,1.17-7.12,2-10.92.87-2.34-.72-4.8-1.07-7.2-1.58-.7,2.91,2.07,1.86,2.78,3.15l-3-.52c0,1.38,0,2.57,0,3.76.14,6.75.25,13.49.48,20.24.08,2.23.48,4.45.76,6.67a1.3,1.3,0,0,0,.33.76c1.9,1.7,3.83,3.37,5.75,5a5,5,0,0,1-3-1.22c-2.23-2.15-2.88-2.29-5.31-.66-.77.52-1.6,1-2.81,1.69l3.76-4.87h-6.79l0-.25,5.26-.55-.07-.51L162,117.44l.08-.33,4.93,1,.2-.57L163.15,115l4.16,1V77.68c-1.6.22-3.26,1-4.26.46-1.84-.94-3.24-.07-4.85.16a33.94,33.94,0,0,1-4.65,0l0-.19L167,76.72l-.06-.41-21.71-1.63L144.45,114c0,.57-.26,1.37,0,1.67a3.78,3.78,0,0,0,1.92.94c.46.1,1-.19,1.79-.38l-1.91-1.26,5.49,1.07-6.09,1.53.12.61,6.89-.69,0,.69H149.9l0,.48,6.19,1,0,.34-9.32-.92-.11.51,1.31.93a2.9,2.9,0,0,1-1.9-.33c-1.89-1.44-3.27-.76-4.85.65-2.11,1.9-4,4.46-6.71,3.92l7.56-5.25-1.82-1.33h2.61c-.66-4.36-4.23-2.4-6.4-3.49l5.75-.68c-1.78-1.41-3.37-.56-4.86-.27-2.68.52-2.67.58-4.13-.34l8.79-1.05c.09-1.24.57-2.61.14-3.58-.33-.75-1.8-1-2.57-1.36l2.78-.74V80.22a16.13,16.13,0,0,1-3,.15,12.41,12.41,0,0,0-4.95.67,16.6,16.6,0,0,1-6.93-.21,46.46,46.46,0,0,1-6.57-2.27L119,118.62l2.86-1.66a8.05,8.05,0,0,1-1.81,2.49,22.71,22.71,0,0,0-1.51,2.27l.62.49c.91-.64,1.79-1.33,2.74-1.91s1.82-.94,2.73-1.41c-2.43,2.23-5.14,4-4.66,7.85l-1.72-1.07c-.1,5.33-.26,10.11-.25,14.89a6.57,6.57,0,0,0,.9,3.67,12.08,12.08,0,0,0,7,5c1.12.26,2.2.67,3.3,1a16.15,16.15,0,0,1-6.3-1.62,42.67,42.67,0,0,1-5.45-4.12c-.73,2.33.35,3.62,2.23,4.52,1.32.63,2.62,1.3,3.93,2l-.13.22-6.6-2.36v7.42a50.41,50.41,0,0,1,5.09-1.49c1.75-.33,3.61-.14,5.35-.53,2.42-.54,4.77-1.42,7.15-2.15l-.18-.59-3.08-.94c10.22-.07,15.78-2.23,18.79-7.36-.32,2,.61,2.06,2,2,4-.1,8,0,12,0h3.17l-.86-4c1,3.43,3.81,4.29,6.66,5.15a16.84,16.84,0,0,0,2.88.86c4.48.49,8.85,4.58,13.58.55l-1.74,2.33c2.81.67,5.3,1.65,7.83,1.78,3.67.19,5.38,2.82,7.61,4.92l-5.84-4.17-.32.47a6.37,6.37,0,0,1,.83.58c2.34,2.24,5.19,4,6,7.54,1.07,4.59,6.16,8.87,11.14,9.48v-3.21l-7-2,.18-.6a32.79,32.79,0,0,0,4.21,1.21,3,3,0,0,0,2.43-.55,5.05,5.05,0,0,0-1.64-7.23,38.63,38.63,0,0,0-5.16-1.76l.12-.41,6.81,1.94c-.09-1.36-.08-2.78-.3-4.17-.43-2.66-.47-5.51-3-7.35.59-3.14-2.53-3.33-3.91-4.89-.33-.37-.68-.71-1-1.07l.39-2.09c1.12,1.65,1.62,4.1,4.93,3.24l-1.66-2.41c2-.13,1.2-1.66,1.11-2.7-.35-3.71-.88-7.4-1.2-11.11-.43-4.9-.73-9.82-1.09-14.67-2.25-.63-4.39-1.31-6.61,0a3.6,3.6,0,0,1-2.49.27,13.06,13.06,0,0,1-2.75-1.51c2-.11,3.92.31,5.87.32a65.56,65.56,0,0,0,6.63-.65L208,85.42c-3-1.17-5.29-1.37-7.76-.45-1.07.4-2.41.07-3.63.07v-.5L208,83.81c-2.67-1.53-5.09-.9-7.51-.32l-.06-.53,7.29-1.2c-.55-4.32-.86-9-1.84-13.64a36.87,36.87,0,0,0-3.56-9.6,4.46,4.46,0,0,0-8,.43,15.85,15.85,0,0,0-1.67,5.71c-.23,4,0,8,0,12,0,1.9,0,3.81,0,5.79h4.7a6.8,6.8,0,0,1-1.94.69c-1.77.38-2.75,1.15-2.84,3.26-.17,4.22-.74,8.42-1.11,12.63-.21,2.33-.36,4.67-.54,7.07,4.44-2.14,8.79.58,13.08-.16a43.35,43.35,0,0,1-6.63.38,24.9,24.9,0,0,0-4.85.26,2.57,2.57,0,0,0-1.42,2c0,5.44.17,10.89.45,16.32a4.15,4.15,0,0,0,2.82,4.11c.74.25,1.29,1.06,1.93,1.62l-.25.24L194,129.4a2.69,2.69,0,0,0,.65,1.89C196.67,133.31,198.77,135.28,200.85,137.27Zm-33.3-68.89-9.39-.76,4.45-1v-.22h-5.39l.09-.85,9.89,1.2c-.13-2.12-.21-4.05-.38-6-.25-2.77-1-3.29-3.74-2.83l-3,.48,0-.47,6.58-.88c-.42-6.13-.91-12.26-1.24-18.4-.11-2.15-1.42-2.76-3.12-3.24l2.54.18c-3.19-2.76-7.49-1.18-11.36-3.4,3.74.5,6.94.85,10.11,1.38,1.45.24,2.21,0,2.15-1.61-.12-3.3-.1-6.6-.28-9.9a37.41,37.41,0,0,0-.85-8.08c-1.26-4.46-4-6.32-7.91-6.2-3.3.1-5.73,2.48-7.14,6.48-2.2,6.21-2,12.68-2.48,19.61h7.53v.5l-7.37.57-1.66,31.36,2.14.24-.11-1.17,6.24,2c-.5,1.86-2,1-3.26.45-1.95-.94-3.51,0-5,.91-.87.54-.42,3.7.47,4.82l-.85.33a16.63,16.63,0,0,0,4.08-.16c.9-.08,2.12-.37,2.67.08,1.78,1.44,3.45.66,5.26.33a22.63,22.63,0,0,1,4.07,0l0,.6h-3.79a24.9,24.9,0,0,0,5.48,1.09,9.71,9.71,0,0,0,3.54-.59c.39-.13.53-1,.79-1.54l-.66-.28Zm-46.43,5.71,10.73-2.72c-1.21.81-2.69,1-3.64,1.87-1.42,1.24-3,1.24-4.6,1.35-2.21.15-2.6.68-2.2,3.14l6.62.89.24-4.61.5,0V78.5a6.1,6.1,0,0,0,1.35.27,27.2,27.2,0,0,1,6.41.4c1.67.32,4.35-.36,5.32-1.59,1.44-1.82-1.21-2.47-2.32-3.5a4.12,4.12,0,0,1-.34-.58l2.68,1a11.62,11.62,0,0,0,.54-2.62c-.2-7.17-.33-14.34-.75-21.5-.29-5-.48-4.9-5.54-4.76-3.24.09-6.49,0-9.74,0l0-.75,2.14-.11c-3.48-1.25-4.61-.65-4.92,2.5-.41,4.07-.71,8.15-1.08,12.22C122.08,64.32,121.6,69.16,121.13,74.09ZM150.4,176.21c5.31-8.71,13.57-12.31,23.17-11.72,10.13.62,16.38,7,19.34,16.6a6.18,6.18,0,0,0,3.11-7.44c-1.74-6.94-5.37-12.77-11.91-16.06-3.94-2-8.31-3.09-12.47-4.64-1.22-.45-1.64,0-2.3,1.06-1.78,2.74-3.38,5.87-5.85,7.82a20.76,20.76,0,0,1-26.84-1.26,2,2,0,0,0-3-.12c-3.28,2.47-3.59,4.11-1,7.28a9,9,0,0,0,3.32,2C140.68,171.91,145.4,174,150.4,176.21Zm-42-41.55c-4.87-2.44-9.21,1.6-13.84.82a54.79,54.79,0,0,1,10.5-2.67c3.31-.36,4.13-.89,3.56-4.14-1.34-7.63-4.77-14.39-8.81-20.86-1.79-2.87-5.1-3.49-8.14-2s-4,4.53-4.69,7.37c-2,7.8-1,15.77-1.15,24,2-1.27,3.65-2.7,5.53-3.34s4.08-.5,6.13-.7l.09.65c-1.17.19-2.34.36-3.51.57a15.35,15.35,0,0,0-3.56.72,13.39,13.39,0,0,0-2.68,2.08l.32.46,3.91-1.49.08.25L91,137.46c3.19,0,5.72,1.22,8.67-.38C102.16,135.71,105.3,135.47,108.44,134.66Zm32.32-90.93c0-4.8.08-9.37,0-13.94a24.15,24.15,0,0,0-.82-5.29,7.64,7.64,0,0,0-7-5.82c-3.27-.32-4.62,2.09-6,4.39a6.67,6.67,0,0,0-.79,2c-1.3,6.05-2.43,12.13-1.82,18.89,3.86-3.12,7.78-1.71,11.68-.71l-7.91-.45a18.36,18.36,0,0,0,13.08,2.15L138,43.56Zm-13.83,127a11.85,11.85,0,0,0,1.21.64c.67.25,1.35.48,2,.67A132.93,132.93,0,0,1,158.59,183c9.37,5.06,19.22,6.8,29.58,3,3.4-1.24,6.76-2.46,8.87-5.67a6.91,6.91,0,0,0,.62-6.39,1.29,1.29,0,0,0-.26.82c0,4.93-2.39,8-7.18,9.41a52.14,52.14,0,0,1-7.07,1.84,57.89,57.89,0,0,1-10.62.79c-6.35-.3-11.57-3.9-17.09-6.6C146.44,175.77,137.93,169.88,126.93,170.77Zm57,14.14c-.82-1.6-1.53-3.06-2.31-4.48a8.81,8.81,0,0,0-1.82-2.84,5.11,5.11,0,0,1-2-6.17,3.32,3.32,0,0,0-.77,1.1c-.61,1.44-1.49,2.67-3.22,2s-1.48-2.14-1.12-3.51.92-2.94,1.42-4.51h-2.39a18.27,18.27,0,0,0,0,1.95c.34,3.07-.22,5.49-3.63,6.67a24,24,0,0,0-5,3c-1.21.79-2.41,1.11-3.53,0-1.55-1.49-3-3.1-4.58-4.75l-1.56,2c1.58,1,3.05,1.9,4.37,2.95s2.41,2.22,3.59,3.34c3.4-4.33,7.87-6.77,11.39-6.17,5.51.94,8.69,4.27,9.72,9.77Zm-61.81-22.16c10.86-6.58,21.21-13.24,33.48-16.12-2.15-.06-4.39-.3-6.37.3a40.72,40.72,0,0,0-7.72,3.5c-5.81,3.22-11.55,6.58-17.27,10A11.55,11.55,0,0,0,122.16,162.75Zm48.4,5.77c-1.36.5-2.66,1-4,1.47-1.76.62-2.86.31-2.37-2.12l-2.28.73c1.1,3.41-1.76,4.83-3.2,6.69l4.65,1.13c0-1.4-.66-3.59,0-4.17,2-1.63,3.11.5,3.87,1.54Zm9.25,2.6,1.14,6c1.6-.77,3.53-2.56,4.9-.49,1.57,2.37-.93,3.65-2.12,4.62l5.49,2.38c-1.86-2.65-2.73-5.15-.69-7.8l-1.76-2.52C183.76,175.37,183.13,175.15,179.82,171.12ZM125,155.29a15.29,15.29,0,0,1-1.71.39c-2.85.37-4.25,1.63-4.57,4.4a3.6,3.6,0,0,0,.67,2c.1.16.88.14,1.18-.06,3.12-2,6.21-4.14,9.37-6.27-3.74-.27-4.38,0-9.37,3.7Zm32.11,19.95.71,0c1.23-1.84,4-2.76,3.28-6.56-1.75,1.23-3.39,2-4.42,3.27C156.2,172.57,156.92,174.12,157.1,175.24Zm-1.28-17.39c2.91-1.69,5.42-3.21,8-2.06l-.9-4.52a3.21,3.21,0,0,0-1.44.53C159.7,153.59,158,155.49,155.82,157.85Zm8.9-.19c-.49-.21-1.25-.71-1.39-.57-1.81,1.78-3.93,1.62-5.9.9-.28,1.22-.24,2.34-.78,3s-1.62.74-2.51,1.09l1.57,2.53c.71-.91,1.26-1.6,1.79-2.31s.91-1.73,1.62-2.13C160.78,159.22,162.58,158.59,164.73,157.66Zm-35.38,5.14c-1.06.91-3.19,1.41-2.52,3.53s2.75,2.1,4.38,2.36Zm-8.31.46c-4.14-.39-3.91,3.6-5.69,5.54C118.78,168.64,119.43,165.51,121,163.26Zm59.67,5c-.39,2,.86,4.75,2.3,5.19a7.66,7.66,0,0,0,2.74-.2l.11-.79Zm-26.3-3.92c-1.71-3-4.76-2.94-7,0ZM152.49,7.12l7.89-.76C158.44,3.68,154.33,4,152.49,7.12Zm36.65,169.44c-1.44,2.65-1.13,4.34,1,6.88.41-.68,1.12-1.35,1-1.78A54.6,54.6,0,0,0,189.14,176.56Zm-12-5.64-.42-.78c-1,0-2.3-.35-3,.12-.47.31-.28,1.84-.14,2.78,0,.32,1.16.84,1.24.76C175.65,172.9,176.39,171.9,177.16,170.92Zm4,6.72,2.1,3.62c.92-1.32,1.66-2.28,2.24-3.33.1-.19-.5-1.1-.7-1.08A35.31,35.31,0,0,0,181.14,177.64Zm-6-159.36h6.75C180.46,15.43,177.39,15.38,175.13,18.28Zm-44.91-.48,6.26.81C134.71,15,132.41,14.84,130.21,17.79ZM201,54.95l.38-.37c-1.12-.51-2.29-1.51-3.35-1.4s-2.17,1.28-3.24,2l.34.24ZM163.64,159.79l-.41-.51c-3.32.61-4.59,1.61-4.86,4.26Zm1.74,9.73,5.72-2.2C168.38,166.33,166.21,167.06,165.38,169.52Zm18.07-82.07,0-.64-8.69-.72-.05,1Zm-37.56,72.83c2-3.24,5.31-.22,7.55-1.82l-8.25-.89Zm21.1,14a13.89,13.89,0,0,0-2.37-1.7c-.21-.09-1.18.85-1.12,1a6.89,6.89,0,0,0,1.54,2C165.16,175.7,166,175,167,174.29Zm-25.43-15.05.4,1.33,2.64-.32-.41-2.31Zm-19.74,4.42-4.33,6.1C119.46,169.9,121.65,167,121.81,163.66Zm21.49-7.53c-3.13-.3-2,3.7-4.55,4.36l1.47.76Zm35.86,15.76c-1.2,2.78-1.11,3.11,1.15,4.53ZM150.39,160.4c-1.65-1-3-1.18-4.13,1.23Z" transform="translate(-84.91 -3.69)"/><path d="M128.92,243.07c2.31-.23,4.65-.32,6.91-.76a6.88,6.88,0,0,0,3.36-1.74c1.9-1.9,3.55-4.05,5.32-6.08.56-.64,1.19-1.23,1.77-1.85a44.52,44.52,0,0,1,5.29-5l-8.92,10.82.46.49c3.94-1,5.89-4.45,8.68-7-.7,1.1-1.31,2.27-2.1,3.3-4,5.18-9.82,7.11-15.86,8.48-1.58.36-3.32-.05-5-.11Zm54.45-50,4.79-2.53c-3.39,1-6.23,1.82-9.08,2.62s-5.82,1.23-8.43,2.46-5.22,2.78-6.84,4.94c-2.61,3.48-4.4,7.57-6.53,11.41l.56.31c1.15-2.18,2.32-4.34,3.44-6.53a21.61,21.61,0,0,1,9.79-9.34c3.74-1.88,8.22-2.32,12.37-3.39Zm-35.1-3.12c4.07,10.32,6,20.54-1.63,30.28,2.94-2.21,6.33-9.67,6.37-13a40,40,0,0,0-2.3-12.52c-.52-1.68-1.24-3.29-1.88-4.94Zm-2.33,36.71c-2.89,4.39-7,7.34-11.54,9.74,6.44-1.12,17.58-13.54,20.16-22.5C151.59,218.27,148.72,222.43,145.95,226.64Zm62.79-39.81,3.47,7.21c1.08-4.45-1.82-10.08-5.52-10.64l2,3.09A.9.9,0,0,0,208.74,186.84ZM190.21,247a13.46,13.46,0,0,1-10.74,2.55c-2.43-.43-4.82-1.11-7.23-1.67a24.92,24.92,0,0,0,6.45,2c4.58.71,9.09.79,12.88-2.59a3.81,3.81,0,0,1,1.17-.47l.38-1.27A19.14,19.14,0,0,0,190.21,247Zm-23.12-29.54c-1,5.64,2.06,12-3,16.94C170.32,229.65,167.59,223.37,167.09,217.45Zm-5,25-15.26,5.39C151.31,248.34,161.61,244.54,162.11,242.46ZM95.47,148.65l12.32-1.91C103,144.29,99.33,146.51,95.47,148.65Zm77.26,78.57c-1.71,5-4.92,9.09-8.49,12.92A21.62,21.62,0,0,0,172.73,227.22Zm-35-40.75c5.08,2.79,7.45,7.33,8.67,13C147,194.27,141.78,186.64,137.74,186.47Zm37.63,18.45a8.81,8.81,0,0,0-7.61,5.92Zm-16.74-17.78,3.51,10.75A14.51,14.51,0,0,0,158.63,187.14Zm43.52-27.74c-.74.9-.27,5.81.53,6.94l.63-3.64Zm-44-49.47c-1.54-.22-3.09-.41-4.63-.61l-.06.66a19.37,19.37,0,0,1,2.33,0c.69.08,1.92.32,1.93.54.1,1.75,1.35,1.15,2.12,1a19.85,19.85,0,0,0,3.08-.89C161.41,110.44,159.8,110.16,158.19,109.93Zm-32.83,7.62a18.5,18.5,0,0,1,3.93-.06c-3.76-1.21-5.92-.7-7.42,1.64A17.73,17.73,0,0,1,125.36,117.55Zm74.37-13.1c-2.08-.07-4.06-2.05-6.29-.44l6.26,1ZM159.83,65l-.06-.76-9.48,1C153.43,66.83,156.52,64,159.83,65Zm-61.63,59.1c-3-.93-5,.93-7,2.56ZM96,126.55l6.05-1-.13-.67-6.11,1.09Z" transform="translate(-84.91 -3.69)"/></svg>