<svg id="Layer_1" data-name="Layer 1" xmlns="http://www.w3.org/2000/svg" viewBox="0 0 299.07 299"><title>tool-5</title><path d="M1.24,156.43q0-6.56,0-13.12a5.59,5.59,0,0,0,.2-.94,138.46,138.46,0,0,1,2.83-22.67c6.59-31.31,21.52-58,45-79.7C74.76,16.54,104.88,3.49,139.42.7,141,.57,142.67.4,144.3.25h13.12a3.81,3.81,0,0,0,.66.2c6.67.77,13.4,1.18,20,2.35a144.5,144.5,0,0,1,56.32,23A148.66,148.66,0,0,1,285.57,85a146.45,146.45,0,0,1,14.61,58.31,149.15,149.15,0,0,1-43.83,112.43,149,149,0,0,1-92.93,43.08c-1.51.13-3,.31-4.51.46H142.57a5.6,5.6,0,0,0-.81-.2c-4.38-.45-8.79-.72-13.15-1.36a144.91,144.91,0,0,1-48.08-15.86A148.65,148.65,0,0,1,16,214.66,145.39,145.39,0,0,1,1.68,161C1.57,159.5,1.39,158,1.24,156.43Zm2.5,3.08C7.57,233.06,69.5,293.44,141.06,296.82c-6.51-4.1-9.8-9.93-9.93-17.47-28.37-4.57-52.79-16.77-73-37s-32.38-44.69-36.9-72.92C13.62,169.3,7.94,166,3.74,159.51ZM297.84,140a143.26,143.26,0,0,0-8.72-41.37,147.93,147.93,0,0,0-87.2-87.16c-12.45-4.58-37.72-9.76-41.15-8.5,6.28,4.06,9.55,9.82,9.62,17.3,28.36,4.56,52.79,16.76,73,37s32.39,44.68,36.92,72.93a20.15,20.15,0,0,1,10,2.56A21.81,21.81,0,0,1,297.84,140Zm.09,19.55a2.56,2.56,0,0,0-.38.34,19.41,19.41,0,0,1-16.5,9.54c-.3,0-.77.51-.84.85-.39,1.77-.64,3.57-1,5.34A131.14,131.14,0,0,1,171.33,279.15c-.8.13-1,.4-1,1.16a19.16,19.16,0,0,1-8.76,15.79l-1.22.86C234.28,292.12,293.15,233.05,297.93,159.5ZM140.8,2.77a143,143,0,0,0-51,12.71A148,148,0,0,0,16.45,88.81c-6.71,14.73-14.07,44.57-12.6,51a20.25,20.25,0,0,1,17.38-9.72c4.51-28.24,16.71-52.68,36.95-72.91s44.67-32.44,73-37A20.28,20.28,0,0,1,140.8,2.77ZM23.32,169.24a128.44,128.44,0,0,0,34.49,69.83c0-.45.07-.57.07-.69q0-24.62,0-49.23a2.69,2.69,0,0,0-.8-1.66q-11.11-11.19-22.29-22.32c-.25-.25-.53-.48-.84-.77A20,20,0,0,1,23.32,169.24ZM239.79,56.89A126.79,126.79,0,0,0,170.23,22.3a20.16,20.16,0,0,1-4.85,10.65c.19.22.29.34.41.46q11.41,11.42,22.85,22.81a2.85,2.85,0,0,0,1.85.65q24.06.05,48.12,0ZM57.88,60.83l-.31-.13a128.88,128.88,0,0,0-34.27,69.63,20.07,20.07,0,0,1,10.62,4.84c.23-.2.42-.35.58-.52q11.37-11.37,22.72-22.77a2.85,2.85,0,0,0,.64-1.85q.05-24,0-48Zm73.44-38.5A128.63,128.63,0,0,0,61.47,56.84c.57,0,.81,0,1,0q24.43,0,48.86,0a2.67,2.67,0,0,0,1.67-.78Q124.23,45,135.36,33.79c.28-.28.53-.58.8-.88A20.1,20.1,0,0,1,131.32,22.33ZM278.26,130.25a129.26,129.26,0,0,0-34.49-69.78c0,.64-.09.93-.09,1.21q0,24.32,0,48.64a2.68,2.68,0,0,0,.73,1.7q11.2,11.29,22.47,22.51c.23.23.48.42.71.62C271.65,132.09,272.82,131.55,278.26,130.25ZM136.19,266.64c-.38-.39-.68-.73-1-1q-11-11-22-22a2.91,2.91,0,0,0-2.27-.95q-23.95,0-47.89,0H61.79a126.73,126.73,0,0,0,69.52,34.59A20.12,20.12,0,0,1,136.19,266.64Zm103.88-23.88c-.69,0-1-.07-1.35-.07q-24.19,0-48.37,0a3,3,0,0,0-1.9.83q-11.16,11.06-22.24,22.2c-.28.28-.54.59-.83.9a20.13,20.13,0,0,1,4.89,10.59,128.57,128.57,0,0,0,69.81-34.49Zm27.58-78.36c-.21.17-.35.27-.46.38q-11.46,11.46-22.9,22.95a2.71,2.71,0,0,0-.58,1.76q0,24,0,48c0,.43,0,.86.08,1.63,18.77-19.95,30.22-43.08,34.5-69.88A19.9,19.9,0,0,1,267.65,164.4ZM106.07,104l33.8,19.67,9.58-37.87C132.72,86.43,118.46,92.39,106.07,104Zm18.62,34.85c-6.63-11.32-13-22.51-19.7-33.77-11.62,12.37-17.59,26.64-18.17,43.36Zm24.77,74.87L139.91,176,106.5,195.95A64.27,64.27,0,0,0,149.46,213.75Zm65.28-65.28a64.2,64.2,0,0,0-17.81-43L177,138.92Zm-62.61,65.12c12.6,1.12,35.55-8.43,42.79-17.73L161.65,176ZM196.87,194c9.81-8.49,19.29-31.39,17.67-42.81L177,160.65ZM152.09,85.82l9.55,37.72,33.42-19.92A64.4,64.4,0,0,0,152.09,85.82ZM104.7,193.94l19.84-33.29L87,151.15C85.53,162.86,95.29,186.45,104.7,193.94ZM87.42,84.6l17.3,17.3,14-25.7c-.55-.19-.89-.32-1.25-.42-4.63-1.33-9.3-2.53-13.87-4A3.83,3.83,0,0,0,99,73C95.22,77,91.23,80.81,87.42,84.6Zm126.72,0c-4.32-4.31-8.69-8.69-13.1-13a1.74,1.74,0,0,0-1.42-.2c-2.94.8-5.85,1.68-8.78,2.53l-8,2.31,14,25.68ZM84.41,150.87H59.9c0,6.24,0,12.38,0,18.52,0,.35.45.82.82,1,2.83,1.6,5.69,3.14,8.55,4.7l6.91,3.78Zm129.7,64.22-17.33-17.33L182.94,223.1c5.87,1.72,11.51,3.4,17.17,5a1.75,1.75,0,0,0,1.33-.53c3.24-3.18,6.43-6.41,9.64-9.61C212.14,216.92,213.23,215.93,214.11,215.1Zm-15.48-19.23,17.24,17.24c-.08,0,0,0,0,0,4.33-4.3,8.67-8.6,13-12.94a1.59,1.59,0,0,0,.19-1.31c-.86-3.09-1.77-6.17-2.67-9.25-.74-2.51-1.48-5-2.26-7.67Zm-95.69,0L77.57,182a4.27,4.27,0,0,0-.3.61c-1.61,5.48-3.23,11-4.77,16.47a1.82,1.82,0,0,0,.53,1.41c4,4,8,8,12,12,.25.25.53.48.7.63Zm48.91,20.28v24.4a6.63,6.63,0,0,0,.68.07c5.89,0,11.78,0,17.67,0a1.68,1.68,0,0,0,1.19-.76c1.43-2.5,2.79-5,4.17-7.56l4.32-7.91Zm73.47-37.36a4.69,4.69,0,0,0,.64-.23c5-2.72,10-5.43,14.94-8.21a1.8,1.8,0,0,0,.7-1.35c0-5.73,0-11.46,0-17.19a9.71,9.71,0,0,0-.1-1H217.14ZM103,103.69,85.71,86.44a.77.77,0,0,0-.21.13c-4.26,4.25-8.53,8.5-12.76,12.79a1.55,1.55,0,0,0-.22,1.27c1,3.65,2.1,7.27,3.17,10.91l1.78,6.09Zm-26.76,17c-5.37,2.94-10.61,5.79-15.81,8.69a1.62,1.62,0,0,0-.48,1.22c0,5.73,0,11.45,0,17.18,0,.31.06.62.09.94H84.42Zm28.55,77.06L87.47,215c4.2,4.19,8.51,8.51,12.87,12.78a1.72,1.72,0,0,0,1.41.21c3.37-.93,6.72-1.93,10.08-2.92l6.79-2Zm93.81-94.06L224,117.57a1.71,1.71,0,0,0,.22-.31c1.64-5.57,3.29-11.13,4.87-16.72a1.85,1.85,0,0,0-.53-1.45c-3.2-3.27-6.46-6.49-9.69-9.74-1-1-2-2.1-2.89-3.09ZM149.69,216.15l-28,8.19c.14.3.2.45.28.59,2.72,5,5.46,10,8.14,15,.38.7.86.74,1.5.74h16.93c.36,0,.72,0,1.12-.06Zm75.66-95.47-8.2,28h24.33a1.08,1.08,0,0,0,.11-.29c0-6.06,0-12.11,0-18.17a1.59,1.59,0,0,0-.76-1.06c-1.52-.9-3.09-1.73-4.64-2.58ZM151.84,83l27.92-8c-2.87-5.24-5.64-10.34-8.47-15.4a1.67,1.67,0,0,0-1.25-.63c-5.73,0-11.45,0-17.18,0-.32,0-.64,0-1,.06Zm-30-8.12,27.8,8v-24c-6.19,0-12.29,0-18.39,0a1.56,1.56,0,0,0-1.06.74c-1.13,2-2.19,4-3.28,5.95Zm158.76,57.41a136.51,136.51,0,0,1,0,34.9,17.45,17.45,0,1,0,0-34.9ZM168.21,279.92c-5.88.27-11.68.74-17.48.74s-11.64-.48-17.45-.75a17.43,17.43,0,0,0,18.46,17.31C162.84,296.6,168.68,286.82,168.21,279.92ZM21,167.35a133.87,133.87,0,0,1,0-35.15c-6.82.34-12,3.14-15.31,8.93-3.51,6.21-3.25,12.5.7,18.44C9.74,164.69,14.71,167.15,21,167.35ZM168.35,19.68c-.26-6.3-2.93-11.41-8.45-14.75a16.61,16.61,0,0,0-18.46.13c-5.38,3.35-8,8.42-8.23,14.63,5.89-.3,11.67-.82,17.45-.82S162.33,19.39,168.35,19.68ZM98.54,70.35,63,60.15,85.87,83ZM215.74,83l22.79-22.8L203.07,70.39ZM84,84.85,61.16,62,71.52,97.35ZM203.19,229l35.26,10.33-22.79-22.79Zm14.47-14.4,22.65,22.65-10.27-35ZM71.52,202.24,61.2,237.47,84,214.7Zm26.74,26.83L85.8,216.61,63,239.39ZM230.06,97.28l10.36-35.39L217.54,84.77ZM151.83,56.83h18L159.39,37.75l-7.56,1.91Zm-94,94H40.66l-1.93,7.55,19.08,10.43Zm91.83-94V39.66l-7.48-1.92L131.74,56.82Zm-109,91.86h17.1V130.77l-19,10.41Zm29.66,49.69c.32-.65.41-.78.46-.93,1.54-5.25,3.06-10.5,4.63-15.74.24-.79-.19-1-.72-1.3l-13.86-7.58a8.21,8.21,0,0,0-.93-.36c0,4.9,0,9.64,0,14.37a2.07,2.07,0,0,0,.66,1.22c2.92,3,5.88,5.89,8.81,8.85A9.1,9.1,0,0,1,70.32,198.37ZM120.84,76.74,109,98.39a70.47,70.47,0,0,1,36.18-14.66Zm122.91,92.09,19.07-10.43-1.91-7.54H243.74Zm-91.9,73.94v17.14l7.55,1.92,10.42-19.05ZM102.45,230c3.55,3.54,6.92,6.93,10.33,10.26a2.12,2.12,0,0,0,1.35.36c4.28,0,8.57,0,12.85,0,.34,0,.68-.06,1.16-.1L119.64,225ZM241.62,127.22c0-5,0-9.81,0-14.59a2.1,2.1,0,0,0-.69-1.21q-4.56-4.62-9.17-9.18c-.21-.21-.46-.39-.78-.65l-5,17.07Zm-171-25.57a2.43,2.43,0,0,0-.44.24c-3.3,3.29-6.6,6.57-9.87,9.9a2.08,2.08,0,0,0-.4,1.33c0,3.09,0,6.18,0,9.27,0,1.55,0,3.09,0,4.65a1.38,1.38,0,0,0,.37,0c4.92-2.67,9.84-5.34,14.73-8.06a1.33,1.33,0,0,0,.32-1.18c-.87-3.13-1.8-6.24-2.71-9.36Zm79,158.27V242.8H131.76l10.4,19ZM260.9,148.71l1.92-7.54-19-10.41v17.95Zm-87.51,91.85c.59,0,1,.06,1.38.06,3.13,0,6.28-.22,9.38.06a7.91,7.91,0,0,0,7.35-3.05c2.29-2.68,5-5,7.57-7.66l-17.15-5ZM231,198.08c3.52-3.53,6.94-6.92,10.3-10.35a1.94,1.94,0,0,0,.33-1.24c0-3.87,0-7.74,0-11.61v-2.52l-15.67,8.57ZM156.77,83.75l.05.31a66.28,66.28,0,0,1,35.6,14.49,5,5,0,0,0-.2-.77q-5.53-10.13-11.06-20.26c-.4-.73-.87-.55-1.44-.38l-16.24,4.69Zm42.06-14.28c-.21-.27-.3-.41-.41-.52-3.17-3.18-6.33-6.37-9.54-9.51a2.22,2.22,0,0,0-1.41-.5c-3.34,0-6.67,0-10,0h-3.89c0,.22,0,.31,0,.37,2.63,4.84,5.26,9.69,7.93,14.5a1.21,1.21,0,0,0,1.08.35C187.95,72.62,193.32,71.06,198.83,69.46Zm-70.6-10.55c-5,0-9.75,0-14.49,0a1.87,1.87,0,0,0-1.14.55q-4.66,4.6-9.27,9.26a5.37,5.37,0,0,0-.49.69l17,4.86Zm-28.48,49c-.48.2-.62.25-.75.32-6.72,3.68-13.43,7.37-20.17,11-.76.41-.66.85-.47,1.5q2.87,9.71,5.7,19.44c.28,1,.58,1.93.87,2.9A67.87,67.87,0,0,1,99.75,107.89ZM180.9,222.51l11.66-21.34a71,71,0,0,1-34.81,14.56Zm42.6-42.61-6.8-23.16a71.09,71.09,0,0,1-14.51,34.81ZM99.16,191.38a68.77,68.77,0,0,1-14.08-35,4.3,4.3,0,0,0-.3.54c-2.17,7.38-4.32,14.76-6.5,22.13-.22.73.07,1,.64,1.33q9.76,5.31,19.5,10.65C98.66,191.18,98.92,191.27,99.16,191.38Zm117.55-48.52,6.79-23.19L202.34,108.1A71.72,71.72,0,0,1,216.71,142.85Zm-96,79.66,23.2-6.81a71.66,71.66,0,0,1-34.76-14.34ZM60,190.32v43.57c.12-.16.18-.21.2-.28Q65,217.32,69.71,201a1.44,1.44,0,0,0-.31-1.18C66.35,196.72,63.26,193.63,60,190.32Zm0-81.25a5.19,5.19,0,0,0,.47-.35c3-3,6-5.93,8.9-8.95a1.82,1.82,0,0,0,.26-1.5c-2-7-4.09-14.07-6.14-21.1L60.11,65.71l-.14,0Zm7,131.31v.15h43.14c-3.27-3.27-6.37-6.4-9.52-9.47a1.46,1.46,0,0,0-1.19-.15c-3.44,1-6.88,2-10.31,3ZM241.54,65.83a3,3,0,0,0-.23.42q-4.74,16.16-9.44,32.34a1.68,1.68,0,0,0,.46,1.33c2.59,2.66,5.23,5.26,7.84,7.9a10.8,10.8,0,0,1,1,1.38l.37-.29ZM191.34,59c3.11,3.11,6,6,8.91,8.95a1.84,1.84,0,0,0,2.14.55c6.91-2,13.83-4,20.76-6l11.59-3.33,0-.15Zm.05,181.59h43.13a1.65,1.65,0,0,0-.75-.42l-28.2-8.23c-1.42-.41-3-1.33-4.23-1s-2.17,1.9-3.22,2.95C195.94,236,193.76,238.19,191.4,240.55Zm50.15-50.16c-3.31,3.32-6.42,6.4-9.46,9.54a1.74,1.74,0,0,0-.14,1.41q3.94,13.64,7.95,27.26c.49,1.67,1,3.33,1.5,5l.15,0ZM110.2,59H66.75a3.4,3.4,0,0,0,.46.24q16.25,4.68,32.51,9.32a1.31,1.31,0,0,0,1.09-.22C103.89,65.28,106.94,62.22,110.2,59Zm75.72-2.07L163.68,34.64l-2.57,1.93c3.61,6.61,7.18,13.15,10.79,19.67a1.72,1.72,0,0,0,1.29.61c3.05.05,6.1,0,9.16,0Zm-128,128c0-.21,0-.53,0-.84,0-3.92,0-7.84,0-11.75a1.58,1.58,0,0,0-1-1.63c-5.18-2.79-10.34-5.64-15.51-8.46l-3.88-2.11-1.89,2.57ZM140.45,263c-3.61-6.6-7.17-13.14-10.78-19.65a1.71,1.71,0,0,0-1.28-.63c-4,0-8,0-12,0a5.26,5.26,0,0,0-.82.12L137.77,265Zm125.5-126.14-22.19-22.19c0,.25-.07.6-.07.95,0,3.87,0,7.75,0,11.62a1.67,1.67,0,0,0,1.06,1.71c3.84,2.06,7.66,4.17,11.49,6.26l7.78,4.25Zm-128-102.21L115.68,56.89h.81c3.91,0,7.83,0,11.74,0a1.66,1.66,0,0,0,1.7-1c1.9-3.55,3.85-7.08,5.78-10.62l4.73-8.66Zm-80,80L35.63,136.89l1.91,2.5a4.43,4.43,0,0,0,.49-.19c6.39-3.49,12.78-7,19.15-10.5a1.68,1.68,0,0,0,.68-1.24c.06-2.68,0-5.35,0-8ZM264,160.17a3.14,3.14,0,0,0-.37.14c-6.43,3.51-12.86,7-19.26,10.55a1.83,1.83,0,0,0-.68,1.37c-.05,4,0,7.91,0,11.86a5.35,5.35,0,0,0,.09.76l22.16-22.16Zm-77.89,82.52h-1.5c-3.63,0-7.25,0-10.88,0a2.19,2.19,0,0,0-2.29,1.33c-3.18,5.95-6.45,11.85-9.69,17.77-.23.42-.43.85-.64,1.27l2.67,2ZM206.72,151l0-.12H171.2c1.41,2.37,2.77,4.57,4,6.83a1.44,1.44,0,0,0,2,.81c8.29-2.14,16.6-4.21,24.9-6.31C203.63,151.81,205.17,151.4,206.72,151Zm-54.9,55a7.24,7.24,0,0,0,.34-.79q3.72-14.67,7.44-29.33a1.13,1.13,0,0,0-.69-1.46c-2.07-1.19-4.11-2.44-6.17-3.65-.26-.16-.56-.26-.93-.43Zm0-76.58c2.5-1.49,4.78-2.88,7.09-4.19a1.18,1.18,0,0,0,.66-1.58Q156,109.51,152.4,95.37c-.12-.49-.31-1-.47-1.44l-.13,0ZM95,150.84l0,.13c.5.15,1,.33,1.49.46l26.34,6.67c2.85.72,2.85.72,4.4-1.85q1.27-2.12,2.52-4.25c.2-.34.35-.7.58-1.16Zm96.13,37.49-16.18-27.15-8.74,2.23Zm-1.9,1.72-24.82-24.82c-.62,2.45-1.23,5-1.94,7.5a1.34,1.34,0,0,0,.74,1.85c5.16,3,10.27,6.09,15.4,9.14ZM149.71,93.94l-.14,0c0,.14-.08.28-.12.42q-3.77,14.83-7.55,29.66c-.17.68.11,1,.63,1.25,2.15,1.22,4.27,2.48,6.41,3.71a5.19,5.19,0,0,0,.77.29ZM130.4,148.72c-1.45-2.5-2.82-4.79-4.12-7.13-.41-.73-.82-.8-1.58-.6-8.41,2.16-16.83,4.27-25.24,6.4l-4.55,1.17,0,.16Zm76.34,0a2.07,2.07,0,0,0-.28-.19q-14.94-3.81-29.89-7.58a1.26,1.26,0,0,0-1,.5c-1,1.49-1.83,3-2.74,4.54l-1.6,2.72Zm-57,21.48c-2.48,1.48-4.76,2.87-7.07,4.19a1.14,1.14,0,0,0-.63,1.55c1.9,7.36,3.74,14.74,5.6,22.12.64,2.52,1.3,5,1.95,7.57l.16,0Zm14.64-36,24.39-24.39L180.09,115l-17,10.12c-.49.29-1,.5-.75,1.3C163.07,129,163.71,131.71,164.34,134.2Zm-53.73,54-.06-.11,24.68-24.68c-2.36-.6-4.88-1.2-7.36-1.9a1.43,1.43,0,0,0-1.94.82c-4.9,8.3-9.85,16.57-14.78,24.86C111,187.48,110.79,187.83,110.61,188.17Zm55.6-52c2.54.64,5.18,1.26,7.79,2a1.07,1.07,0,0,0,1.45-.62q7.44-12.54,14.91-25.07c.19-.32.35-.67.51-1Zm-53.74,53.63.08.12,26.84-16-2.25-8.79Zm24.68-55.39,2.19-8.65-25.9-15.06Zm-2,1.79L112.08,113.1l14.69,25.26Zm16.63,16.35v14.59c3.06.27,8.47-2,10.35-4.22ZM164,161.26a17.16,17.16,0,0,0,4.26-10.37H153.63Zm-12.18-14.34,10.4-10.4a17,17,0,0,0-10.4-4.2Zm-3.83,4H133.4c-.06,3.51,1.94,8.27,4.26,10.35Zm1.69-3.95V132.32a17.09,17.09,0,0,0-10.39,4.25Zm-16.31,1.71H148l-10.31-10.34C135.42,140.25,133.4,145,133.37,148.66Zm16.31,4.11-10.31,10.3a17.2,17.2,0,0,0,10.31,4.22ZM164,138.37l-10.34,10.33h14.57A17.24,17.24,0,0,0,164,138.37Zm105.39-2,10.36,10.38-1.13-14.4A17.39,17.39,0,0,0,269.44,136.4ZM148.17,278.84,137.64,268.3a15.37,15.37,0,0,0-4.13,9.39ZM21.76,152.54l1.13,14.64A17.08,17.08,0,0,0,32.26,163ZM153.66,20.77l10.42,10.48a16.94,16.94,0,0,0,4-9.37ZM21.77,146.8l.29,0,10.2-10.28a17.24,17.24,0,0,0-9.37-4.17ZM137.4,31.14l10.42-10.36-14.46,1.12A17.19,17.19,0,0,0,137.4,31.14ZM278.69,167.07l1.12-14.52L269.35,163A15.41,15.41,0,0,0,278.69,167.07ZM153.48,278.83l14.7-1.15a16.9,16.9,0,0,0-4.15-9.34ZM264.69,157.38,276.25,151l-.1-.19H263ZM158.38,35.9,152,24.3l-.2.08V37.55Zm-119.82,115H25.36l-.06.19,11.57,6.33ZM158.38,263.68l-6.5-1.62v13.5ZM143.18,35.89l6.49,1.65V24ZM38.56,148.69l-1.7-6.49L25,148.69Zm237.61,0,0-.2-11.52-6.3L263,148.7Zm-133,115,6.47,11.8V262Zm-3.63-97.48,1.68,6.61,5.89-3.51Zm20.77,6.62,1.67-6.63-7.57,3.12ZM167.19,161l6.64-1.68-3.52-5.89Zm6.64-20.78-6.62-1.66,3.1,7.56Zm-19.38-10,7.56,3.14-1.69-6.63Zm-26.72,29.1,6.63,1.66-3.13-7.54Zm11.82-26,7.51-3.12-5.86-3.41Zm-5.18,5.18-6.52,1.66,3.4,5.84Zm27.8-105.4-6.49-6.5,4.42,8.06ZM35.71,159.1l-8.37-4.57,6.73,6.75Zm230.12-18.64,8.28,4.52-6.65-6.66Zm-120,132.76.13-.06-4.55-8.31-2.24,1.69Zm121.54-112,6.58-6.55-8.14,4.45ZM155.57,273.13l6.66-6.67-2.14-1.6ZM34.22,138.5l-6.1,6.12,7.6-4.16ZM141.46,34.73l4.45-8.17-6.55,6.57Z" transform="translate(-1.24 -0.25)"/></svg>