<?xml-stylesheet type="text/css" href="style.css" ?>

<svg fill="#dfe6e1" id="geometry" data-name="Layer 1" xmlns="http://www.w3.org/2000/svg" viewBox="0 0 254.61 283.33"><title>tool-2-new</title><path d="M52.5,96.16l.8-1.4,195.85,111.3-.8,1.4ZM150.8,262.6l.45-226.12h-1.61l-.45,226.12ZM52.91,207.25,249.17,94l-.81-1.4L52.1,205.86Zm145.44-28.71,1.52-.53L151.2,37l-1.52.53Zm-96.69,0L150.75,37.67l-1.52-.53L100.14,178Zm.56-54.11L248.52,95l-.32-1.58L101.9,122.84ZM151,207.51,249,94.69l-1.22-1.06L149.82,206.45Zm-.26,55.36,49.15-140.07-1.52-.53L149.26,262.33Zm-1.55,0,1.52-.53L102.82,123.38l-1.52.53Zm.39-55.33,1.21-1.06L53.5,94.93,52.29,96Zm49.44-84.18.29-1.58L53.06,94.67l-.29,1.58Zm.94,56V122.08L150.84,93.7l-.4-.23-49.56,28.61v57.23L150,207.69l.4.23ZM102.49,123l48-27.68,48,27.68v55.37l-48,27.68-48-27.68Zm48.45,83.58-47.85-82.78h95.7V122.2H100.26l1.11,1.85,48.17,83.35Zm0,.81,48.73-84-1.4-.81-48.73,84Zm48.36-29.69L151.14,94.36l-1.4.81,47.85,82.78h-95.7v1.61h98.53Zm-96.91,1.46,48.73-84-1.4-.81-48.73,84Zm146.76,28.3.4-.23V92.77l-98.72-57-.4-.23-98.72,57-.4.23V207.23l98.72,57,.4.23ZM52.93,93.7l97.51-56.29L247.95,93.7V206.29l-97.51,56.3-97.51-56.3Zm97.81,169.42L53.59,95l0-.08H248V93.36H50.7l1.5,2.51,97.14,168.06Zm0,.82L249,94.55l-1.4-.81L149.37,263.13Zm97.51-59.06L151.14,36.81l-1.4.81,97.14,168.07,0,.08H52.52v1.61H249.77ZM52.85,207,151.11,37.6l-1.4-.81L51.45,206.18Z" transform="translate(-22.7 -8.33)"/><path d="M51.77,234.21a29.07,29.07,0,1,1,29.07-29.07A29.1,29.1,0,0,1,51.77,234.21Zm0-56.53a27.46,27.46,0,1,0,27.46,27.46A27.49,27.49,0,0,0,51.77,177.68Zm0-52.82A29.07,29.07,0,1,1,80.84,95.79,29.1,29.1,0,0,1,51.77,124.86Zm0-56.53A27.46,27.46,0,1,0,79.22,95.79,27.49,27.49,0,0,0,51.77,68.33ZM150,291.67a29.07,29.07,0,1,1,29.07-29.07A29.1,29.1,0,0,1,150,291.67Zm0-56.53a27.46,27.46,0,1,0,27.46,27.46A27.49,27.49,0,0,0,150,235.14Zm-49.11-27.8A29.07,29.07,0,1,1,130,178.26,29.1,29.1,0,0,1,100.88,207.33Zm0-56.53a27.46,27.46,0,1,0,27.46,27.46A27.49,27.49,0,0,0,100.88,150.81Zm0,.92A29.07,29.07,0,1,1,130,122.66,29.1,29.1,0,0,1,100.88,151.73Zm0-56.53a27.46,27.46,0,1,0,27.46,27.46A27.49,27.49,0,0,0,100.88,95.2Zm98.23,112.13a29.07,29.07,0,1,1,29.07-29.07A29.1,29.1,0,0,1,199.12,207.33Zm0-56.53a27.46,27.46,0,1,0,27.46,27.46A27.49,27.49,0,0,0,199.12,150.81Zm0,.92a29.07,29.07,0,1,1,29.07-29.07A29.1,29.1,0,0,1,199.12,151.73Zm0-56.53a27.46,27.46,0,1,0,27.46,27.46A27.49,27.49,0,0,0,199.12,95.2ZM150,236.06A29.07,29.07,0,1,1,179.07,207,29.1,29.1,0,0,1,150,236.06Zm0-56.53A27.46,27.46,0,1,0,177.46,207,27.49,27.49,0,0,0,150,179.53Zm0,0a29.07,29.07,0,1,1,29.07-29.07A29.1,29.1,0,0,1,150,179.53ZM150,123a27.46,27.46,0,1,0,27.46,27.46A27.49,27.49,0,0,0,150,123Zm0-56.53A29.07,29.07,0,1,1,179.07,37.4,29.1,29.1,0,0,1,150,66.47Zm0-56.53A27.46,27.46,0,1,0,177.46,37.4,27.49,27.49,0,0,0,150,9.94ZM150,123a29.07,29.07,0,1,1,29.07-29.07A29.1,29.1,0,0,1,150,123Zm0-56.53a27.46,27.46,0,1,0,27.46,27.46A27.49,27.49,0,0,0,150,66.47Zm98.23,167.74a29.07,29.07,0,1,1,29.07-29.07A29.1,29.1,0,0,1,248.23,234.21Zm0-56.53a27.46,27.46,0,1,0,27.46,27.46A27.49,27.49,0,0,0,248.23,177.68Zm0-52.82A29.07,29.07,0,1,1,277.3,95.79,29.1,29.1,0,0,1,248.23,124.86Zm0-56.53a27.46,27.46,0,1,0,27.46,27.46A27.49,27.49,0,0,0,248.23,68.33Z" transform="translate(-22.7 -8.33)"/></svg>