
<?xml-stylesheet type="text/css" href="style.css" ?>
<svg fill="#dfe6e1" id="Layer_1" data-name="Layer 1" xmlns="http://www.w3.org/2000/svg" viewBox="0 0 222 295.31"><title>tool-1-new</title><filter id="blur-effect-1">
        <feGaussianBlur stdDeviation="2" />
    </filter><path id="outer-eye" d="M40.95,236.71c.71-2.56,1.64-5.08,2.1-7.68.74-4.18,3.25-7.46,5-11.12,2.08-4.26,5.4-7.57,8.57-10.93,3.43-3.64,7.94-5.65,12.64-7.26a34.79,34.79,0,0,1,13.24-1.54c1.89.1,3.76.41,5.45.61.68-4.42,1.17-8.86,2.07-13.2,1.27-6.14,4.37-11.45,7.91-16.57,4.64-6.72,9.18-13.52,13.48-20.46a37.56,37.56,0,0,0,5.83-17c.34-4.45.53-8.9.78-13.35.2-3.54.38-7.09.59-11a73.58,73.58,0,0,0,3.91,6.47c1.51,2,3.44,3.69,5.05,5.63,2.12,2.54,4.14,5.17,6.17,7.79a11,11,0,0,1,.89,1.7c5.15-12.78,10.18-25.47,15.39-38.08a52.28,52.28,0,0,0,4.14-22,39.61,39.61,0,0,0-2-11.76,35.51,35.51,0,0,1-1.36-8.08,76.86,76.86,0,0,1-.4-8.63c.09-6.94,1.23-13.61,4.56-19.88s6.08-12.55,9.1-18.84c.32-.67.7-1.32.83-1.55.38,5,.69,10.4,1.22,15.75.41,4.17,1,8.33,1.65,12.47.69,4.56,2.72,8.62,4.81,12.67,2.81,5.44,7.31,9.59,10.67,14.59a41.21,41.21,0,0,1,4.82,9.1c1.85,5.27,3.17,10.74,4.61,16.15a31.62,31.62,0,0,1,.51,4.55l12.91-13c.5,2.79.92,5.1,1.34,7.42,1.38,7.5,1.83,15.23,4.68,22.38,1.36,3.4,3.56,6.45,5.29,9.71a99.17,99.17,0,0,1,5.15,10.36,37.23,37.23,0,0,1,2.54,10,103.5,103.5,0,0,1-.14,13.35c-.23,5.23-3,9.65-4.78,14.41a9.74,9.74,0,0,0-.34,1.08c0,.09.1.22.38.77a25.08,25.08,0,0,0,2.39-3.43c2.52-5.38,4.92-10.82,7.39-16.22,3-6.45,5.85-12.92,8.93-19.3a31.16,31.16,0,0,1,8.3-10.82c2.87-2.36,6.34-3.3,9.38-5.18,1.89-1.17,4-2,6.24-3.14a16.71,16.71,0,0,1,0,2.45c-.71,4.32-1.67,8.61-2.17,13-.71,6.2-1.1,12.44-1.59,18.66-.54,6.81-.78,13.65-1.63,20.41q-1.79,14.15-4.36,28.19a90.94,90.94,0,0,1-4.3,16,154.55,154.55,0,0,1-10.25,22.45,169.12,169.12,0,0,1-15.4,22.3C220,251,216.13,254.35,212.64,258c-6.16,6.39-13.29,11.57-20.71,16.33-3.49,2.24-7.38,3.84-11.06,5.78A145.31,145.31,0,0,1,156.17,290a91.76,91.76,0,0,1-24.31,4.5c-4.22.14-8.44.26-12.66.42a8.05,8.05,0,0,0-1.55.37h-6.17a12.52,12.52,0,0,0-1.75-.36c-4.44-.29-8.92-.33-13.33-.87a84.53,84.53,0,0,1-26.18-7.18c-8-3.77-15.13-8.69-20.18-16.2a49.12,49.12,0,0,1-8.35-21.47c-.2-1.61-.5-3.2-.75-4.8Q40.95,240.57,40.95,236.71ZM160.46,24.65l-.72-.06c-.81,3.67-1.65,7.34-2.42,11a35.36,35.36,0,0,0,.59,16.22,98.25,98.25,0,0,1,2.5,18.27,33.16,33.16,0,0,1-.38,6.67c-.43,3.06-.66,6.26-1.75,9.11-4.19,11-8.6,22-13.09,32.92-3.16,7.68-5.42,15.52-5.55,23.88,0,3.23-.06,6.45,0,9.68a25.92,25.92,0,0,0,.48,5.13c1.22,5.4,2.6,10.76,3.92,16.13,1.06,4.32,2.43,8.59.71,13.09-1.31,3.43-6.9,4.81-9,1.89a12.69,12.69,0,0,1-2.57-6.45,76.41,76.41,0,0,1,.82-15.09c1.14-6.63.36-13.1-.46-19.6a35.13,35.13,0,0,0-3.71-12.15c-1.48-2.79-3.17-5.47-4.8-8.18-.16-.27-.58-.39-1.24-.82a17.44,17.44,0,0,1,0,2.54c-.77,4.56-1.17,9.23-2.47,13.64-2.49,8.48-7.82,15.48-12.83,22.59-2.53,3.58-5.23,7-7.69,10.67-3,4.36-4.14,9.45-5.42,14.44a33.9,33.9,0,0,0-.9,12.11,65.17,65.17,0,0,1,0,6.83c-.49-.24-1.07-.48-1.6-.8-8-4.78-16.06-5.22-24.28-.37-8.76,5.16-16.07,11.54-18.58,21.86a79.36,79.36,0,0,0-1.72,12.46c-.16,2.05.47,4.16.72,6.25.62,5.21,1.62,10.3,4.11,15a36.22,36.22,0,0,0,16.15,15.73,83.54,83.54,0,0,0,15.87,5.55,87.42,87.42,0,0,0,13,2,146.69,146.69,0,0,0,14.66,1.12c5.81,0,11.64-.31,17.45-.73a99.77,99.77,0,0,0,13.21-1.59c8.62-1.8,17.18-3.85,25.23-7.68,9.08-4.32,18.23-8.51,26.19-14.72,5.86-4.57,11.54-9.4,17.06-14.39a92,92,0,0,0,8.84-9.53,105.06,105.06,0,0,0,8.29-11,159.48,159.48,0,0,0,7.7-14.09c2-3.93,4-7.91,5.21-12.11,2.58-9.24,5.87-18.33,6.8-28,.53-5.51,1.32-11,1.79-16.5.32-3.82.27-7.67.44-11.5.09-2,.26-4,.48-5.92.44-3.93,1-7.84,1.43-11.77q.58-4.73,1.14-9.47l.44-3.65L254,115a28.2,28.2,0,0,0-4.38,3.53c-4.24,5.06-7.29,10.9-10.13,16.82-1.73,3.61-2.94,7.46-4.51,11.15-2,4.75-4,9.53-6.36,14.15-2,4-4.7,7.46-9,9.24-2.56,1.07-5,1.06-6.5-1.89a10,10,0,0,1-.41-7.3c1-3.65,2.71-7.11,4-10.7a37.83,37.83,0,0,0,1.54-18,46.68,46.68,0,0,0-5.06-15.18,37.09,37.09,0,0,0-2.37-4.06c-1.43-2.08-3.29-3.92-4.4-6.15a36.89,36.89,0,0,1-3.63-16.31c0-1.88,0-3.76,0-5.64l-.56-.23A13.71,13.71,0,0,0,200,86.78a29.48,29.48,0,0,0-4.25,10.53,58.18,58.18,0,0,0,0,16.78c.81,6.58,2.09,13.12,1.62,19.77-.28,4-1.7,7.7-5.3,10.08-3.86,2.55-10.94,2.47-12.33-4.53a44.42,44.42,0,0,1,.07-17.25c1.43-7.28,3.3-14.48,4.79-21.76a86.39,86.39,0,0,0,1.6-11.51,42,42,0,0,0-1.92-14.11A54.93,54.93,0,0,0,175.08,56c-2.11-2.75-4.73-5.17-6.52-8.1A56.43,56.43,0,0,1,160.46,24.65Zm29,87a9.05,9.05,0,0,1-.12,1.8c-1.21,5.37-2.64,10.71-3.65,16.11a22.44,22.44,0,0,0-.11,7.75c.43,2.51,2.12,2.75,3.82.87a6.25,6.25,0,0,0,1.08-1.74c1.67-4,1.33-8,.59-12.19S189.9,115.55,189.41,111.62Zm-63.54,31.58c2.77,7.44,3.3,15,2.89,22.59-.21,4-1.18,7.91-1.77,11.88-.76,5.11-.89,10.15,1.73,14.87,1.32,2.37,3.58,3.41,6,4.06,4.29,1.14,8.23,0,11.82-2.32,2.75-1.8,3.75-4.89,4.54-7.79,2-7.27,1-14.42-1.38-21.51a47.88,47.88,0,0,1-1.95-9.5,73.76,73.76,0,0,1-.74-11.82c.28-6.72,1-13.35,4.14-19.59,2.35-4.71,3.8-9.86,5.87-14.71a132.8,132.8,0,0,0,6.48-20.76c1.82-7.44,1.8-15,1.24-22.62a71.12,71.12,0,0,0-3.09-16.87c-.41-1.25-.76-2.52-1.3-4.35a12.74,12.74,0,0,1,1.48,1.19c8.26,9.79,15.28,20.29,17.78,33.14a48.15,48.15,0,0,1-.48,21.46c-1.68,6.46-3.76,12.83-5.31,19.32a40.89,40.89,0,0,0-.52,18c.81,3.77,2.2,7.64,5.39,10.4,4,3.48,8.5,3.41,13.24,1.94,7.42-2.29,9.88-6.82,10.53-14.15.17-1.9.88-3.83.68-5.67A78.37,78.37,0,0,0,201,117.66a54.78,54.78,0,0,1-2.3-12.32c-.12-2.49.55-5,.87-7.52h.53c.54,2.2,1,4.42,1.63,6.59a39.75,39.75,0,0,0,6.06,13.12,29.43,29.43,0,0,1,4.92,12.16c1,5.19,1.69,10.41.07,15.52-1.2,3.79-3.13,7.34-4.54,11.08a59.46,59.46,0,0,0-3,9.44c-.73,3.7,2.06,5.7,4.64,7.65,4.78,3.6,9.57,1.88,14.24-.11,6.13-2.62,8.61-8.17,10.68-14,1.8-5.08,3.33-10.29,5.57-15.17s5.32-9.66,8-14.47l.74.32c-.14.75-.3,1.49-.41,2.24q-1,6.87-1.94,13.74c-.76,5.51-1.56,11-2.24,16.52-.61,5-1,10-1.66,15a53.34,53.34,0,0,1-2.11,9.49q-3.25,9.67-7,19.16c-3.51,8.84-8.84,16.66-14.39,24.3a112.65,112.65,0,0,1-7.62,8.85c-2,2.28-4.08,4.59-6.34,6.65-4,3.64-8.15,7.11-12.25,10.64-7.81,6.71-16.89,11.28-26.39,14.93a112.71,112.71,0,0,1-25.38,6.91c-4.85.65-9.68,1.58-14.55,1.87-8.36.49-16.74.8-25.11.75a44.4,44.4,0,0,1-16.87-3.59,104.94,104.94,0,0,1-13.38-6.17c-6.69-4-12.14-9.41-15.11-16.81a31.66,31.66,0,0,1-1.86-8.18,32.89,32.89,0,0,1,1.11-14.47c3.75-10.94,11.15-18.19,22.6-20.34,5-.93,9.79,1,14,4.06a22.3,22.3,0,0,1,9,13.5,18.45,18.45,0,0,1-1.5,11.21c-.94,2.1-2.23,4-3.34,6a9.31,9.31,0,0,0,2.09-1.39c3.3-3.64,4.42-8,5.05-12.86.8-6.08-1.32-11.68-1.92-17.52-.65-6.29-1.42-12.58-.55-18.92.41-3,.42-6.17,1.33-9a50.24,50.24,0,0,1,4.82-11c1.75-2.86,4.67-5,6.68-7.72A70.08,70.08,0,0,0,125,145.42C125.21,144.66,125.57,143.93,125.87,143.19ZM80.2,244.75c3.17.85,5.92.6,8.12-1.28,7.68-6.55,5.41-17-2.26-22-6.67-4.35-12-3-17.73,2.09-3,2.72-4.39,6.38-5.23,10.41a32.86,32.86,0,0,0-.45,13.63c1.54,7.33,5.88,13.09,11.69,17.4a37.61,37.61,0,0,0,12.12,5.59c7.75,2.17,15.84,2.44,23.87,2.73a54.23,54.23,0,0,0,8-.73c5.57-.63,11.23-.89,16.69-2.06a147.63,147.63,0,0,0,34.7-11.81c8.32-4.11,16.4-8.66,23.55-14.62,4.49-3.75,8.85-7.67,13-11.79a75.82,75.82,0,0,0,8.06-9.49c3.05-4.24,5.79-8.71,8.51-13.16A117.28,117.28,0,0,0,234,185.28c1.88-5.65,3.18-11.5,4.64-17.28.66-2.61,1-5.28,1.56-7.93a26,26,0,0,0-2.23,3.56,42.69,42.69,0,0,1-9.53,11.11c-5.59,4.7-11.88,6.44-18.88,4.23-7.19-2.28-9.51-9.71-6.91-16.22.9-2.25,2.38-4.31,3-6.62,1.09-4.11,1.73-8.34,2.56-12.52l-.57-.14c-.17.18-.43.33-.5.55-3.72,11.67-10.59,14.87-20.75,15.56a23.12,23.12,0,0,1-15.85-5.23,25.62,25.62,0,0,1-5.92-6.63c-3.05-4.91-3.29-10.38-2.75-16.09a75.7,75.7,0,0,1,4.19-17.6c1.18-3.43,2.66-6.78,3.61-10.28a65.43,65.43,0,0,0,1.53-9.2c.29-2.4.33-4.83.47-7.25-1.1,3.77-1.74,7.64-3.13,11.23-2.57,6.64-5.5,13.15-8.46,19.64-1.34,2.94-3.3,5.61-4.59,8.57-2.46,5.67-2.26,11.76-1.92,17.73a51.54,51.54,0,0,0,2,12.53c1.4,4.43,2.89,8.75,3.43,13.41.7,6,.43,12-2.16,17.44-5.55,11.65-17.23,17.15-29.61,15.27a10.57,10.57,0,0,1-8.72-11.27c.63-6.06,2-12,2.82-18.09.45-3.22.49-6.49.72-9.74l-.54-.07c-.11.21-.22.41-.32.62-2.64,5.65-5.22,11.32-7.93,16.93-1,2.17-2.54,4.13-3.55,6.31a47.7,47.7,0,0,0-4.37,19.63c0,3.19.21,6.39.38,9.58.14,2.68.16,5.37.54,8,.66,4.59-.16,9.06-1.09,13.46s-3.63,7.84-7.15,10.79c-3.05,2.55-6,3.89-9.93,2.44A14.81,14.81,0,0,1,80.2,244.75Z" transform="translate(-40.95)"/><path id="test" fill="#b7d5f1" d="M76.75,240.78C75.35,250,78,254.56,87,255.58a43,43,0,0,0,8,0,18.6,18.6,0,0,0,13.74-7.64c3.38-4.39,4.41-9.67,5.09-15a98.27,98.27,0,0,0,1.09-11.77,41.88,41.88,0,0,0-1.75-12.25c-1.2-4-1.82-8.27-.47-12.39,1.26,2.43,2.54,4.84,3.78,7.28a13.4,13.4,0,0,0,10.94,7.68c2,.21,4.05-.71,6.08-1.15.73-.16,1.46-.64,2.16-.57a5.84,5.84,0,0,0,5.25-2.12,19.78,19.78,0,0,1,3.55-2.44c1.24-.85,2.48-1.7,3.69-2.59.61-.45,1.09-1.35,1.72-1.45,3.92-.61,5.85-3.6,8.07-6.34.77-1,2.06-1.47,3-2.31a23.78,23.78,0,0,0,3.32-3.39,34.15,34.15,0,0,0,2.31-4.19c1.16,3.46-.19,6.49-1.45,9.54,2.87-.72,6-6.72,7-12,.93-5.14-1-9.57-2.76-14.47,3.73,2.39,6.8,4.95,8.81,8.6s4.23,7,4.34,11.38c3.64-4.91,9.12-8.13,11.18-14.5,1.63,4,.39,7.63.55,11.06,1-.85,1.83-1.62,2.73-2.24s1.49-.34,1.69.71c.27,1.43.56,2.85.75,4.29.24,1.77.78,2.08,2.31,1.08a7.65,7.65,0,0,1,6.13-.76,4.4,4.4,0,0,0,4.37-1.29,14.75,14.75,0,0,1,8.32-3.91,43,43,0,0,1,5.14-.39c1.39-.07,1.81.68,1.51,2a9.33,9.33,0,0,1-3.78,6,19.87,19.87,0,0,0-6.79,7.66,16.87,16.87,0,0,1-1.85,2.43c1.91,2.6,1.75,3.49-.92,5.52-1.57,1.19-3.13,2.42-4.57,3.76-1.07,1-2.28,1.89-1.54,3.88.22.6-1.15,2-2,2.77-1.7,1.48-3.66,2.68-5.35,4.18s-2.1,3.28-2.25,5.49c-.09,1.34-1.27,3.32-2.43,3.75a11,11,0,0,0-7.36,7.81c-.7,2.49-3.47,3-5,4.82a34.59,34.59,0,0,1-3.4,3.73,11.09,11.09,0,0,1-3,1.73c-1.44.63-3.43.19-4.16,2.19-.07.18-.28.36-.25.51.79,4-2.49,3.9-4.62,4.11a33.09,33.09,0,0,0-11,3.5c-6.14,2.95-12.72,4.41-19.3,5.85a65.86,65.86,0,0,1-9.39,1.49,14.14,14.14,0,0,1-5.79-.86c-4.6-1.73-9-.86-13.49.32a50.86,50.86,0,0,1-18.15,1.5,26.72,26.72,0,0,1-13.34-4.81c-6.21-4.45-9.29-10.73-9.82-18.21a37.91,37.91,0,0,1,.43-9,10.36,10.36,0,0,1,13.47-7.81c4.09,1.45,6,4.7,5.22,8.83-.74,3.91-3.56,6-7.91,5.84C78.12,240.92,77.44,240.84,76.75,240.78Zm88.73-40.15c-4.78,2.93-9.86,5.3-10.67,11.55-3-1-3.37-2.61-1.46-4.44a6.47,6.47,0,0,0,.74-.61c.64-.85,1.25-1.74,1.86-2.61a19.18,19.18,0,0,0-3.6,2.25,18.88,18.88,0,0,0-6.75,8.08,3.81,3.81,0,0,1-2.6,2.56c-1.36-.92-1.91-1.85-.45-3.21a14.67,14.67,0,0,0,1.78-2.8c-3.14,1.93-5.44,3.94-6.82,6.83-.6,1.26-1.06,2.58-1.61,3.86s-2.25,2-3.18,1.32c-1.18-.8-1.14-1.87-.23-2.93.62-.72,1.23-1.44,1.81-2.2s1.27-1.77,1.91-2.66c-1.46.93-2.49,2.25-3.82,3.14a8.31,8.31,0,0,0-3.51,4.77c-.5,1.81-.45,3.78-.9,5.61a4.52,4.52,0,0,1-1.62,2.37c-.34.25-1.87-.3-1.92-.65a5,5,0,0,1,.6-2.38c.66-1.68,1.4-3.32,2.1-5l-.49-.17a17.8,17.8,0,0,1-2.07,3.14,5.88,5.88,0,0,0-1.92,4.8c.13,1.9.36,3.8.35,5.71a2.43,2.43,0,0,1-3.57,2c-1.63-.82-1.86-1.72-.91-3.63.34-.68.75-1.33,1-2a20.49,20.49,0,0,0,.61-2,12.08,12.08,0,0,0-4.72,8.3,36.91,36.91,0,0,1-.54,4.73,16.63,16.63,0,0,1-7.07,9.67,34,34,0,0,1-6.32,3.46c-4.33,1.74-9,1.46-13.47,1.13a21.22,21.22,0,0,1-7.8-2.21c-3.61-1.82-5.58-5.29-6.35-9.13-.61-3-.39-6.23-.61-9.35-.1-1.44.47-2.51,1.84-2.66s1.5,1.24,1.74,2.27c0,.11.15.19.19.24,5,.79,6.06-1.74,5.85-5.57a2.78,2.78,0,0,0-2.35-2.79c-4.83-1.19-8.53,1.16-9.15,6.18a55.81,55.81,0,0,0-.35,9.93,15.66,15.66,0,0,0,4.4,10.5c4.61,4.7,10.51,6.22,16.67,6.85,6.34.64,12.47-.23,18-4,2.15-1.47,4.8-1.73,7,.81.37.44,1.26.44,1.91.65a9.72,9.72,0,0,0-1-2,8.78,8.78,0,0,1-.34-2.15A7.06,7.06,0,0,1,120,256c.58.15,1,.89,1.5,1.43,1.66,2,3.94,1.85,6.22,1.9a2.66,2.66,0,0,0-1.15-1.23c-1.11-.44-1.62-1.17-.93-2.17a1.68,1.68,0,0,1,2.68-.17c.53.45.89,1.1,1.4,1.57,1.26,1.14,2.44,2.44,4.44,2.19,1.73-.22,3.47-.27,5.21-.41.46,0,.92-.1,1.38-.15l.08-.62c-1.81-.39-3.65-.67-5.41-1.21-.75-.23-1.86-1-1.88-1.55,0-1.07.47-2.42,2-2.18a12.53,12.53,0,0,1,3.92,1.19c2.12,1.13,4,2.77,6.68,2.18s5.07-1.23,7.6-1.85c-2.3-.18-4.64-.07-7-.24a7.81,7.81,0,0,1-2.49-1.17,9,9,0,0,1,1.22-2c1.32-1.26,2.91-1,4.51-.56,2.07.57,4.18,1.51,6.25,1.45,2.73-.08,5.44-1,8.16-1.54a36.88,36.88,0,0,0-5.78-.23c-1.21,0-2.53-.21-2.27-1.54a3.77,3.77,0,0,1,2.37-2.22,10.18,10.18,0,0,1,3.8.14c2.52.28,5,.5,6.91-1.73A7,7,0,0,1,172,244c.71-.3,1.44-.55,2.16-.82l-.1-.46c-2.29.18-4.57.4-6.86.52-1.11.06-2.73.31-2.77-1.17,0-.72,1.52-1.5,2.38-2.22.12-.1.38,0,.57,0,2,.12,3.95.32,5.92.34a5.9,5.9,0,0,0,2.75-.54c2.38-1.27,4.66-2.72,7.23-4.25a3.47,3.47,0,0,0-1.07-.14c-1.83.51-3.67,1-5.46,1.61s-3,.23-3.69-1.42c-.46-1.12.34-2.43,1.88-2.92a8.33,8.33,0,0,1,2.25-.38c2.05-.06,4.13.15,6.16-.12a11.58,11.58,0,0,0,4.56-1.53,26.89,26.89,0,0,0,3.89-3.6,75.79,75.79,0,0,0-7.92,2.24c-1.3.42-2.48.43-3-1.11a2.35,2.35,0,0,1,2.12-2.8c1.42-.18,3,.14,4.28-.31a61.66,61.66,0,0,0,6.36-3l-.35-.85a32.16,32.16,0,0,1-4.48,1.22c-.76.1-2.1-.29-2.31-.82a2.65,2.65,0,0,1,.76-2.38,5.18,5.18,0,0,1,2.78-.81c2.45-.19,5.05.52,7.22-1.22,1.28-1,2.47-2.16,3.7-3.24a3.1,3.1,0,0,0-1.89.26,20.89,20.89,0,0,1-3.63,1.62c-.82.18-2.33-.12-2.58-.65a3,3,0,0,1,.4-2.79,6.83,6.83,0,0,1,3.75-1.28c2.3-.07,4.52-.19,6.38-1.66,1.22-1,2.28-2.14,3.41-3.22-1.47.38-2.63,1.34-4,1.86a4.77,4.77,0,0,1-3.26.1c-.42-.17-.65-2.25-.19-2.75a6,6,0,0,1,3.35-1.66c5.26-.76,9.17-3.06,11-8.35a26.55,26.55,0,0,1,2.43-4.56c.62-1.05,1.35-2,2.27-3.42-.69.2-1,.19-1.11.34-2.92,3.12-5.93,6.17-8.69,9.44a10.83,10.83,0,0,1-5.94,3.49c-1.5.37-3.52-.56-3.7-1.65a3,3,0,0,1,2-3.36c1.82-.87,2.72-2.47,3.44-4.41-1.94,1.34-3.76,2.46-5.42,3.78-2.86,2.28-7.07,2.54-9.07,6.16-.2.36-1.43.14-2.18.19a19.16,19.16,0,0,1,.37-2.8c.08-.31.74-.45,1.11-.7a17.48,17.48,0,0,0,5.28-5.11,76.62,76.62,0,0,0-7.24,4.88c-1.92,1.53-3.52,3.44-5.38,5a8.93,8.93,0,0,1-3,1.67,1.89,1.89,0,0,1-1.62-.87,2,2,0,0,1,.46-1.79,20.34,20.34,0,0,1,3-2c2.07-1.27,4.08-2.57,4.94-5.4a52.73,52.73,0,0,1-6.07,4.17,12.65,12.65,0,0,0-6.21,6.19,6.63,6.63,0,0,1-1.77,1.93c-1.13,1-2.06.07-2.74-.61-.26-.26,0-1.41.41-1.91a25.23,25.23,0,0,1,2.41-2.41c.94-.95,1.84-1.92,2.76-2.88a22.16,22.16,0,0,0-3.67,2.13c-3.05,1.79-5.92,3.68-7.36,7.18-.24.59-1.51,1-2.33,1-.44,0-1.34-.92-1.3-1.35A3.63,3.63,0,0,1,161,205.5C162.65,204.09,164.7,203.08,165.49,200.63Z" transform="translate(-40.95)"/><path id="inner-eye" fill="#b7d5f1" d="M198.23,204.1c-3.11,3-6.31,5.94-9.3,9.07-2.77,2.9-5.24,6.07-8,9q-4.54,4.93-9.3,9.66c-3.84,3.82-7.52,7.89-11.77,11.2a41.7,41.7,0,0,1-15.26,7.24,79.28,79.28,0,0,1-19.54,3c-3.2,0-6.41,0-10.31,0,2.73-4.65,4.89-9.09,7.74-13a102.1,102.1,0,0,1,10.63-12.51,64.37,64.37,0,0,1,20.54-14c7.45-3.14,14.91-6.14,22.89-7.55,5.5-1,11.07-1.55,16.62-2.28,1.56-.21,3.13-.32,4.69-.48Zm-26.45,22.14,17.83-18.83-.33-.49-24.71,5.41C169.52,215.91,170.93,220.63,171.78,226.24Zm-29.34-2.14-.56-.18a22.37,22.37,0,0,0-2.34,2.42,4.94,4.94,0,0,0-1,2.45c-.32,6.06,2.94,10,7.8,13,3.13,1.94,6.16,2,9.16-.23a80.83,80.83,0,0,0,7-5.27c1.82-1.68,3.33-3.64,3-6.6-.45-4.48-1.43-8.69-4.68-12-1.13-1.14-2.49-2.58-4.43-1.94a49.94,49.94,0,0,0-4.78,2.17c8,1.06,12.46,6.24,10.36,14.73-1,4-7.53,7.65-12.27,6.63a10.53,10.53,0,0,1-6.8-4.68C140.94,231.46,140.23,227.8,142.44,224.11Zm-2,23.64c-5.54-3.21-7.69-8.09-9.26-13.34-4.18,4.7-7.95,9.43-10.29,15.36A66.43,66.43,0,0,0,140.48,247.75Zm11.8-11.81c4.22.1,6.56-3.41,6.93-7.36.31-3.4-3.34-7-6.8-6.87-4.53.17-7.7,2.52-7.71,6.73C144.7,232.91,147.51,235.79,152.28,235.94Zm-4.94-7.27c0-2.26,2.21-4.65,4.35-4.69,2.81-.05,4.68,2.09,5,5.13.18,1.91-2.69,4.5-4.68,4.49C149.23,233.59,147.36,231.55,147.34,228.68Zm6.89.55,0-.9c-.8-.53-1.57-1.44-2.41-1.52-1.36-.12-1.79.9-1.8,2.29,0,1.54.85,2,2,1.77C152.81,230.67,153.49,229.8,154.23,229.23Z" transform="translate(-40.95)"/></svg>