<svg id="Layer_1" data-name="Layer 1" xmlns="http://www.w3.org/2000/svg" viewBox="0 0 93.98 84.05"><title>speaker_on</title><path fill="#b7d5f1" d="M12.1,71A9.11,9.11,0,0,1,3,62H3V38a9,9,0,0,1,9-9H28.6L49.2,9.2a3.78,3.78,0,0,1,5.3-.3,3.63,3.63,0,0,1,1.2,2.8V88.3A3.71,3.71,0,0,1,51.9,92a3.63,3.63,0,0,1-2.8-1.2L28.6,71Zm58.5-6.6a20.34,20.34,0,0,0,0-28.7,2.54,2.54,0,0,0-3.6-.1,2.5,2.5,0,0,0-.8,1.8V62.7a2.56,2.56,0,0,0,2.6,2.5A2.69,2.69,0,0,0,70.6,64.4Zm2.8,22.7a41,41,0,0,0,0-74.2,5.13,5.13,0,0,0-4.3,9.3,30.77,30.77,0,0,1,0,55.6,5.12,5.12,0,0,0,4.3,9.3Z" transform="translate(-3 -7.95)"/></svg>
