<?xml version="1.0" encoding="utf-8"?>
<!-- Generator: Adobe Illustrator 21.0.0, SVG Export Plug-In . SVG Version: 6.00 Build 0)  -->
<svg version="1.1" id="eye" xmlns="http://www.w3.org/2000/svg" xmlns:xlink="http://www.w3.org/1999/xlink" x="0px" y="0px"
	 viewBox="0 0 265 195.1" style="enable-background:new 0 0 265 195.1;" xml:space="preserve">
<style type="text/css">
	.st0{fill:#DFE6E1;}
</style>
<title>tool-3-new</title>
<path class="st0" d="M100.3,96.6l0.3-0.4L100.3,96.6z M140.1,25.9c0.8-2,1.2-4.1,1-6.3c-0.1-0.9-0.2-1.9-0.1-2.8
	c0.3-4.9,0.8-9.7,1.1-14.6c0.1-0.5,0-1.1-0.1-1.6c-0.1-0.3-0.6-0.4-0.9-0.7c-0.2,0.3-0.5,0.5-0.5,0.8c0,0.6,0.2,1.2,0.1,1.8
	c-0.3,4.3-0.7,8.7-0.9,13c-0.1,3.4,0,6.8,0,10.2L140.1,25.9z M74.7,115.5L74.7,115.5L74.7,115.5L74.7,115.5z M72.6,116
	c-1.5,0.9-2.8,2-4.3,2.9c-3,1.8-6,3.5-9,5.3c-0.9,0.7-1.8,1.4-2.6,2.2l0.3,0.5c0.4-0.1,0.8-0.2,1.2-0.4c2.1-1.3,4.1-2.6,6.1-3.9
	c0.9-0.6,1.7-1.1,2.6-1.8s1.5-1.1,2.2-1.6c1.8-1.2,3.6-2.5,5.4-3.7C73.9,115.6,73.3,115.7,72.6,116L72.6,116z M217.6,54.7
	c-0.5,0-1.2-0.2-1.5,0c-4.1,2.9-8.2,5.8-12.3,8.7c-1,0.7-1.9,1.7-2.8,2.5l0.3,0.2c5.2-3.4,10.4-6.8,15.6-10.2
	C217.3,55.7,217.4,55.1,217.6,54.7L217.6,54.7z M136.4,181.4c-0.4,3.9-0.8,7.7-1.1,11.6c0,0.7,0.2,1.4,0.4,2.1l1.4-0.4v-14h-0.6
	C136.5,181,136.4,181.2,136.4,181.4z M64.4,115.9c-1.8,0.4-3.6,0.9-5.4,1.6c-1.7,0.8-3.3,1.9-4.8,3c-0.4,0.3-0.5,0.9-0.8,1.4
	c0.5,0,1-0.1,1.5-0.2c1.7-0.8,3.2-2,4.9-2.4C61.8,118.8,63.4,117.6,64.4,115.9L64.4,115.9z M118.8,167.5c2.4-5,2.8-8.2,1.4-11.1
	C118.1,160.1,118.8,163.9,118.8,167.5L118.8,167.5z M44.7,82.9c-3.5-0.7-6.9-1.5-10.4-2.2c-0.5-0.1-1.2,0.4-1.8,0.7l0.1,0.8l12,1.6
	L44.7,82.9z M85.2,129.7c-0.6,0.4-1.1,1-1.5,1.6c-0.7,1.4-1.4,2.7-2.2,4c-1.3,1.5-2.6,3-4.1,4.4l0.3,0.4c0.2-0.1,0.5-0.1,0.6-0.2
	c2.4-2.5,4.8-5,7.2-7.5c0.3-0.3,0.6-0.7,0.8-1.2c0.1-0.4,0.1-0.8-0.1-1.1C86.1,129.8,85.4,129.6,85.2,129.7L85.2,129.7z M149.7,27.9
	l2.9-11.7L152,16c-1.1,0.6-3.1,9-2.7,11.8L149.7,27.9z M165.6,41.3c1.3-0.9,5.7-8.5,5.5-9.6C169.5,32.7,165.3,40,165.6,41.3z
	 M111,144.3c-0.1-0.3-0.4-0.6-0.7-0.9c-0.1-0.1-0.7,0.3-0.8,0.6c-0.9,2.4-2.1,4.7-1.6,7.4l0.7,0.2c0.8-2.3,1.5-4.5,2.3-6.8
	C111.1,144.6,111.1,144.5,111,144.3z M101.4,38c-0.5-5.2-2.2-9.2-4.3-9.2l3.9,9.3L101.4,38z M105.9,155.8c-0.9,0.8-1.8,5.8-1.2,6.8
	c0.1,0.2,0.4,0.4,0.5,0.4c0.3-0.1,0.5-0.3,0.6-0.5c0.5-1.7,1.1-3.4,1.5-5.2c0.1-0.5-0.3-1.2-0.5-2
	C106.5,155.4,106.2,155.6,105.9,155.8L105.9,155.8z M18.7,80.3c3.3-0.3,6.3,1.8,9.8,1C27.1,79.5,20.4,78.8,18.7,80.3z M234,75.6
	c-2,0.4-4,0.7-6,1.2c-0.7,0.3-1.4,0.6-2.1,1l0.2,0.8l9.5-1.8C235.2,75.3,235.2,75.3,234,75.6L234,75.6z M105.7,49.9L105.7,49.9z
	 M105.7,49.9c0.2-0.8,0.6-1.6,0.4-2.3c-0.5-1.8-1.1-3.6-1.9-5.3c-0.2-0.5-0.9-0.8-1.4-1.2l-0.5,0.4c0.1,0.5,0.2,1,0.4,1.4
	C103.7,45.3,104.7,47.6,105.7,49.9L105.7,49.9z M203.1,52.9c0.3-0.3,0.5-0.7,0.8-1l-0.4-0.3c-3.4,2.6-6.6,5.3-8.8,9.1
	c0.3-0.1,0.6-0.2,0.9-0.4C198.1,57.8,200.6,55.4,203.1,52.9L203.1,52.9z M194.7,60.7h-0.1l0,0H194.7z M4.5,87
	c2.8,1.8,5.8,0.3,8.5,1.5C12.3,86.5,7,85.6,4.5,87z M124.1,176.9c1.2-4.9,1.3-7,0.4-8.4C123,170.3,122.8,175,124.1,176.9
	L124.1,176.9z M81.8,56.8c-1.5-2.4-6.5-7.3-8-7.3l7.6,7.8L81.8,56.8z M217.9,126.5c-0.4-0.3-0.9-0.5-1.4-0.7l-0.3,0.4
	c1.9,1.7,3.9,3.4,5.8,5c0.2,0.1,0.8-0.2,1.1-0.3c-0.2-0.5-0.2-1.1-0.6-1.4C221.1,128.4,219.6,127.4,217.9,126.5L217.9,126.5z
	 M39.2,114.8c2.2,0.5,7.7-1.3,8.1-2.7C45,113.9,41.5,112,39.2,114.8z M198,137.4c-0.3-0.4-0.7-0.7-1.1-1l-0.7,0.5
	c0.8,1.7,1.5,3.4,2.4,5c0.2,0.3,0.9,0.3,1.3,0.5c0-0.5-0.1-0.9-0.2-1.4C199.3,139.7,198.7,138.5,198,137.4L198,137.4z M176.1,34.4
	c0.2-0.2-0.1-1-0.4-1.2c-0.4-0.2-0.9-0.1-1.2,0.2c-0.6,0.9-1.1,1.8-1.6,2.7c-0.4,0.7-0.7,1.3-1.3,2.4c0.7-0.2,1-0.2,1.1-0.3
	C173.8,36.9,175,35.7,176.1,34.4L176.1,34.4z M198.4,50.6C198.4,50.6,198.4,50.5,198.4,50.6L198.4,50.6L198.4,50.6z M199.4,49.7
	c2.4-0.1,2.5-2,3.1-3.6c-1.8-0.5-4,2-4.1,4.4C198.8,50.2,199.1,49.7,199.4,49.7L199.4,49.7z M243.9,80.3c-0.5,0-1.1,0.1-1.6,0.3
	c-0.3,0.3-0.4,0.8-0.2,1.2c0.5,0.5,1,0.9,1.6,1.3l2.5-1.7l-2-1C244.1,80.4,244,80.3,243.9,80.3z M120.3,154.9c1.6-1,2.2-2.5,1.6-4.6
	C119.3,151.3,119,152.4,120.3,154.9z M167.8,26.2c0.4-0.8,1.3-1.7,0.1-2.4c-0.2-0.1-1.3,0.9-1.7,1.6c-0.5,0.9-1.7,1.9,0,3.5
	C166.9,28,167.4,27.1,167.8,26.2z M238.8,89.5h6.4C243.1,87.7,241,88.2,238.8,89.5L238.8,89.5z M209.8,48c-0.6-0.4-1.3-0.9-1.4-0.8
	c-1.3,1-2.6,2.2-3.9,3.3l0.6,0.8L209.8,48z M192.8,131c-0.9,3.4,2.3,3.2,3.4,4.8C195.6,133.8,195,131.9,192.8,131L192.8,131z
	 M88,44.1l-4.1-5.8C83.3,39.8,86.1,43.6,88,44.1z M97.4,152.1c-0.1,0.3,0.4,0.7,0.6,1.1c0.3-0.3,0.7-0.6,0.8-1
	c0.4-1.7,0.7-3.4,1-5.2l-0.5-0.3C98.6,148.6,97.9,150.4,97.4,152.1L97.4,152.1z M60.8,129.5l-4.6,3.4l0.2,0.6c0.4,0,1.1,0.2,1.3,0
	c1.2-1,2.4-2.2,3.6-3.3L60.8,129.5z M114,169.9c-0.3,0.5-0.6,1-0.7,1.6c0,0.7,0.1,1.4,0.3,2.1l0.7-0.1c0.4-1,0.7-2.1,1-3.1
	c0-0.6-0.1-1.2-0.2-1.8C114.7,169,114.3,169.4,114,169.9L114,169.9z M154.6,24.2c-1.7,1.5-1.1,3.7-2.5,5.6
	C154.1,29.3,155.5,25.9,154.6,24.2z M230,114.4l5.8,2.2l0.4-1l-5.9-2L230,114.4z M175.5,138.7c-0.1-0.3-0.4-0.6-0.9-1
	c-0.2,0.5-0.4,0.7-0.4,0.8c0.4,1.6,0.8,3.3,1.2,4.9c0.1,0.2,0.6,0.2,0.9,0.3c0.2-0.4,0.2-0.8,0.2-1.3
	C176.4,141.2,176,140,175.5,138.7L175.5,138.7z M117.6,20.4c0-0.7,0.1-1.4,0.1-2.1c0-0.3-0.2-0.6-0.4-0.9c-0.1-0.1-0.6,0.1-0.7,0.3
	c-0.7,0.9-0.1,3.9,1,4.8C117.6,21.7,117.6,21.1,117.6,20.4z M208,140l-0.7,0.5c0.6,1,1.2,2,1.8,2.9c0.3,0.2,0.7,0.2,1,0.1
	c0.2-0.3,0.4-1,0.2-1.2C209.6,141.4,208.8,140.7,208,140L208,140z M81.3,50.9c-1.3-1.5-2.2-3.4-4-4.3l-0.6,0.6l4.2,4.1L81.3,50.9z
	 M85.4,32.8c-0.1,0-0.3,0.3-0.3,0.6c-0.1,0.6,2.3,2.9,3.4,3c-0.7-1.2-1.3-2.3-2-3.2C86.3,32.9,85.8,32.8,85.4,32.8z M215.6,51.2
	l-1.3-1.2c-0.5,0.6-1,1.2-1.4,1.9c-0.1,0.1,0.4,0.6,0.8,1.2L215.6,51.2z M130.8,6.2l-0.5-4.5l-0.7,0.1C128.7,3.2,129,4.9,130.8,6.2
	L130.8,6.2z M128.4,180l-0.6-5.7c-0.1,2-1.6,3.9-0.2,5.7L128.4,180z M57.9,60.3l0.2-0.6c-1-0.8-2-1.6-3.1-2.2
	c-0.2-0.1-0.7,0.2-1.1,0.2c0.1,0.3,0.1,0.7,0.3,0.8C55.4,59.1,56.6,59.6,57.9,60.3z M230.2,71.6c-1.6-0.7-3.4-0.2-4.4,1.2l0.3,0.6
	L230.2,71.6z M162.5,151.7c0.8,1.5-0.3,3.6,1.3,4.8l0.7-0.2l-1.2-4.9L162.5,151.7z M190.5,126.1l-0.5,0.4c-0.2,1.8,1.2,2.5,2.4,3.2
	l0.6-0.5L190.5,126.1z M231.8,66.6c0-0.3-0.4-0.7-0.6-0.7c-1.3-0.1-2.6,0.7-2.9,2c1-0.2,2-0.4,3-0.6C231.5,67.2,231.8,67,231.8,66.6
	L231.8,66.6z M236.1,99.6c-2-1.4-4.2-0.7-6.4-0.4l6.3,0.9L236.1,99.6z M147.8,7l-1.2-1.7c-0.3,0.5-0.6,1.1-0.7,1.8
	c0,0.5,0.4,1,0.7,1.6L147.8,7z M146,176.9v3.9C148,179.3,147.8,178.1,146,176.9L146,176.9z M61.5,45.4l0.5-0.2c0-0.4,0.2-1,0-1.3
	c-0.5-0.5-1.1-1-1.7-1.4c-0.1-0.1-0.7,0.4-0.6,0.4c0.2,0.5,0.5,1.1,0.9,1.5C60.8,44.9,61.1,45.2,61.5,45.4z M65.2,139.6
	c-0.1,0.1,0.3,1,0.5,1c1.2,0.1,2.2-1.6,1.7-3.1C66.7,138.1,65.9,138.8,65.2,139.6z M220,134.3c-0.7-0.4-1.4-0.7-2.2-0.9l-0.5,0.6
	c0.5,0.7,1,1.3,1.6,1.9c0.2,0.2,1-0.1,1.3-0.4C220.4,135.3,220.2,134.5,220,134.3z M22.6,76.2l4.3,0.8
	C24.5,74.9,23.6,74.8,22.6,76.2z M191.3,44.7c-0.2-0.1-0.8-0.2-0.9,0c-0.7,0.8-1.2,1.6-1.8,2.4l0.5,0.5c0.8-0.7,1.6-1.4,2.4-2.1
	C191.5,45.2,191.5,44.9,191.3,44.7z M100.3,19.2c0.5-0.7,0.4-1.7-0.3-2.2c0,0-0.1-0.1-0.2-0.1c-0.2-0.2-0.9,0.3-1.3,0.5l1.1,2.1
	L100.3,19.2z M127.7,182.3l-0.6,0.1c0,0.8,0,1.6,0,2.4c0,0.3,0.4,0.5,0.7,0.7c0.1,0.1,0.5-0.2,0.5-0.3
	C128.6,184.2,128.7,183.1,127.7,182.3z M60.2,137.2c-0.1,0.3-0.1,0.6,0.1,0.9c0.3,0.2,0.6,0.2,0.9,0c0.6-0.7,1.1-1.4,1.7-2.1
	l-0.6-0.7C61.6,135.9,60.9,136.5,60.2,137.2z M195,120.9l-3.8-3.4C191.8,119.6,193.7,121.2,195,120.9L195,120.9z M199.4,43.8
	c-0.5-0.3-1-0.7-1.1-0.6c-0.7,0.6-1.4,1.3-2.1,2c0,0,0.3,0.5,0.5,0.8L199.4,43.8z M113.1,152c-0.4,0.5-0.8,1-1,1.6
	c-0.1,0.3,0.5,0.7,0.8,1.1l1.6-1.5L113.1,152z M110.2,165.1c0.2,0.1,0.5,0.2,0.7,0.3l0.7-2.8l-1-0.2
	C110.5,163.3,110.4,164.2,110.2,165.1z M127.9,167.4l0.3,3.6C129.8,169.3,129.7,168.6,127.9,167.4L127.9,167.4z M116.3,154.2
	l1.1,0.4l0.8-3l-0.9-0.3L116.3,154.2z M252,112.9c-0.6,0.2-1.2,0.4-1.8,0.8l1.5,1.2l1.4-1C252.8,113.5,252.4,112.9,252,112.9
	L252,112.9z M44.2,125.6c0,0.4,0.5,0.8,0.7,1.2c0.4-0.4,0.8-0.8,1.1-1.3c0.1-0.3-0.4-0.8-0.8-1.5C44.7,124.8,44.2,125.2,44.2,125.6z
	 M70.3,45.2l-1.5-2c-0.3,0.2-0.9,0.7-0.8,0.7c0.5,0.7,1,1.3,1.5,2L70.3,45.2z M180.4,156.1l-1.3,1.2l1.3,1.1c0.4-0.6,0.8-1,0.8-1.3
	S180.7,156.4,180.4,156.1L180.4,156.1z M115,164.7c-0.2,0.8-0.3,1.5-0.3,2.3l0.3,0.1c0.5-0.6,1-1.3,1.3-1.9c0.1-0.3-0.2-0.9-0.4-1.3
	C115.6,164.1,115.1,164.3,115,164.7L115,164.7z M218.1,122l2.5,1c0.1-0.2,0.3-0.6,0.2-0.7C220.2,121.5,219.5,120.7,218.1,122
	L218.1,122z M212.4,114.4l3.4,2.3l0.5-0.8l-3.5-2L212.4,114.4z M73.4,143.6l0.7,0.7l1.6-1.5c-0.3-0.2-0.7-0.7-0.8-0.7
	C74.4,142.5,73.8,143,73.4,143.6L73.4,143.6z M111.3,159.2c-0.2,0.7-0.4,1.3-0.5,2l1,0.1l0.3-2.2
	C111.8,159.2,111.3,159.2,111.3,159.2L111.3,159.2z M174.6,24.1l-0.8-0.2l-0.7,2l1.2,0.4L174.6,24.1z M114,26.1l0.3,2.9
	C115.7,27.5,115.6,26.9,114,26.1L114,26.1z M102.2,153.3l-0.8,2.8l0.7,0.1C103.3,153.9,103.3,153.9,102.2,153.3z M177.3,99.5
	c-1.7-1.2-3.1-3.2-5.7-2.6c-0.2,0.1-0.6-0.5-1-0.7c0.4-0.2,0.7-0.3,1.1-0.4c0.6,0,1.4,0.3,1.8,0.1c1.1-0.7,0.8-3.6-0.4-4.2
	c-0.4-0.3-0.7-0.6-1.1-1c0.4-0.4,0.9-0.8,1.4-1.2c0.5-0.2,1.1-0.4,1.7-0.4l-0.1-0.5c-0.7,0.1-1.3,0.1-2,0c-0.4-0.1-1.2-0.6-1.1-1
	c0.1-2.8-2.3-3.4-3.9-4.6c-0.8-0.6-2.1-0.4-3.1-0.4c-0.6,0-1.3,0.2-1.9,0.3c0.3,1,0.6,2,1,2.9c0.6,0.1,1.1,0,1.6-0.3
	c0.6-0.8,1.8-0.9,2.6-0.2c0.7,0.5,1.3,1.1,2,1.7v0.5c-0.7,0.2-1.4,0.3-2.1,0.3c-0.8,0-1.6-0.3-2.4-0.3c-2,0-2.5,0.7-2.1,2.6
	c0.1,0.3,0.1,0.7,0,1c-0.5,2.3-1,4.7-1.6,7c-0.1,0.9-0.5,1.8-1.1,2.6c-2,1.8-2.6,4.3-3.7,6.6c-0.3,0.4-0.7,0.8-1.2,1
	c-1.2,0.6-2.6,1.1-3.8,1.8s-2.1,1.3-3.3,1.8c-2.3,0.9-4.6,1.7-6.9,2.5c-0.6,0.3-1.3,0.5-2,0.7c-1.7,0.2-3.4,0.2-5.1,0.3
	c-0.2,0-0.4,0.2-0.6,0.3c-2.2,2-4.2,0.5-6.5-0.1l2.3-1.6c-1.7-0.3-3.4-0.6-5.1-1.1c-1.8-0.6-3.8,0.4-4.4,2.2
	c1.8-0.5,3.7,0.2,4.7,1.8c0.2,0.3,1,0.3,1.6,0.4c1.9,0,3.7,0,5.6,0.2c1.7,0.3,3.3,0.5,4.7-0.7c0.4-0.2,0.9-0.3,1.3-0.3
	c1.6-0.2,3.1-0.4,4.7-0.6c0.3,0,0.7,0,0.8,0.1c0.8,1,1.6,0.8,2.5,0.2s1.9-0.6,2.4-1.2c1-1.2,1.7-1.1,2.8-0.2
	c0.6,0.5,1.4,0.7,2.2,0.6c3.1-1.1,6.3-2,9.5-2.8c3-0.6,3.8-1.5,3.4-3.6c1.7-0.5,3.5-0.9,5.3-1.2c1.4-0.1,2.6,0.1,2.4-1.9
	c0-0.2,0.4-0.6,0.6-0.7s0.5,0.3,0.8,0.4c0.2,0.2,0.5,0.5,0.7,0.7c0.6-1.8,0.4-2.9-1.4-3.3c0.9-2.9,3.4,0,4.9-1.6
	C178.8,100.7,178.1,100,177.3,99.5L177.3,99.5z M101.2,108.2l1-1.1c-2-3.5-4.6-2.2-7.2-0.8l-0.3-0.6c0.4-0.3,0.9-0.6,1.3-1
	s1.3-0.9,1.2-1.1c-0.4-1.1-1.1-0.3-1.7,0c-0.3,0.1-0.7,0.1-1,0.1l1.6-2.2l-2.4-1l0.8-1.3c3.4,2.3,4.3,2.8,5.4,1.8
	c0.8,0.3,1.9,1,2.1,0.7c0.8-0.7,1.4-1.6,1.6-2.6c0.2-1.2-1.2-1.9-2.4-1.2c-0.6,0.4-1.1,0.9-1.6,1.4c-0.4,0.3-0.7,0.5-1.1,0.8
	c0-0.5-0.1-0.9-0.1-1.4c0.1-0.3,0.2-0.6,0.3-0.8c-0.8-0.2-1.6-0.5-2.3-0.8c-0.7-0.6-1.2-1.2-1.7-1.9c1.7,0.1,3.1,0.6,3.5-1.4
	L95,93.1v-0.5c2-1,5.1,1.7,6.5-1.9c-1.3-0.4-2.1-2.4-4.1-1.1c-0.3,0.2-1.1-0.4-2.2-0.8l4.7-2c0,0.5,0.1,0.9,0.3,1.3
	c0.3,0.3,0.6,0.6,0.9,0.9c0.2-0.3,0.7-0.7,0.7-1c-0.2-1.2,0.2-1.4,1.3-1c0.4,0.1,0.8,0,1.1-0.2c0.9-0.8,2.2-0.8,3.1,0
	c0.1,0.1,0.2,0.2,0.2,0.3c0.6,1,1.8,1.3,2.7,0.7c0.1,0,0.1-0.1,0.2-0.1c0.2,0.5,0.5,1,0.4,1.2c-1,1.2-0.3,2.2,0,3.4
	c0.1,0.8,0.1,1.6,0,2.4c0,0.7,0.1,1.4,0.2,2.1c0.3,1.2,0.6,2.5,0.9,3.7c0.1,0.8,0.4,1.5,0.7,2.2c0.8,1.3,0.3,1.6-1,1.8
	c-0.9,0.2-1.8,0.6-2.6,0.9c0.5,0.9,1.2,1.7,1.9,2.4c0.8,0.5,1.6,0.8,2.5,1l0.3-1.7c2.9,0,6,3,6.1,5.8l-4.4-0.6l-0.1-2
	c-1.4,0.5-3.6-0.6-3.6,1.8c0,1.9,1.6,1,2.6,1l0.3,0.5c-0.5,0.3-1,0.9-1.4,0.8c-2.8-0.6-5.5-1.2-8.2-2c-1.4-0.4-2.9-0.9-2.7-2.9
	C102.2,109,101.6,108.6,101.2,108.2L101.2,108.2z M100.6,96.3l-0.3,0.4l0,0L100.6,96.3z M98.4,78c0.7-0.3,1.5-0.6,2.2-0.8l0.2,0.5
	L99,80.1l14.4-6.1c0.7-0.4,1.4-0.8,2-1.4c0.7-0.4,1.5-0.7,2.3-0.9c1.9-0.5,3.3-2.7,5.7-1.2c0.5,0.3,1.4-0.2,2.2-0.3l-0.7-2.4
	l-2.9,0.3l-0.1-0.4l6.3-5.8l-0.1-0.5c-0.7,0-1.3,0.1-2,0.2c-1.5,0.4-3,0.8-4.6,1.2c-1.3,0.2-2.6,0.6-3.9,1.1
	c-3.7,1.8-7.3,3.8-11,5.7c-2,1-3.9,1.8-5.2,3.8c-0.4,0.6-1.4,0.8-2.1,1.2c-0.3,0.2-0.8,0.2-0.9,0.5c-0.7,1.3-1.3,2.7-1.9,4l0.3,0.4
	C97.3,78.9,97.8,78.4,98.4,78L98.4,78z M123.4,80.5c-2.2-0.1-4.2-0.2-5.4,2.2l-0.4,0.7l3,3.9c0.4-0.2,0.8-0.4,1.3-0.5
	c1.6-0.3,3.5-0.4,2.6-3c-0.1-0.2,0.3-0.6,0.4-0.9C125.6,81.6,124.8,80.6,123.4,80.5L123.4,80.5z M135.4,120.7
	c-0.5-0.2-1-0.3-1.6-0.4c-0.9,0-1.7,0.2-2.6,0.2c-1.5,0-3.1,0-4.6,0v0.7c2.9,0,5.8,0.9,8.7,0.1L135.4,120.7z M66.8,105.6
	c0.8-0.2,1.4-1.1,2.1-1.6l-0.4-0.6l-5.8,1.6l0.2,0.7C64.1,105.8,65.4,105.7,66.8,105.6z M115.5,136.4l1-3.8l-0.8-0.4l-2.6,3
	L115.5,136.4z M91.6,98.9c-0.3,0.8-0.9,1.9-0.7,2.3c0.4,0.6,1.5,0.8,2.4,1.1c0.1,0,0.3-0.3,0.2-0.3c-0.4-1.1-0.8-2.1-1.2-3
	C92.3,98.9,91.7,98.9,91.6,98.9L91.6,98.9z M222.4,87.6c-2.3-1.4-4.8-1.3-6.2,0H222.4z M178.8,94l-2.9-2.9l-0.5,0.5
	c0.5,0.7,1.2,1.3,1.3,2.1s-0.4,1.4-0.8,2.4L178.8,94z M64,86l5.6,0.5C68.1,85,65.7,84.8,64,86L64,86z M221.3,93.4l-4.4,0.2
	c1.5,0.6,3,1.7,4.4,0.5L221.3,93.4z M164.5,115.1l0.3,0.9l4.5-1.6l-0.3-0.9L164.5,115.1z M83.7,118.8l-4.8,3.9
	C81.1,122.4,83,120.9,83.7,118.8L83.7,118.8z M78.9,122.7L78.9,122.7z M163,49.9c1-1,0.8-1.9-0.1-3c-1.4,0.7-1,1.9-0.9,2.9
	C162.1,50,162.9,50.1,163,49.9L163,49.9z M54.5,93.9h-5v0.6l5,0.4L54.5,93.9z M144.6,150.1l0.8,3.9
	C147,152.6,146.9,151.7,144.6,150.1L144.6,150.1z M196,100.2l-0.3-0.5c-1.4,0.2-2.7,0.9-3.7,2l0.4,0.6L196,100.2z M96.2,107.2
	c-0.3,0-0.7,0.5-1.1,0.8l1.6,1.1l1.2-1C97.4,107.7,96.9,107.4,96.2,107.2L96.2,107.2z M51.9,88.4l-4.1-0.2l-0.1,0.6l4,0.5L51.9,88.4
	z M142.1,150.7l-0.6-3.7C140.5,148.2,140.7,149.4,142.1,150.7L142.1,150.7z M106.1,133.9l-1.2,2.9
	C106.7,136.2,107,135.4,106.1,133.9L106.1,133.9z M137.5,150l0.6,3l0.6-0.1l-0.2-3L137.5,150z"/>
<path class="st0" d="M70.3,123.2l1.3-2.1H67l1.6-3.3c-1.2,0.8-2.1,1.4-3,2s-1.7,1.4-2.6,1.9s-1.8,0.4-1.9-1.1l2.8-2.1l-0.2-0.6
	c-5.2,1.7-10,4.3-15.1,6l-0.2-0.4l0.9-0.6c1.4-0.9,3.5-0.9,4.1-2.9c0.1-0.2,0.4-0.3,0.6-0.4c2.4-0.8,4.8-1.5,7.2-2.4
	c1.9-0.8,3.6-1.8,5.2-3.1c-1,0-2.3-0.4-2.9,0.1c-1.8,1.6-4.1,1-6.1,1.7c-0.8,0.2-1.5,0.8-2.3,1.1c-1.3,0.4-2.6,0.8-3.9,1
	c-1.2,0.1-2.3,0.1-3.5,0c2.4-2.1,5.4-3.5,8.5-4v-0.4c-0.6-0.1-1.2-0.1-1.8,0c-2.7,0.8-5.3,1.7-7.9,2.4c-1.5,0.4-3.2,0.4-4.7,0.7
	c-2.4,0.6-4.8,1.4-7.2,2c-0.9,0.2-1.7,0.2-2.6-0.1c0.3-0.2,0.5-0.6,0.8-0.6c1.7-0.4,3.5-0.8,5.2-1.1c0.3,0,0.7-0.1,1-0.2
	c3.3-2.1,7.2-2.1,10.9-2.9c1.9-0.6,3.8-1.2,5.6-2l3-1.1v-0.6c-0.9-0.2-1.8-0.3-2.6-0.2c-2.8,0.9-5.7,0.9-8.5,1.1
	c-1.3,0.1-2.6,0.9-3.9,1.1c-4.6,0.7-9.3,1.1-13.9,1.8c-1.6,0.2-3.1,0.9-4.6,1.2c-0.7,0.1-1.4,0.2-2.1,0.2l-0.2-0.8
	c1.4-0.6,2.9-1.1,4.3-1.5c3.7-0.8,7.5-1.4,11.3-2c1.1-0.2,2.2-0.2,3.3-0.4c2.8-0.4,5.7-0.9,8.5-1.4c1.1-0.1,2.3-0.3,3.4-0.7
	c-0.6-0.4-1.3-0.6-2-0.8c-4.9,0.2-9.8,0.4-14.7,0.6c-0.3,0.1-0.6,0.1-0.9,0c-2-0.9-4-0.3-5.9,0.5c-2.5,0.7-5.1,0.5-7.5-0.4
	c1.2-0.4,2.1-0.8,3-1c2.4-0.7,4.8-0.1,7.2-0.1s4.6-0.5,6.9-0.7c1.3-0.1,2.5-0.1,3.8-0.2c2.8-0.1,5.6-0.2,8.3-0.4
	c0.9-0.1,1.7-0.3,2.6-0.6l-0.1-0.6c-0.3-0.1-0.6-0.2-0.9-0.3c-3.1,0.1-6.2,0.4-9.3,0.4c-2.7,0-5.5-0.7-8.1-0.4
	c-2.1,0.3-3.9-0.5-5.9-0.5L18,104c-0.3,0-0.6-0.2-0.8-0.5c1.1-0.1,2.3-0.1,3.4-0.1c5-0.1,9.9-0.2,14.9-0.4c2.4-0.1,4.7-0.2,7.1-0.4
	c0.4,0,0.7-0.3,1.4-0.7c-0.8-0.4-1.7-0.8-2.6-1c-5-0.3-10.1-0.5-15.1-0.8c-3.5-0.2-7-0.7-10.4-1c-3.2-0.2-6.4-0.4-9.6-0.4
	c-1.7,0-3.4,0.2-5.1,0.3c-0.4,0-0.9-0.3-1.1-0.6c-0.1-0.1,0.2-0.9,0.4-1c0.6-0.4,1.3-0.6,2.1-0.6c3.9,0.3,7.7,0.8,11.6,1
	c4.1,0.2,8.1,0.1,12.2,0.4c4.3,0.2,8.5,0.8,12.8,1c2-0.1,4-0.3,6-0.6V98c-2-0.2-4-0.5-6-0.6c-3.9-0.3-7.8-0.5-11.7-0.7
	c-4.2-0.2-8.3-0.4-12.5-0.6c-1.2-0.1-2.3,0.1-3.5,0c-0.3,0-0.7-0.4-1-0.7c0.4-0.2,0.7-0.7,1.1-0.6c2.2,0.1,4.5,0.4,6.7,0.5
	s4.6,0.1,6.9,0.2c2.7,0.1,5.4,0.4,8.1,0.6c1.3,0.1,2.7,0,4,0c1.5,0,3.1,0.1,4.6,0.2l0.1-0.7c-1.4-0.3-2.8-0.6-4.2-0.9
	c-0.6-0.1-1.2-0.2-1.7-0.2l-17.5-1.7c-0.3-0.1-0.6-0.2-0.9-0.3v-0.6c1.1,0,2.3-0.1,3.4-0.1c1,0,2,0,3,0.1c1.3,0.2,2.5,0.5,3.7,0.7
	c0.6,0.1,1.2,0.2,1.8,0.3c3.1,0.2,6.1,0.5,9.2,0.7c1.2,0.1,2.5-0.2,3.7,0c1.2,0.3,2.3,0.6,3.5,1.1c0.2,0.1,0.3,0.2,0.5,0.2
	c3,0.2,6,0.4,9,0.5c0.5-0.1,1.1-0.3,1.6-0.5c-5.1-2.7-10.7-1.4-15.4-3.9c2,0,4-0.1,6,0s4,0.4,6.1,0.6c-0.4-0.4-0.8-0.7-1.3-0.9
	c-1.3-0.4-2.7-0.6-4.1-1s-2.7-0.8-4-1.1c-2.7-0.6-5.4-1.1-8.1-1.6c-0.1,0-0.3,0-0.3,0c-0.9-0.5-1.8-1-2.7-1.5
	c0.9-1.3,1.9-0.3,2.8-0.2c2.5,0.4,4.9,1.1,7.4,1.5c1.5,0.2,3.1-0.3,4.3,1c0.1,0.1,0.5,0.1,0.7,0.1c3-0.4,5.6,1.2,8.4,1.8
	c1.7,0.3,3.4,0.7,5.1,1.1c2.1,0.6,4.2,1.3,6.3,2c0.2,0.1,0.5-0.1,0.9-0.2c-5.1-2.7-10.5-3.7-15.6-5.8s-10.5-3.5-15.8-5.2l0-0.7
	c0.5-0.1,1.1-0.2,1.6-0.1c3,1.1,6,2.4,9.1,3.4c2.3,0.7,4.8,1.1,7.2,1.6c0.2,0,0.4,0,0.5,0.1c2.3,2.3,5.7,1.7,8.4,3.2
	c0.7,0.3,1.6,0.4,2.4,0.2c-4.1-2.7-8.4-4.9-13-6.6l-14.3-4.9c0.5-0.2,1.1-0.3,1.6-0.3c2.2,0.4,4.4,0.9,6.6,1.4
	c0.4,0.2,0.7,0.3,1.1,0.6c1.6,0.7,3.2,1.4,4.9,2c3.3,1.2,6.6,2.4,9.9,3.6c1.6,0.6,3.3,1.2,5,1.6c-8.1-5.4-17.2-8.9-26.2-12.4
	l0.3-0.7c2.7,1,5.4,1.9,8.1,2.9s5.6,2.1,8.4,3.2s5.4,2.2,8.2,3.4l8.1,3.4l0.2-0.4c-4.3-2.2-8.7-4.2-12.9-6.6s-8.3-5.2-12.4-7.9
	l0.2-0.6c0.5,0,1,0.1,1.5,0.3c6.3,4.2,13,7.8,20,10.7c0.7,0.3,1.3,0.9,2,1.2c0.5,0.2,1,0.3,1.5,0.3l0.1-0.5L55.7,69l0.2-0.7
	c0.8,0.1,1.5,0.3,2.2,0.6c5.4,3.5,10.7,7,16.1,10.5c0.9,0.5,1.8,1,2.8,1.3l0.3-0.4c-2.4-2-4.8-4.2-7.4-6.1
	c-4.2-3.2-8.6-6.2-12.9-9.3c-0.3-0.2-0.4-0.9-0.6-1.3c0.6,0,1.3-0.2,1.7,0.1c3,2.3,6,4.7,9,6.9c3.5,2.6,7.1,5.1,10.7,7.6
	c0.6,0.4,1.4,0.6,2.2,0.6c-5.8-6.4-12.4-11.8-18.7-17.6l0.4-0.5L81,76l0.6-0.7c-1.8-1.7-3.6-3.3-5.3-5c-3.1-3.1-6.2-6.2-9.3-9.3
	c-1.5-1.5-3.1-2.9-4.7-4.4c-0.3-0.3-0.6-0.7-0.8-1.1c0,0,0.4-0.5,0.6-0.5c0.4,0.2,0.8,0.4,1.1,0.7c0.9,0.8,1.8,1.7,2.7,2.6
	c4.1,3.9,8.2,7.9,12.3,11.8c2.4,2.2,4.8,4.4,7.3,6.5c-0.8-3-2.9-4.8-5.2-6.7c-1.5-1.1-2.4-2.9-2.5-4.8c3.8,1.6,5.8,4.9,8.4,7.5
	c-0.9-3.8-4.7-5.7-5.9-9.4c2,1.3,4.6,1.7,5.8,4.1c0.5,1,0.7,2,2.1,2.1c0.3,0,0.5,0.6,0.7,0.9c0.3,0.5,0.7,1,1,1.5l0.7-0.3
	c-0.3-0.9-0.7-1.8-1.2-2.6c-3.3-3.8-5.8-8.2-8.4-12.5c-0.6-0.9-1.1-1.9-1.7-2.8l0.3-0.3c0.3,0.2,0.6,0.4,0.8,0.6
	c2,2.7,3.8,5.5,5.8,8.2c0.6,0.7,1.3,1.4,2,2c0.3,0.3,0.7,0.6,0.7,1c0.2,2.4,1.8,2.9,4.2,3.1c-3.3-5-7-9.4-8.9-14.9L95.7,68l0.6-0.4
	c-4.1-7.4-9-14.4-12.3-22.2l15,22.1l0.4-0.3L92.1,53l0.5-0.3c1.2,0.4,2.1,1.4,2.5,2.6c0.9,2.1,1.8,4.2,2.7,6.3
	c0.1,0.3,0.3,0.7,0.5,1l0.8-0.5l-4.2-11l0.7-0.4c0.8,0.8,1.4,1.7,2.1,2.6c0.6,1.2,1.1,2.4,1.5,3.6c1,2.4,2,4.8,3,7.1
	c0.1,0.2,0.3,0.3,0.5,0.4l0.5-0.2l-1.9-6.6l0,0c1.8-0.3,1.5,1.7,2.8,2.6c0.2-0.9,0.3-1.8,0.2-2.6c-1.4-4.5-2.9-9-4.3-13.5
	c-1.1-3.4-2.1-6.9-3.1-10.4c-0.1-0.5-0.1-1-0.2-1.5l0.4-0.2c0.3,0.4,0.8,0.7,0.9,1.1c0.7,2.6,1.2,5.2,2,7.7c0.8,2.3,2,4.5,3,6.8
	c0.3,0.7,0.6,1.5,0.8,2.3c0.2,0.6,0.3,1.1,0.5,1.7c0.6,1.8,1.2,3.6,2,5.3s1.6,3.2,2.3,4.7l0.7-0.3l-3.7-15c1.3,0.3,2.3,1.4,2.5,2.7
	c0.2,1.4,0.2,2.9,1.9,4.2l0.3-3l0.5-0.1l1.1,4.5h0.6l-1-8.8c1.7,0.1,1.6,1.2,1.9,2.2c0.6,2.4,1.2,4.7,1.8,7.1l0.8-0.1l-2.6-17.9
	l0.7-0.1l3.1,13.9c1.7-1.3,1.1-2.9,1.1-4.4c0-0.3-0.2-0.6-0.2-0.9c0.2-4.8-1.5-9.4-1.9-14.1c-0.4-4.3-0.7-8.7-1-13
	c0-0.6-0.4-1.1-0.4-1.7c0-0.5,0.1-1,0.2-1.5c0.4,0.4,1.1,0.7,1.1,1.1c0.2,1.3,0,2.7,0.2,4.1c0.3,2.1,0.9,4.2,1.2,6.3
	c0.3,1.6,0.2,3.3,0.5,4.9c0,1.2,0.3,2.5,0.8,3.6c1.3,2.1,0.5,4.3,0.5,6.4c0.1,2.2,0.3,4.4,0.7,6.5c0.1,1,0.3,2.1,0.6,3.1
	c0.2,0.5,0.5,1.1,0.8,1.6c0.2-0.5,0.7-1,0.7-1.4c0-3.2,0-6.3-0.1-9.5c0-0.9-0.5-1.7-0.5-2.6c0-1.9,0.3-3.7,0.2-5.6
	c-0.3-4.7-0.7-9.3-1-13.9c-0.1-1.4-0.3-2.8-0.5-4.2c0-0.2,0.2-0.5,0.5-1.1c2.7,13,3.4,25.7,3.8,38.5h0.7c0.2-0.6,0.3-1.2,0.4-1.9
	c0.1-2.7,0.2-5.4,0.4-8.1c0-0.2,0-0.4,0-0.5c-1.5-6.1-0.4-12.4-1.3-18.6c-0.2-2.3-0.3-4.6-0.1-6.9c0-0.4,0.4-0.8,0.6-1.2
	c0.4,0.2,0.7,0.5,1,0.8c0.2,0.3,0.4,0.8,0.4,1.2c0.1,3.3,0.2,6.6,0.2,9.9c0,2.4-0.1,4.7-0.1,7.1c0,1.8,0,3.6,0.2,5.3
	c0.2,0.9,0.4,1.8,0.8,2.7c0.1,0.2,0.2,0.4,0.2,0.7c-0.1,2.5-0.2,5-0.4,7.7c1.4-1.4,2.1-3.4,1.9-5.3c-0.2-1.4-0.3-2.8-0.3-4.2
	c-0.2-3.4-0.2-6.8,0.1-10.2c0.4-4.3-1.2-8.7,0.6-13c0.2-0.6,0.3-1.3,0.2-1.9c0-3-0.1-6,0-9c0.1-1.1,0.4-2.1,0.9-3
	c1.2,1.2,0.8,2.7,0.8,4.1c0,3.5,0.1,7.1,0.1,10.6c0,1.4-0.3,2.9-0.4,4.3S131,27,131,28.5c0.1,3,0.2,6,0.3,9.1c0,1.7-0.4,3.5,0.7,5.2
	c0.4,0.6-0.2,1.8-0.2,2.7c-0.1,1.4-0.1,2.8-0.1,4.1c0,0.3,0.6,0.5,1,0.8c0.2-0.3,0.3-0.6,0.4-1c0.2-3.8,0-7.6,1.4-11.2
	c0.2-1,0.3-2,0.4-3.1c1.3,5.4,0.1,10.8,0.2,16.2l0.5,0.1c0.7-1.4,1.2-2.8,1.7-4.2c0.7-3.4,1.4-6.8,1.8-10.2s0.5-7.1,0.9-10.7
	c0.3-2.7,0.8-5.4,1.2-8.2c0-0.2,0.3-0.3,0.6-0.6c1.2,1.4,0.8,2.8,0.5,4.2c-0.6,3.3-1.5,6.5-0.9,9.9c0.1,1,0.1,2.1-0.1,3.1
	c-0.5,2.7-1.1,5.4-1.5,8.1c-0.4,3.3-0.7,6.7-0.9,10c0,0.5,0.6,1.1,0.9,1.6c0.4-0.4,1-0.8,1.1-1.3c0.4-2.4,0.5-4.8,0.9-7.2
	c0.5-2.5,1.2-5,1.9-7.5c0.1-0.4,0.6-0.7,1.2-1c-0.6,2,1.1,4.2-0.8,5.9c0,0-0.1,0.1-0.1,0.2c-0.4,2.4-0.8,4.7-1.1,7.1
	c0,0.3,0.3,0.6,0.6,1.2c1.4-3.9,2.7-7.4,3.7-11.1L148,41l-2.2,7.7c1.7-0.4,2.6-1,3-2.7c0.9-3.6,2.4-7.1,3.7-10.6
	c0.6-1.7,1.2-3.4,1.8-5.1l0.6,0.1c0.2,0.6,0.2,1.1,0.1,1.7c-1.1,3.4-2.4,6.7-3.5,10c-0.7,2.3-1.3,4.6-2,6.9l0.4,0.2l3.8-6.2l0.8,0.3
	l-2.4,9l0.4,0.1l4.2-7.8c1.6,0.6,1.6,0.6,0.5,4.3l1.9-0.1l-2.4,4.3l-0.8-0.4l1.3-2.5c-2.7,1.1-3,3.6-3.7,5.9l2.2-2.3l0.5,0.3
	l-1.4,2.9l0.4,0.2l4.2-6.4l0.5,0.1l0.2,2l5.2-0.8l-3.7,7.7l1.9,0.6c1.9-2.3,3.6-4.5,5.4-6.7c0.2-0.3,0.7-0.4,1.1-0.5
	c0.1,0.5,0.4,1.1,0.3,1.4c-0.5,0.8-1.3,1.5-1.9,2.3c-1.2,1.6-2.5,3.2-3.6,4.9c-1,1.6-1.8,3.3-2.3,5.1c1.2-1,2.3-2.2,3.3-3.3
	c1.2-1.5,2.1-3.3,3.3-4.8c0.9-1,1.9-2,3-2.9l0.4,0.3l-4.8,7.6l0.3,0.3l8.5-9.6l0.6,0.5c-1.7,2.4-3.4,5-5.3,7.3c-1,1.2-1.6,2.2-0.8,4
	c1.8-2.2,3.6-4.3,5.2-6.4c3.2-4.2,6.4-8.4,9.6-12.5c0.2-0.4,0.6-0.7,1.1-0.9c0.4-0.1,0.9,0.2,1.4,0.3c-0.1,0.4-0.1,0.9-0.3,1.2
	c-3.2,3.8-6.6,7.4-9.6,11.3c-1.9,2.4-3.3,5.2-5,7.8c-0.7,1.1-1.6,2-2.4,3c-0.3,0.4-0.6,0.8-0.8,1.2l0.4,0.3l6.2-7.2
	c1.6,1.1-0.3,2,0,3.2c0.7-1,1.4-2,2.1-3c0.5-0.8,1.1-1.5,1.8-2.2c0.3-0.3,0.9-0.4,1.3-0.5c0,0.5-0.1,0.9-0.3,1.3
	c-1.2,1.7-2.5,3.3-3.7,4.9c-0.3,0.5-0.5,1.1-0.7,1.7l3.1-1.2l0.5,0.4l-2.7,5.3l0.2,0.3c0.5-0.4,1-0.9,1.4-1.4
	c2.5-4.3,6.1-7.8,9.4-11.5c0.8-0.9,1.7-1.8,2.6-2.6c0.6-0.4,1.3-0.6,2-0.8l0,0c-1.1,1.4-2.2,2.9-3.4,4.3c-1.8,2.1-3.8,4.1-5.5,6.3
	c-1,1.6-1.8,3.3-2.3,5.1c2.7-1.7,4.1-4.9,7.4-5.5l0,0c0.4,0.1,0.8,0.4,1.1,0.3c0.4-0.2,0.9-0.4,1.2-0.8l0.4,0.4l-3,3.9l0.3,0.4
	l14-10.8l0.5,0.3c-0.2,0.5-0.2,1.2-0.5,1.5c-2.8,2.4-5.5,4.8-8.4,7.1c-2.5,2-5.2,3.7-7.7,5.6c-0.7,0.6-1.3,1.3-1.9,2l0.4,0.5l1-0.4
	c0.8-0.3,1.6-0.6,2.3-0.9c1.6-0.9,3.1-1.7,4.6-2.7c0.8-0.6,1.4-1.1,2.2,0.1c0.1,0.2,1.2-0.1,1.8-0.4c0.8-0.4,1.5-0.9,2.2-1.5
	l0.3,0.4l-1,2c0.5-0.2,1.1-0.4,1.6-0.7c2.8-1.8,5.6-3.6,8.3-5.3c0.2-0.2,0.5-0.4,0.8-0.4c0.4,0.1,0.8,0.2,1.2,0.4
	c-0.2,0.3-0.3,0.8-0.6,0.9c-2,1.3-4.1,2.7-6.1,3.9c-3,1.8-6,3.6-8,6.6c-0.5,0.5-0.9,1.1-1.2,1.7c1.6-0.6,3.2-1.2,4.7-1.9
	c2.9-1.4,5.8-2.8,8.7-4.3c3.1-1.6,6.2-3.2,9.3-4.7c1.4-0.7,2.9-1.4,4.3-2c0.4-0.1,1,0.4,1.5,0.6c-0.2,0.4-0.4,1.1-0.8,1.2
	c-2.1,0.8-4.3,1.4-6.4,2.2c-1,0.4-2,0.9-3,1.4c-3.3,1.7-6.7,3.2-9.9,5.1c-1.8,1.1-3.4,2.4-4.8,3.9c1.3-0.5,2.7-1,3.9-1.6
	c2.8-1.4,5.5-3,8.4-4.3c1.6-0.7,3.3-1.2,5.1-1.6c0.3-0.1,0.7,0.2,1.1,0.3c-0.1,0.4-0.2,0.9-0.4,1c-1.2,0.9-2.5,1.6-3.8,2.3
	c-3.3,1.6-6.5,3.6-10,4.5c-2.2,0.6-3.6,2.1-5.3,3.4c0.3,0,0.7,0,1-0.1c3.2-1.7,6.8-2.1,10.4-2.6c1-0.1,1.8-1.1,2.6-1.8
	c0.3-0.2,0.6-0.6,1-0.8c0,0,0.5,0.3,0.5,0.4c0,0.5,0,1.3-0.3,1.4c-2.8,1.3-5.6,2.6-8.5,3.8c-1.2,0.5-2.5,0.7-3.8,1.1
	c-0.2,0.1-0.2,0.5-0.5,1.1l13.4-3.4l0.2,0.6c-0.8,1.1-1.2,2.4-3.1,2.6c-1.4,0.3-2.8,1-3.9,1.9c5.3-0.8,10.4-2.6,15.6-3.5
	c0.3,2.6-1.1,5.1-3.6,6.1l0.1,0.5l8.9,1.7l0.1,0.3c-0.4,0.1-0.7,0.2-1.1,0.3c-2.3,0.2-4.6,0.6-7,0.7c-1.5,0.1-3.1,0.3-4.4-0.2
	c-2.5-1-4.7,0.3-7,0.2c-0.2,0-0.5,0.5-0.7,0.8c0.3,0.2,0.6,0.5,1,0.5c4,0.1,7.9,0,11.9,0.1c4.8,0.1,9.5,0.2,14.3,0.4
	c1.5,0.1,2.9,0.3,4.4,0.6c0.6,0.2,1,0.7,1.1,1.3l-23-0.8l-0.2,0.8c0.8,0.5,1.7,0.8,2.6,1c2.8,0.2,5.6,0.1,8.4,0.1
	c0.2,0,0.5,0,0.7,0.1c4.4,0.5,8.8,1.1,13.2,1.5c2.6,0.2,5.3,0.1,8,0.4c3.2,0.2,6.3,0.7,9.5,1c1,0.1,2,0,3,0c0.6,0,1.2,0.2,1.7,0.7
	c-0.3,0.1-0.7,0.4-1,0.4c-2.9,0-5.8,0-8.7-0.1c-3.1-0.2-6.2-0.8-9.4-1s-6.1-0.1-9.1-0.4c-5.4-0.4-10.7-1.3-16.1-1.5
	c-3.4-0.1-6.8-1.1-10.2-0.1c-1,0.3-2.2-0.1-3.4-0.1c-0.6,0-1.3,0.2-1.8,0.5c6.2,0.6,12.3,0.9,18.4,2c-5.2,0.9-10.4,1-15.6,0.2
	c3.7,1.6,7.8,1.3,11.7,2.2s8,1.8,12,3.1c-0.5,0.1-1.1,0.2-1.6,0.1c-3.7-0.5-7.4-1-11.2-1.4c-1.4,0-2.8,0.1-4.2,0.3
	c-0.6,0.1-1.1,0.3-1.6,0.7c10.1,4,21,5.1,31.3,8.3v0.7c-0.9,0.3-1.8,0.4-2.7,0.3c-1.3-0.4-2.5-1-3.8-1.6c-0.7-0.2-1.5-0.4-2.2-0.6
	c-2.2-0.5-4.5-1-6.7-1.5c-1-0.2-2-0.3-3-0.6c-4.2-1.2-8.3-2.4-12.5-3.6c-1.4-0.3-2.8-0.6-4.2-0.7l-0.2,0.4l6.2,2.8l-0.1,0.3
	l-1.1-0.1l-0.2,0.4c1.5,0.8,3.1,1.6,4.6,2.4c1.7,0.8,3.3,1.9,4.8,3.1c-0.5,0.1-1,0.1-1.5,0c-2.4-0.9-4.8-1.8-7.1-2.7
	c-2.2-0.9-4.3-1.9-6.5-2.8c-0.4-0.1-0.8-0.2-1.3-0.2l-0.2,0.6c1.7,0.8,3.3,1.7,4.8,2.6c1.5,1.1,2.9,2.3,4.1,3.7l-9.4-3.4l1,1.5
	l-0.2,0.4l-5.9-2.3l-0.3,0.5l2.7,1.7c0.9,0.6,1.8,1.1,2.6,1.7c0.2,0.2,0.2,0.7,0.2,1.1c-0.3,0-0.7,0.1-1,0c-1.2-0.8-2.4-1.7-3.7-2.4
	c-0.9-0.5-1.9-0.8-2.8-1.3c-0.5-0.2-0.9-0.6-1.4-0.9c-0.4-0.2-0.7-0.3-1.1-0.4c0,0.4-0.2,1,0,1.3c1.3,1.4,2.6,2.8,4.1,4
	c2.5,2,5.2,3.9,7.8,5.8c0.6,0.4,1.1,1,1.7,1.5l-0.2,0.5c-0.6,0-1.1-0.1-1.6-0.4c-2.5-1.8-4.9-3.6-7.4-5.4s-5-3.6-7.4-5.3
	c-0.3-0.2-0.7-0.4-1.1-0.5l-0.4,0.4c0.4,0.7,0.9,1.3,1.4,1.9c2,2.1,4.2,4,6.2,6.1c1,1.2,1.8,2.4,2.6,3.8c-0.5-0.1-0.9,0-1-0.1
	c-2.7-2.6-5.5-5.2-8.1-7.9c-1-1.1-2-1.1-3.6-0.3l7.1,7.6l-0.3,0.3c-0.3-0.1-0.6-0.2-0.8-0.4c-2.2-2.1-4.5-4.2-6.6-6.4
	c-1.2-1.3-3.1-1.7-4.7-1.1l4.7,5.4l-0.5,0.5l-3.5-3l-0.3,1.5l-1.6-1.1l-0.4,0.3l3.2,4.9l-0.5,0.5l-5.6-3l-0.4,0.1
	c1.4,2.7,3,5.4,4.3,8.1s2.3,5.8,3.5,8.7l-0.4,0.2c-0.9-1.5-1.7-3-2.6-4.6c-1.7-3.2-3.4-6.4-5.1-9.6c-0.7-1.2-1.4-2.3-2.3-3.4
	c-0.3-0.4-1.2-0.3-1.9-0.5c1,1.2,1.8,2.1,2.5,3.1c0.2,0.3,0.4,0.8,0.3,1c-1.8,2-0.1,3.7,0.5,5.4c0.7,2.2,1.9,4.3,2.8,6.5
	c0.1,0.4,0.1,0.8,0.1,1.2l-0.7,0.2c-1.1-1.9-2.3-3.9-3.3-5.9s-1.8-4.4-3.1-6.4c-1.3-1.7-2.7-3.2-4.2-4.6c0.6,1.7,1.1,3.4,1.8,5
	c1.7,3.6,3.5,7.2,5.2,10.9c0.3,0.8,0.6,1.6,0.6,2.4c0.4,3.8,1.6,7.5,3.5,10.8c0.6,1.3,1,2.6,1.3,4c0,0.5-0.3,0.9-0.8,1.1
	c-0.5,0-0.9-0.3-1.2-0.7c-0.6-1.7-0.9-3.5-1.5-5.2c-0.4-1.2-1.1-2.4-1.7-3.6c-0.8-1.5-1.4-3.1-1.8-4.8c-0.8-4.4-2.6-8.5-5.4-12
	c-0.2-0.2-0.3-0.3-0.5-0.5c0,0-0.1,0-0.6,0l0.9,4.9l-0.7,0.2l-1.8-4.1c-2.4,1.2-2.5,1.5-1.8,3.8c0.7,2.4,1.3,4.9,2,7.4
	c0.5,1.7,1,3.4,1.5,5.2c0.1,0.5,0.2,1.1,0.2,1.6l-0.6,0.2c-0.5-0.9-0.9-1.8-1.2-2.7c-0.7-2.8-1.1-5.6-1.9-8.4
	c-0.7-2.3-1.8-4.4-2.7-6.8c-0.7,1.4,0.1,5.3,0.8,7.6c0.7,2.4,1.2,4.9,1.5,7.4c0.5,2.4,1,4.9,1.5,7.4l-0.8,0.2
	c-0.2-0.6-0.4-1.3-0.5-1.9c-0.3-1.7-0.5-3.4-0.8-5c0-0.3,0-0.7-0.2-0.8c-2.1-1.7-1.7-4.3-2.5-6.5c-0.2-0.6-0.6-1.1-1-1.4
	c-0.7,2.4,0.3,4.6,0.7,6.9c0.4,2.4,0.6,4.9,0.5,7.3c-0.4-0.5-0.7-1.1-1-1.7c-0.5-1.5-1-3-1.2-4.5c-0.6-3.4-1.3-6.7-2.4-10
	c-0.3-1-0.7-2-1.2-2.9c-0.4,2.4,1.7,4.8-0.3,7.8l-2.5-3.6l-0.4,0.2c1.4,2.6,0.7,5.7,2.9,8.1c1.1,1.2,0.4,2.2-0.9,3.3l-2.5-5H152
	c-0.1,0.8-0.2,1.6-0.1,2.4c0.7,3,1.6,6,2.3,9c0.1,0.8,0.1,1.7,0,2.5l-0.8,0.1c-0.4-1.6-0.8-3.2-1.1-4.8c0-0.1,0.2-0.4,0.1-0.5
	c-0.9-3.2-1.1-6.6-3.2-9.5c-0.2-0.2-0.4-0.4-0.6-0.6c-0.2-0.1-0.4-0.2-0.6-0.2c-0.8,2.3,0,4.4,0.6,6.6c0.8,3.4,2.2,6.6,1.7,10.3
	c-0.1,1.1,0.6,2.2,0.9,3.4c0.1,0.8,0.2,1.6,0.2,2.4l-0.7,0.1c-0.3-0.6-0.6-1.1-0.9-1.7c-0.7-2.2-1.4-4.4-1.9-6.7
	c-0.4-1.7-0.4-3.5-0.7-5.2c-0.7-3-1.4-6-2.3-8.9c-0.1-0.5-1.1-0.8-1.7-1.1c-0.2,0.6-0.3,1.2-0.4,1.8c-0.2,2.3,0.8,4,2.4,5.8
	c1.1,1.2,1.3,3.3,0.7,5.4L144,160l2,10.9l-0.7,0.2c-2.2-2.4-2.2-5.9-4-8.7c-1.3,0.7-1.2,2-1,3.1c0.8,4.3,1.7,8.7,2.6,13
	c0.3,1.2,0.5,2.5,0.6,3.8c0,0.6-0.7,1.2-1.1,1.8l-0.8-0.1l-3.8-22.9h-0.6c-0.2,0.5-0.3,0.9-0.3,1.4c0.1,3.3,0.2,6.7,0.3,10.1
	c0,0.5,0.1,1.1,0.3,1.6c0.8,2.6,0.8,2.6-0.4,4.7c1.4,3.7,1.6,7.7,0.6,11.5l-0.7,0.1c-0.3-1.2-0.5-2.4-0.6-3.7
	c-0.1-3.4,0.5-6.9-1.2-10.1c-0.1-0.4-0.2-0.8-0.1-1.2c-0.1-3.6-0.1-7.3-0.2-10.9c-0.2-0.8-0.4-1.6-0.8-2.3h-0.7
	c-0.4,1-0.7,2-0.9,3.1c-0.2,2.1-0.3,4.3-0.2,6.4c0,1.6,0.5,3.1,0.5,4.7c0,3.3-0.2,6.5-0.4,9.8c-0.1,0.3-0.2,0.6-0.3,0.9
	c-1.4-0.6-1.2-1.7-1.3-2.7c-0.2-6.5-0.3-13-0.5-19.6c-0.1-3.4,0-6.8,0-10.2c-0.1-0.6-0.2-1.1-0.4-1.6l-0.5-0.1
	c-0.3,0.4-0.4,0.9-0.5,1.4c-0.1,4.8-0.1,9.6-0.2,14.5c-0.1,2.3-0.4,4.6-0.5,6.9c-0.1,0.5,0,1.1,0.2,1.6c1.7,2.8,0,5.4-0.2,8.1
	c0,0.4-0.4,0.7-0.8,1c-1.6-10.1,0-20.1,0.2-30.2l-0.9-0.1c-0.2,1.2-0.6,2.4-0.7,3.6c-0.3,2.6-0.4,5.2-0.6,7.9c0.1,1.1,0.1,2.1,0,3.2
	c-0.3,1-0.7,2-1.2,2.9c-1.4-0.6-2.1-2.3-1.5-3.7c1.5-5.1,0.8-10.4,1.7-15.6c0-0.3,0-0.7-0.1-1c0-0.1-0.2-0.1-0.4-0.3
	c-0.6,3.5-2.1,6.6-1.8,10.3c0.3,3.3-1,6.7-1.6,10.1l-0.9-0.1c0.1-1.9,0.2-3.8,0.3-5.7c0.1-0.5,0.2-1,0.2-1.6
	c-1-4.4,0.8-8.4,1.3-12.6c0.2-2.1,0.9-4.2-0.4-6.4c-2.1,1.6-1.8,3.8-2,5.8c-0.1,0.8,0.2,1.8,0,2.5s-1.1,1.2-1.7,1.8
	c-0.3-0.7-0.5-1.4-0.6-2.2c-0.1-0.7,0.3-1.4,0.2-2.1c-0.1-0.5-0.6-0.9-0.9-1.3c-0.3,0.4-0.5,0.8-0.6,1.3c-0.4,1.6-0.8,3.2-1.2,4.8
	l-0.6-0.1v-3.3l-0.5-0.2c-0.2,0.4-0.5,0.9-0.8,1.3c-0.7,0.8-1.4,1.5-2.2,2.3c-0.3-1-1.1-2-1-3c0.4-3.2,1.2-6.3,1.9-10l-4.1,3.6
	l0.4-3c-3.1,0.2-3.7,2.6-4.6,4.8c-0.8,1.9-1.8,3.7-2.9,5.9c-0.9-1.2-1-2.7-0.3-4c0.5-1.1,1.1-2.1,1.8-3.1c1.2-1.6,1-2.1-0.6-2.7
	l-3.3,2.6l-0.4-0.2c1.5-3.7,3.6-7.2,3.3-11.7c-0.6,0.7-1.2,1.1-1.5,1.6c-1.2,2.7-2.3,5.5-3.4,8.3c-0.5,1.2-0.9,2.4-1.4,3.6
	c-0.1,0.3-0.6,0.4-0.8,0.7l-0.5-0.3l5.1-13.2l-0.5-0.4c-1.8,1.8-4.3,3.2-5.2,5.4c-1,2.5-2.7,4.2-4.2,6.2c-0.1,0.1-0.3,0.1-1.1,0.4
	c1.4-2.6,2.7-4.9,3.9-7.1c0.3-0.6,1-1.4,0.9-2c-0.3-1.8-1.4-2.2-2.7-0.8c-1.8,1.9-3.5,3.9-5.2,5.9c-3,3.6-5.9,7.3-8.9,10.9
	c-0.2,0.2-0.3,0.4-0.5,0.5c-0.5,0.1-1,0.1-1.5,0.1c0-0.4,0.1-0.9,0.3-1.2c1.4-1.8,2.9-3.5,4.2-5.2c1.2-1.5,2.2-3.3,3.5-4.6
	c3-3.1,5.2-6.8,7.5-10.4c0.8-1.3,2.3-2.2,3.4-3.3s1-1.5,0.3-2l-6.7,6c-1.2-2.1,3-2.7,0.8-5.2l-11,10.6c-0.2-2.1,1.3-2.9,2.2-4.1
	c1.1-1.4,3.1-2.8,3.2-4.3s1.1-2.1,1.5-3.2c-2.6-1.1-3.5-0.7-5.3,2.1l2.1-1.2c-0.1,1-0.3,1.9-0.6,2.9c-0.2,0.5-0.5,0.9-1,1.1
	c-3,1.3-5,3.8-7.1,6.1c-0.6,0.6-1.3,1-2.1,1.2c1.8-3.8,5.8-5.6,7.7-9.4l-2.1,0.6c0.3-1,0.6-1.8,0.9-2.7c2.2-0.3,4-1.8,4.8-3.9
	l-4.9,4l-10.3,8.9c-0.5-2,1-2.7,1.8-3.7c1.5-1.7,4-2.6,4.6-5.1c0.1-0.3,0.9-0.6,1.3-0.6c1.7,0.1,2.3-0.6,1.6-2.6
	c3.4,0.5,5.1-1.6,6.6-3.9l-0.3-0.4l-4.1,4.1l-1-1.6c-1.3,1-2.7,2-4,3c-1.8,1.4-3.7,2.7-5.6,4c-0.5,0.4-0.9,0.9-1.4,1.3
	c-0.6,0.4-1.3,0.7-2,0.7c3.8-4.8,10-6.9,13.9-12.2l-5.4,1L70.3,123.2z M115.8,122.5c1.8-0.5,3.7,0.2,4.7,1.8c0.2,0.3,1,0.3,1.6,0.4
	c1.9,0,3.7,0,5.6,0.2c1.7,0.3,3.3,0.5,4.7-0.7c0.4-0.2,0.9-0.3,1.3-0.3c1.6-0.2,3.1-0.4,4.7-0.6c0.3,0,0.7,0,0.8,0.1
	c0.8,1,1.6,0.8,2.5,0.2s1.9-0.6,2.4-1.2c1-1.2,1.7-1.1,2.8-0.2c0.6,0.5,1.4,0.7,2.2,0.6c3.1-1.1,6.3-2,9.5-2.8
	c3-0.6,3.8-1.5,3.4-3.6c1.7-0.5,3.5-0.9,5.3-1.2c1.4-0.1,2.6,0.1,2.4-1.9c0-0.2,0.4-0.6,0.6-0.7s0.5,0.3,0.8,0.4
	c0.2,0.2,0.5,0.5,0.7,0.7c0.6-1.8,0.4-2.9-1.4-3.3c0.9-2.9,3.4,0,4.9-1.6c-0.8-0.6-1.5-1.3-2.3-1.8c-1.7-1.2-3.1-3.2-5.7-2.6
	c-0.2,0.1-0.6-0.5-1-0.7c0.4-0.2,0.7-0.3,1.1-0.4c0.6,0,1.4,0.3,1.8,0.1c1.1-0.7,0.8-3.6-0.4-4.2c-0.4-0.3-0.7-0.6-1.1-1
	c0.4-0.4,0.9-0.8,1.4-1.2c0.5-0.2,1.1-0.4,1.7-0.4l-0.1-0.5c-0.7,0.1-1.3,0.1-2,0c-0.4-0.1-1.2-0.6-1.1-1c0.1-2.8-2.3-3.4-3.9-4.6
	c-0.8-0.6-2.1-0.4-3.1-0.4c-0.6,0-1.3,0.2-1.9,0.3c0.3,1,0.6,2,1,2.9c0.6,0.1,1.1,0,1.6-0.3c0.6-0.8,1.8-0.9,2.6-0.2
	c0.7,0.5,1.3,1.1,2,1.7V95c-0.7,0.2-1.4,0.3-2.1,0.3c-0.8,0-1.6-0.3-2.4-0.3c-2,0-2.5,0.7-2.1,2.6c0.1,0.3,0.1,0.7,0,1
	c-0.5,2.3-1,4.7-1.6,7c-0.1,0.9-0.5,1.8-1.1,2.6c-2,1.8-2.6,4.3-3.7,6.6c-0.3,0.4-0.7,0.8-1.2,1c-1.2,0.6-2.6,1.1-3.8,1.8
	s-2.1,1.3-3.3,1.8c-2.3,0.9-4.6,1.7-6.9,2.5c-0.6,0.3-1.3,0.5-2,0.7c-1.7,0.2-3.4,0.2-5.1,0.3c-0.2,0-0.4,0.2-0.6,0.3
	c-2.2,2-4.2,0.5-6.5-0.1l2.3-1.6c-1.7-0.3-3.4-0.6-5.1-1.1C118.4,119.6,116.4,120.6,115.8,122.5L115.8,122.5z M96.7,115.7
	c0.4,0.4,1.1,0.9,1,1.2c-0.2,2.1,1.3,2.6,2.7,2.9c2.7,0.8,5.5,1.4,8.2,2c0.4,0.1,1-0.5,1.4-0.8l-0.3-0.5c-1,0-2.6,0.9-2.6-1
	c0.1-2.4,2.2-1.4,3.6-1.8l0.1,2l4.4,0.6c-0.1-2.8-3.3-5.8-6.2-5.8l-0.3,1.7c-0.9-0.2-1.7-0.5-2.5-1c-0.7-0.7-1.4-1.5-1.9-2.4
	c0.8-0.4,1.7-0.7,2.6-0.9c1.3-0.2,1.8-0.6,1-1.8c-0.3-0.7-0.6-1.4-0.7-2.2c-0.3-1.2-0.7-2.5-0.9-3.7c-0.1-0.7-0.2-1.4-0.2-2.1
	c0.1-0.8,0.1-1.6,0-2.4c-0.3-1.1-1-2.2,0-3.4c0.1-0.1-0.2-0.7-0.4-1.2c-0.9,0.7-2.1,0.5-2.8-0.4c-0.1-0.1-0.1-0.1-0.1-0.2
	c-0.6-1-2-1.3-3-0.7c-0.1,0.1-0.2,0.2-0.3,0.3c-0.3,0.2-0.7,0.3-1.1,0.2c-1-0.3-1.5-0.2-1.3,1c0,0.3-0.4,0.7-0.7,1
	c-0.3-0.3-0.6-0.6-0.9-0.9c-0.2-0.4-0.2-0.9-0.3-1.3l-4.7,2c1.1,0.4,1.9,1,2.2,0.8c2-1.3,2.8,0.6,4.1,1.1c-1.4,3.6-4.5,0.9-6.5,1.9
	v0.5l3.3,0.6c-0.3,2-1.8,1.4-3.5,1.4c0.5,0.7,1.1,1.4,1.7,1.9c0.7,0.4,1.5,0.6,2.3,0.8c-0.1,0.3-0.3,0.5-0.3,0.8
	c0,0.5,0.1,0.9,0.1,1.4c0.4-0.2,0.8-0.5,1.1-0.8c0.5-0.5,1-1,1.6-1.4c1.2-0.7,2.6,0,2.4,1.2c-0.3,1-0.8,1.9-1.6,2.6
	c-0.2,0.2-1.3-0.4-2.1-0.7c-1.2,1-2,0.5-5.4-1.8l-0.8,1.3l2.4,1l-1.6,2.3c0.3,0,0.7,0,1-0.1c0.6-0.3,1.2-1.1,1.7,0
	c0.1,0.2-0.8,0.7-1.2,1.1s-0.9,0.6-1.3,1l0.3,0.6c2.6-1.3,5.2-2.7,7.2,0.8L96.7,115.7z M123.8,69.5l-0.1-0.5c-0.7,0-1.3,0.1-2,0.2
	c-1.5,0.4-3,0.8-4.6,1.2c-1.3,0.2-2.6,0.6-3.9,1.1c-3.7,1.8-7.3,3.8-11,5.7c-2,1-3.9,1.9-5.2,3.8c-0.4,0.6-1.4,0.8-2.1,1.2
	c-0.3,0.2-0.8,0.2-0.9,0.5c-0.7,1.3-1.3,2.7-1.9,4l0.3,0.4c0.5-0.5,1-1,1.6-1.4c0.7-0.3,1.5-0.6,2.2-0.8l0.2,0.5l-1.8,2.4l14.4-6.1
	c0.7-0.4,1.4-0.8,2-1.4c0.7-0.4,1.5-0.7,2.3-0.9c1.9-0.5,3.3-2.7,5.7-1.2c0.5,0.3,1.4-0.2,2.2-0.3l-0.7-2.4l-2.9,0.3l-0.1-0.5
	L123.8,69.5z M116.3,94.9c0.4-0.2,0.8-0.4,1.3-0.5c1.6-0.3,3.5-0.4,2.6-3c-0.1-0.2,0.3-0.6,0.4-0.9c0.6-1.2-0.2-2.3-1.6-2.3
	c-2.2-0.1-4.2-0.2-5.4,2.2l-0.4,0.7L116.3,94.9z M131,128.9l0.1-0.6c-0.5-0.2-1-0.3-1.6-0.4c-0.9,0-1.7,0.2-2.6,0.2
	c-1.5,0-3.1,0-4.6,0v0.7C125.2,128.7,128.1,129.7,131,128.9L131,128.9z M58.2,112.7l0.2,0.7c1.3,0.1,2.6,0.1,3.9-0.1
	c0.8-0.2,1.4-1.1,2.1-1.6L64,111L58.2,112.7z M112.1,140.2l-0.8-0.4l-2.6,3l2.3,1.2L112.1,140.2z M89.2,109.6
	c-0.4-1.1-0.8-2.1-1.2-3c-0.1-0.1-0.7-0.1-0.8,0c-0.3,0.8-0.9,1.9-0.7,2.3c0.4,0.6,1.5,0.8,2.4,1.1C89,109.9,89.2,109.6,89.2,109.6
	L89.2,109.6z M218,95.2c-2.3-1.4-4.8-1.3-6.2,0H218z M171.5,98.8l-0.5,0.5c0.5,0.7,1.2,1.3,1.3,2.1s-0.4,1.4-0.8,2.4l2.9-2.1
	L171.5,98.8z M65.1,94.2c-1.5-1.5-3.9-1.7-5.6-0.5L65.1,94.2z M216.8,101.7V101l-4.4,0.2C213.9,101.8,215.4,102.9,216.8,101.7
	L216.8,101.7z M160.1,122.7l0.3,0.9l4.5-1.6l-0.3-0.9L160.1,122.7z M158.5,54.6c-1.4,0.7-1,1.9-0.9,2.9c0,0.1,0.8,0.2,1,0.1
	C159.6,56.6,159.4,55.6,158.5,54.6L158.5,54.6z M50.1,102.5v-0.9H45v0.6L50.1,102.5z M140.9,161.6c1.7-1.4,1.5-2.3-0.8-3.9
	L140.9,161.6z M187.7,109.3l0.4,0.6l3.6-2.1l-0.3-0.5C189.9,107.5,188.6,108.2,187.7,109.3L187.7,109.3z M92.3,116.6l1.2-1
	c-0.5-0.4-1.1-0.6-1.7-0.8c-0.3,0-0.7,0.5-1.1,0.8L92.3,116.6z M47.4,96.8l0.1-0.9l-4.1-0.2l-0.1,0.6L47.4,96.8z M137.1,154.6
	c-1.1,1.1-0.8,2.4,0.5,3.7L137.1,154.6z M100.4,144.4c1.9-0.6,2.2-1.4,1.2-2.9L100.4,144.4z M134,157.4l-1,0.1l0.6,3l0.6-0.1
	L134,157.4z"/>
</svg>
