<?xml-stylesheet type="text/css" href="style.css" ?>

<svg id="eye" data-name="Layer 1" xmlns="http://www.w3.org/2000/svg" viewBox="0 0 265 195.14"><title>tool-3-new</title><path fill="#dfe6e1" d="M117.78,148.34l.29-.36-.29.36Zm39.8-70.71a13.27,13.27,0,0,0,1-6.3,13.25,13.25,0,0,1-.15-2.8c.34-4.87.75-9.73,1.11-14.59a3.94,3.94,0,0,0-.13-1.58c-.1-.29-.58-.44-.88-.66-.19.27-.52.54-.54.82,0,.58.18,1.18.14,1.76-.3,4.34-.72,8.68-.92,13-.15,3.39,0,6.8,0,10.2ZM92.23,167.21l-.07,0,.1,0Zm-2.1.49c-1.47.87-2.79,2-4.26,2.87-3,1.8-6,3.46-9,5.27a20.31,20.31,0,0,0-2.59,2.24l.3.49a4.84,4.84,0,0,0,1.19-.36c2.06-1.27,4.1-2.56,6.14-3.87.88-.56,1.74-1.15,2.59-1.75s1.46-1.13,2.22-1.65c1.8-1.24,3.61-2.46,5.42-3.69A6.09,6.09,0,0,0,90.14,167.71Zm145-61.3c-.5,0-1.16-.23-1.49,0q-6.18,4.29-12.26,8.71c-1,.73-1.88,1.65-2.81,2.48l.26.2c5.2-3.38,10.41-6.75,15.58-10.17C234.81,107.38,234.94,106.82,235.17,106.4ZM153.89,233.12c-.4,3.87-.82,7.74-1.14,11.61a7.54,7.54,0,0,0,.44,2.11l1.45-.36v-14l-.59,0A3.88,3.88,0,0,0,153.89,233.12Zm-72-65.49a38.34,38.34,0,0,0-5.35,1.55,29.84,29.84,0,0,0-4.8,3c-.39.27-.51.92-.76,1.4a5.38,5.38,0,0,0,1.53-.23c1.65-.77,3.18-2,4.9-2.37A7,7,0,0,0,81.85,167.63Zm54.47,51.6c2.35-5,2.78-8.25,1.43-11.06C135.63,211.83,136.29,215.56,136.33,219.22ZM62.21,134.65c-3.47-.74-6.93-1.53-10.42-2.18-.55-.1-1.22.43-1.84.67l.14.76,12,1.62Zm40.53,46.76a5.61,5.61,0,0,0-1.46,1.57,40.4,40.4,0,0,1-2.21,4A57.14,57.14,0,0,1,95,191.37l.31.36c.21-.06.48-.06.61-.2q3.61-3.74,7.18-7.51a3.49,3.49,0,0,0,.78-1.18,1.36,1.36,0,0,0-.08-1.12C103.61,181.47,102.94,181.27,102.75,181.41ZM167.23,79.59l2.9-11.74-.64-.2c-1.12.61-3.05,9-2.74,11.83ZM183.15,93c1.29-.94,5.71-8.46,5.51-9.55C187,84.38,182.82,91.74,183.15,93ZM128.56,196a2.24,2.24,0,0,0-.68-.88c-.12-.07-.67.29-.76.55-.86,2.39-2.06,4.73-1.57,7.39l.68.22q1.16-3.38,2.31-6.77A.75.75,0,0,0,128.56,196ZM118.88,89.71c-.51-5.25-2.18-9.18-4.31-9.15l3.9,9.31Zm4.5,117.78c-.92.77-1.8,5.8-1.18,6.79.11.17.4.39.52.35a1,1,0,0,0,.6-.53c.53-1.72,1.09-3.43,1.48-5.18.12-.54-.27-1.19-.47-2A8.09,8.09,0,0,0,123.38,207.49ZM36.26,132c3.27-.29,6.3,1.75,9.82,1C44.65,131.2,37.91,130.48,36.26,132Zm215.27-4.75c-2,.38-4,.73-6,1.2a11.58,11.58,0,0,0-2.12,1l.24.78,9.49-1.75C252.77,127,252.74,127,251.53,127.21ZM123.2,101.61h0Zm0,0c.17-.77.61-1.61.43-2.29A38.72,38.72,0,0,0,121.73,94c-.21-.49-.89-.78-1.36-1.16l-.47.39a13.12,13.12,0,0,0,.41,1.43C121.26,97,122.23,99.29,123.2,101.6Zm97.46,3a10.32,10.32,0,0,0,.78-1l-.37-.33c-3.42,2.56-6.61,5.35-8.83,9.13a2.55,2.55,0,0,0,.86-.4Q216.9,108.31,220.65,104.58Zm-8.42,7.82-.1,0,0,0ZM22,138.68c2.84,1.84,5.78.34,8.48,1.51C29.84,138.23,24.51,137.28,22,138.68Zm119.63,89.93c1.18-4.89,1.27-7,.37-8.36C140.48,222,140.27,226.71,141.64,228.61Zm-42.3-120.1c-1.47-2.45-6.49-7.3-8-7.28L98.94,109Zm136.13,69.66c-.44-.27-.93-.48-1.4-.72l-.29.44c1.93,1.67,3.85,3.37,5.83,5,.18.15.76-.19,1.15-.31-.18-.47-.23-1.13-.57-1.37C238.67,180.11,237.07,179.15,235.47,178.16ZM56.69,166.53c2.2.51,7.72-1.32,8.15-2.72C62.49,165.56,59,163.68,56.69,166.53Zm158.85,22.53a5.06,5.06,0,0,0-1.1-1l-.68.51c.79,1.66,1.54,3.36,2.42,5,.17.32.88.34,1.34.5a4.7,4.7,0,0,0-.18-1.35C216.8,191.43,216.2,190.22,215.54,189.05Zm-21.9-103c.16-.19-.14-1-.45-1.24a1.27,1.27,0,0,0-1.24.22,25,25,0,0,0-1.61,2.73c-.37.67-.73,1.34-1.29,2.39.73-.2,1-.18,1.14-.32C191.37,88.62,192.56,87.39,193.63,86.07Zm22.3,16.24s0-.05,0-.08l0,0Zm1-.92c2.35-.14,2.46-2,3.07-3.6-1.76-.51-4,2-4.08,4.45C216.27,101.91,216.59,101.4,216.94,101.38ZM261.43,132a3.81,3.81,0,0,0-1.57.32,1.28,1.28,0,0,0-.24,1.24,6.83,6.83,0,0,0,1.56,1.28l2.53-1.67-2-1C261.65,132.08,261.53,132,261.43,132ZM137.81,206.64c1.62-1,2.16-2.49,1.58-4.57C136.83,203,136.49,204.08,137.81,206.64ZM185.37,77.87c.36-.77,1.33-1.67.15-2.4-.18-.12-1.34.89-1.68,1.57-.47.92-1.67,1.91,0,3.48A30.37,30.37,0,0,0,185.37,77.87Zm71,63.37h6.36C260.6,139.44,258.49,139.91,256.39,141.24ZM227.32,99.69c-.65-.4-1.28-.94-1.41-.84-1.34,1-2.6,2.19-3.88,3.31l.63.76Zm-17,83c-.87,3.35,2.32,3.21,3.43,4.78C213.14,185.52,212.56,183.56,210.33,182.69ZM105.48,95.8,101.35,90C100.84,91.54,103.62,95.32,105.48,95.8Zm9.39,108c-.08.27.41.71.63,1.08.28-.32.72-.6.8-1,.38-1.71.67-3.44,1-5.17l-.52-.27C116.11,200.3,115.43,202.06,114.86,203.85ZM78.3,181.16l-4.63,3.35.24.62c.45,0,1.07.19,1.34,0,1.25-1,2.4-2.21,3.58-3.33Zm53.24,40.43a4,4,0,0,0-.66,1.63,9.64,9.64,0,0,0,.3,2.11l.66-.12a29.33,29.33,0,0,0,1-3.15,5.45,5.45,0,0,0-.24-1.77A11.06,11.06,0,0,0,131.55,221.59ZM172.17,75.9c-1.73,1.49-1.09,3.73-2.5,5.55C171.66,81,173,77.57,172.17,75.9Zm75.39,90.17,5.77,2.23.35-1-5.86-2Zm-54.49,24.35c-.11-.32-.45-.57-.86-1-.24.51-.39.69-.36.82.38,1.65.76,3.3,1.22,4.93.05.18.57.23.87.34a3.32,3.32,0,0,0,.24-1.26C193.88,192.93,193.49,191.66,193.07,190.42ZM135.13,72.09c0-.7.12-1.4.09-2.1a1.42,1.42,0,0,0-.44-.86c-.07-.07-.55.11-.7.29-.72.91-.12,3.89,1,4.79C135.13,73.44,135.11,72.76,135.13,72.09Zm90.38,119.57-.73.47c.6,1,1.16,2,1.84,2.91a1.13,1.13,0,0,0,1,.11c.21-.33.37-1,.19-1.2A29.86,29.86,0,0,0,225.51,191.66ZM98.82,102.6c-1.29-1.5-2.19-3.4-4-4.33l-.59.6L98.48,103Zm4.09-18.09c-.1,0-.32.35-.33.56-.05.63,2.27,2.86,3.41,3-.74-1.23-1.32-2.28-2-3.25C103.81,84.56,103.28,84.53,102.91,84.51Zm130.22,18.4-1.32-1.24a15.43,15.43,0,0,0-1.37,1.87c-.08.14.42.6.84,1.18Zm-84.76-45-.53-4.52-.66.1C146.25,54.91,146.56,56.59,148.38,57.86ZM145.94,231.7l-.58-5.67c-.14,2-1.55,3.94-.22,5.73ZM75.38,112l.25-.62c-1-.76-2-1.56-3.1-2.24-.22-.14-.71.15-1.07.24.08.26.09.67.26.76C72.92,110.76,74.15,111.35,75.38,112Zm172.34,11.28a3.63,3.63,0,0,0-4.39,1.24l.27.62ZM180,203.39c.83,1.49-.31,3.55,1.32,4.81L182,208l-1.18-4.87Zm28-25.63-.49.39c-.19,1.79,1.16,2.46,2.42,3.19l.62-.49Zm41.36-59.41c0-.26-.41-.69-.65-.69a2.76,2.76,0,0,0-2.94,2c1-.2,2-.35,3-.62A.94.94,0,0,0,249.33,118.34Zm4.23,33c-2-1.39-4.19-.69-6.36-.37l6.3.86ZM165.31,58.65l-1.2-1.74a5.45,5.45,0,0,0-.74,1.75c0,.51.43,1,.67,1.57Zm-1.76,170v3.87C165.48,231,165.37,229.78,163.55,228.63ZM79,97.14l.46-.2c0-.43.17-1,0-1.26a7.42,7.42,0,0,0-1.68-1.39c-.09-.06-.66.38-.64.42A8.78,8.78,0,0,0,78,96.25,6.94,6.94,0,0,0,79,97.14Zm3.75,94.11c-.11.12.28,1,.49,1,1.17.11,2.22-1.56,1.72-3.11A27.77,27.77,0,0,0,82.75,191.25ZM237.5,186a13,13,0,0,0-2.17-.92l-.48.6a12,12,0,0,0,1.64,1.88c.22.17,1-.12,1.31-.41C237.95,187,237.76,186.19,237.5,186ZM40.12,127.86l4.3.82C42,126.63,41.09,126.49,40.12,127.86ZM208.81,96.36c-.24-.13-.76-.15-.9,0-.66.76-1.24,1.59-1.84,2.39l.5.51c.8-.71,1.63-1.39,2.39-2.14A.81.81,0,0,0,208.81,96.36Zm-91-25.45a1.59,1.59,0,0,0-.42-2.34c-.23-.15-.86.3-1.3.48l1.07,2.13ZM145.23,234l-.57.13a21.73,21.73,0,0,0,0,2.41c0,.26.41.52.69.68.09.05.51-.18.53-.32C146.1,235.86,146.26,234.76,145.23,234ZM77.77,188.9a.92.92,0,0,0,.13.9.94.94,0,0,0,.93,0c.61-.66,1.11-1.41,1.66-2.12l-.62-.68C79.16,187.6,78.42,188.2,77.77,188.9Zm134.78-16.32-3.8-3.44C209.32,171.33,211.18,172.9,212.55,172.58Zm4.34-77.12c-.54-.31-1-.67-1.06-.6a21.33,21.33,0,0,0-2.07,2s.33.49.52.75ZM130.59,203.72a6.09,6.09,0,0,0-1,1.63c-.07.28.51.74.8,1.11L132,205Zm-2.82,13.12a4.36,4.36,0,0,0,.73.34l.69-2.83-1-.25C128,215,127.89,215.93,127.77,216.84Zm17.63,2.26.28,3.63C147.28,221,147.23,220.34,145.4,219.11Zm-11.54-13.17,1.07.35.81-3-.86-.26Zm135.7-41.35a5.32,5.32,0,0,0-1.75.79l1.53,1.16,1.43-1C270.37,165.17,269.95,164.56,269.56,164.58ZM61.75,177.32c0,.4.46.83.72,1.24a5,5,0,0,0,1.11-1.32c.1-.28-.37-.77-.8-1.54C62.26,176.46,61.77,176.88,61.75,177.32ZM87.81,96.86l-1.48-2c-.29.23-.86.65-.84.67.46.69,1,1.34,1.49,2Zm110.11,110.9-1.34,1.17,1.34,1.11c.36-.59.78-1,.77-1.33S198.19,208.08,197.91,207.76Zm-65.42,8.61a13.29,13.29,0,0,0-.28,2.33l.3.06a11,11,0,0,0,1.34-1.95c.14-.33-.24-.88-.39-1.33C133.13,215.77,132.6,216,132.49,216.37Zm103.13-42.7,2.48,1c.09-.25.33-.62.25-.72C237.72,173.19,237.06,172.38,235.62,173.66Zm-5.71-7.57,3.35,2.31.49-.77-3.53-2Zm-139,29.15.72.7,1.58-1.52c-.27-.23-.73-.7-.78-.66A21.18,21.18,0,0,0,90.87,195.25Zm37.9,15.69c-.22.66-.35,1.34-.51,2l1,.15.27-2.16C129.28,210.93,128.8,210.86,128.77,210.93ZM192.16,75.76l-.78-.21-.73,2,1.17.37Zm-60.6,2,.33,2.93C133.18,79.24,133.07,78.56,131.57,77.72ZM119.67,205l-.75,2.8.66.06C120.85,205.61,120.85,205.61,119.67,205Zm75.15-53.8c-1.71-1.25-3.12-3.19-5.71-2.56-.25.06-.64-.47-1-.73a4.22,4.22,0,0,1,1.14-.43c.59,0,1.35.33,1.76.07,1.14-.72.76-3.56-.43-4.23a6.11,6.11,0,0,1-1.06-1,8.49,8.49,0,0,1,1.39-1.16,7.34,7.34,0,0,1,1.66-.45l-.09-.53a8,8,0,0,1-2,0c-.45-.12-1.16-.64-1.14-1,.13-2.77-2.29-3.41-3.9-4.57-.76-.55-2.06-.4-3.11-.44a8.75,8.75,0,0,0-1.87.33,21,21,0,0,0,1,2.93,2.23,2.23,0,0,0,1.62-.31,1.82,1.82,0,0,1,2.56-.24c.69.51,1.3,1.13,2,1.7l0,.53a13,13,0,0,1-2.14.32c-.81,0-1.63-.3-2.44-.3-2,0-2.5.71-2.1,2.62a2.59,2.59,0,0,1,0,1c-.5,2.33-1,4.67-1.58,7a5.32,5.32,0,0,1-1.06,2.58c-2,1.81-2.63,4.27-3.69,6.55a2.68,2.68,0,0,1-1.22,1c-1.25.63-2.56,1.14-3.81,1.76s-2.15,1.32-3.3,1.78c-2.27.91-4.61,1.66-6.92,2.48a8.82,8.82,0,0,1-2,.67c-1.71.16-3.43.18-5.14.29a1.14,1.14,0,0,0-.61.32c-2.2,2-4.21.48-6.53-.12l2.27-1.63a35.85,35.85,0,0,1-5.12-1.15,3.56,3.56,0,0,0-4.44,2.24,4.15,4.15,0,0,1,4.67,1.76c.23.33,1,.33,1.58.36a53,53,0,0,1,5.6.22c1.71.27,3.26.53,4.7-.73a2.7,2.7,0,0,1,1.33-.33q2.33-.32,4.67-.6c.27,0,.7,0,.82.11.77,1,1.56.77,2.48.24s1.88-.55,2.4-1.17c1-1.21,1.7-1.07,2.79-.18a2.75,2.75,0,0,0,2.16.55,88.75,88.75,0,0,1,9.46-2.81c3-.56,3.83-1.53,3.38-3.62a39.19,39.19,0,0,1,5.33-1.17c1.36-.12,2.57.11,2.37-1.86,0-.22.37-.62.64-.69s.53.26.77.45a8.65,8.65,0,0,1,.7.73c.64-1.76.41-2.93-1.45-3.26.92-2.93,3.4,0,4.92-1.57C196.3,152.35,195.58,151.72,194.81,151.16Zm-76.12,8.67,1-1.09c-2-3.54-4.61-2.16-7.23-.84l-.28-.63c.45-.32.91-.62,1.34-1s1.31-.9,1.24-1.08c-.44-1.15-1.08-.31-1.67,0a4.09,4.09,0,0,1-1,.05l1.63-2.19-2.4-1,.77-1.31c3.39,2.29,4.26,2.84,5.44,1.83.83.31,1.88,1,2.12.74a5.21,5.21,0,0,0,1.63-2.59c.23-1.19-1.23-1.88-2.38-1.19a15,15,0,0,0-1.59,1.37,13,13,0,0,1-1.14.75c0-.46-.11-.92-.1-1.38a3.33,3.33,0,0,1,.32-.84,11.45,11.45,0,0,1-2.34-.83,10.7,10.7,0,0,1-1.74-1.93c1.72.08,3.14.61,3.47-1.36l-3.3-.6,0-.53c2-1,5.09,1.69,6.46-1.88-1.34-.45-2.14-2.37-4.12-1.09-.3.2-1.12-.4-2.24-.84l4.66-2a4.68,4.68,0,0,0,.26,1.34,5.16,5.16,0,0,0,.9.88c.23-.34.69-.71.65-1-.17-1.2.25-1.38,1.3-1a1.34,1.34,0,0,0,1.1-.23,2.18,2.18,0,0,1,3.32.31,2,2,0,0,0,2.95.58c.18.48.54,1,.41,1.19-1,1.17-.28,2.21,0,3.35a10.24,10.24,0,0,1,0,2.41,11.86,11.86,0,0,0,.22,2.1c.26,1.24.6,2.47.93,3.7a7.88,7.88,0,0,0,.7,2.17c.81,1.29.33,1.62-1,1.84a14.36,14.36,0,0,0-2.59.95,13.63,13.63,0,0,0,1.91,2.39,9.51,9.51,0,0,0,2.53,1l.32-1.71c2.87,0,6,3,6.15,5.79l-4.43-.6-.09-2c-1.42.49-3.55-.6-3.6,1.84,0,1.85,1.57,1,2.6,1l.28.5c-.48.28-1,.88-1.43.8-2.77-.57-5.54-1.2-8.25-2-1.39-.4-2.93-.87-2.69-2.95C119.75,160.7,119.09,160.29,118.69,159.83ZM118.07,148l-.29.36h0Zm-2.14-18.33a11.59,11.59,0,0,1,2.22-.75l.15.46-1.75,2.45,14.38-6.11a11.68,11.68,0,0,0,2-1.36,8.38,8.38,0,0,1,2.34-.93c1.87-.47,3.32-2.71,5.7-1.25.47.29,1.42-.19,2.17-.32l-.7-2.39-2.89.31-.14-.45,6.33-5.75-.13-.46a12.67,12.67,0,0,0-2,.16c-1.53.36-3,.81-4.57,1.23a21.66,21.66,0,0,0-3.88,1.08c-3.71,1.81-7.32,3.83-11,5.69-2,1-3.93,1.85-5.21,3.82-.39.6-1.37.81-2.09,1.2-.31.16-.78.23-.91.47-.69,1.31-1.29,2.67-1.93,4l.35.35A8.83,8.83,0,0,1,115.94,129.66Zm25,2.57c-2.16-.1-4.24-.19-5.35,2.19l-.36.71,3,3.86a10.53,10.53,0,0,1,1.27-.5c1.65-.33,3.49-.45,2.65-3-.08-.24.27-.62.42-.93C143.15,133.32,142.34,132.29,141,132.23Zm12,40.15a7.15,7.15,0,0,0-1.55-.36c-.87,0-1.73.16-2.6.18-1.54,0-3.08,0-4.62,0l0,.68c2.89,0,5.78.91,8.67.06ZM84.27,157.29c.77-.17,1.39-1.07,2.08-1.64l-.39-.59-5.83,1.63.2.66A18.88,18.88,0,0,0,84.27,157.29ZM133,188.09l1-3.81-.77-.36-2.58,3Zm-23.84-37.45c-.29.76-.94,1.85-.65,2.26.44.62,1.53.78,2.37,1.08.07,0,.27-.31.25-.28-.44-1.14-.79-2.1-1.21-3C109.84,150.58,109.17,150.57,109.14,150.65Zm130.79-11.36c-2.33-1.42-4.8-1.3-6.19,0Zm-43.6,6.44-2.9-2.85-.47.48c.47.69,1.21,1.34,1.33,2.09s-.45,1.44-.81,2.43Zm-114.88-8,5.63.5A4.4,4.4,0,0,0,81.45,137.72Zm157.3,7.36-4.42.23c1.49.61,3,1.66,4.44.48ZM182,166.8l.33.86,4.49-1.56-.32-.9Zm-80.81,3.69-4.75,3.92A5.9,5.9,0,0,0,101.23,170.49Zm-4.76,3.93h0Zm84.08-72.78c1-1,.78-1.94-.07-3-1.36.71-1,1.87-.92,2.93C179.58,101.65,180.38,101.81,180.55,101.64Zm-108.5,44H67v.55l5,.38Zm90.08,56.18.75,3.88C164.56,204.31,164.43,203.42,162.14,201.83Zm51.45-49.88-.28-.48a5.63,5.63,0,0,0-3.66,2l.39.58Zm-99.79,6.95c-.32,0-.73.51-1.09.79l1.58,1.07,1.24-1A6.25,6.25,0,0,0,113.8,158.89ZM69.45,140.08l-4.06-.2-.06.57,4,.48Zm90.12,62.34L159,198.7C158,199.85,158.2,201.08,159.58,202.43Zm-36-16.84-1.22,2.95C124.24,187.89,124.56,187.13,123.58,185.59ZM155,201.69l.57,3,.59-.06-.18-3Z" transform="translate(-17.5 -51.7)"/><path fill="#dfe6e1" d="M87.85,176l1.3-2.1h-4.6l1.62-3.27c-1.22.8-2.13,1.38-3,2s-1.69,1.37-2.61,1.93-1.81.39-1.9-1.07l2.75-2.08-.24-.58c-5.15,1.66-10,4.33-15.12,6l-.19-.4.88-.59c1.42-.92,3.48-.93,4.14-2.94.06-.17.38-.28.6-.36,2.4-.8,4.84-1.47,7.18-2.41A21,21,0,0,0,83.82,167c-1,0-2.33-.41-2.87.08-1.81,1.64-4.07,1-6.05,1.66-.8.25-1.49.83-2.29,1.09a24.89,24.89,0,0,1-3.9,1,25,25,0,0,1-3.51,0,16.76,16.76,0,0,1,8.53-4v-.45a6.73,6.73,0,0,0-1.81,0c-2.65.77-5.26,1.7-7.92,2.41-1.52.4-3.15.36-4.68.73-2.42.58-4.78,1.36-7.19,2a4.67,4.67,0,0,1-2.57-.13c.26-.22.5-.56.79-.63,1.73-.41,3.48-.75,5.22-1.12a3.19,3.19,0,0,0,1-.25c3.33-2.12,7.24-2.05,10.89-2.94a52.52,52.52,0,0,0,5.64-2l3-1.09,0-.59a7.34,7.34,0,0,0-2.64-.16c-2.79.93-5.65.92-8.52,1.12-1.32.09-2.57.92-3.89,1.11-4.62.67-9.26,1.15-13.88,1.82-1.56.23-3.07.85-4.62,1.22a12.84,12.84,0,0,1-2.07.16l-.16-.77a33.8,33.8,0,0,1,4.33-1.49c3.74-.76,7.52-1.38,11.29-2,1.11-.19,2.24-.21,3.35-.38,2.84-.44,5.67-.93,8.51-1.37a15.39,15.39,0,0,0,3.36-.68,5.6,5.6,0,0,0-2-.75c-4.89.16-9.78.42-14.67.65a2.1,2.1,0,0,1-.87,0c-2-.88-4-.28-5.87.46a11.88,11.88,0,0,1-7.53-.45c1.2-.42,2.08-.78,3-1,2.37-.67,4.78-.06,7.16-.12s4.58-.51,6.87-.73c1.27-.12,2.55-.13,3.83-.18,2.78-.12,5.57-.21,8.35-.37A21,21,0,0,0,72,158.3l-.07-.57a2.82,2.82,0,0,0-.9-.28c-3.1.14-6.2.44-9.29.44-2.71,0-5.47-.71-8.12-.38-2.1.26-3.94-.46-5.92-.48l-12.22-.18a.82.82,0,0,1-.78-.48c1.13-.05,2.27-.12,3.4-.15,5-.14,9.91-.25,14.87-.41,2.36-.08,4.73-.23,7.08-.4.36,0,.69-.32,1.44-.69a10.66,10.66,0,0,0-2.59-1c-5-.31-10.06-.47-15.08-.8-3.48-.23-6.95-.71-10.43-1-3.19-.23-6.4-.35-9.6-.4-1.7,0-3.41.24-5.11.27a1.65,1.65,0,0,1-1.15-.6c-.11-.14.17-.87.44-1a4.28,4.28,0,0,1,2.08-.65c3.87.29,7.73.82,11.6,1,4.07.24,8.15.13,12.22.37,4.27.25,8.51.84,12.78,1a39.36,39.36,0,0,0,6-.62l0-.44c-2-.21-4-.47-6-.61-3.9-.28-7.8-.51-11.7-.72q-6.26-.35-12.52-.63c-1.16-.05-2.33.09-3.49,0-.34,0-.67-.44-1-.68.36-.23.73-.66,1.07-.64,2.24.13,4.47.41,6.71.53s4.63.05,6.94.17c2.69.14,5.38.43,8.07.58,1.33.08,2.67,0,4,0,1.54,0,3.09.14,4.63.22l.13-.69c-1.41-.3-2.82-.61-4.24-.89-.57-.11-1.16-.16-1.74-.22l-17.48-1.71a5,5,0,0,1-.94-.28v-.61c1.13,0,2.26-.08,3.39-.08a22.37,22.37,0,0,1,3,.11c1.26.17,2.49.5,3.74.74a16.07,16.07,0,0,0,1.75.26c3.06.24,6.13.5,9.19.68,1.23.07,2.5-.18,3.71,0a21.27,21.27,0,0,1,3.46,1.07c.17.05.32.2.48.21,3,.19,6,.37,9,.52a6.23,6.23,0,0,0,1.56-.51c-5.08-2.73-10.67-1.43-15.36-3.93,2,0,4-.08,6,0s4,.37,6.14.58a5.33,5.33,0,0,0-1.34-.91c-1.34-.4-2.73-.64-4.09-1s-2.65-.83-4-1.12c-2.7-.59-5.42-1.08-8.13-1.61-.12,0-.26,0-.35,0-.91-.51-1.81-1-2.71-1.54.86-1.33,1.93-.32,2.84-.16,2.48.43,4.92,1.15,7.4,1.52,1.48.22,3.07-.28,4.28,1,.12.13.46.13.69.1,3-.41,5.57,1.23,8.38,1.75,1.72.32,3.44.66,5.12,1.13,2.11.59,4.18,1.33,6.28,2,.21.06.49-.1.92-.21-5.07-2.73-10.54-3.66-15.6-5.78s-10.48-3.47-15.75-5.16l.05-.7a4.31,4.31,0,0,1,1.59-.08c3,1.09,6,2.4,9.1,3.37,2.35.74,4.82,1.1,7.23,1.63.17,0,.41,0,.52.1,2.31,2.3,5.72,1.72,8.35,3.19a3.66,3.66,0,0,0,2.36.25,68.78,68.78,0,0,0-13-6.65L57,130.53a5.28,5.28,0,0,1,1.64-.32c2.19.43,4.37.94,6.55,1.45a8,8,0,0,1,1.09.56c1.63.68,3.24,1.39,4.89,2,3.3,1.22,6.62,2.39,9.92,3.59a42.54,42.54,0,0,0,5,1.62C78,134,68.91,130.5,59.89,127l.29-.74c2.7,1,5.4,1.91,8.09,2.9s5.63,2.09,8.42,3.2,5.43,2.24,8.15,3.36l8.1,3.37.22-.45c-4.32-2.19-8.73-4.21-12.93-6.62s-8.26-5.25-12.37-7.91l.25-.62a3.9,3.9,0,0,1,1.47.27,115.84,115.84,0,0,0,20,10.7c.7.29,1.27.9,2,1.23a5.73,5.73,0,0,0,1.49.29l.14-.53-20-13.62.23-.67a7.45,7.45,0,0,1,2.22.58c5.38,3.48,10.7,7,16.07,10.54a22.32,22.32,0,0,0,2.79,1.33l.3-.44c-2.45-2-4.82-4.16-7.36-6.06-4.24-3.18-8.59-6.21-12.86-9.34-.34-.25-.43-.86-.63-1.3.58,0,1.33-.15,1.72.14,3,2.27,6,4.69,9,6.94,3.52,2.59,7.13,5.07,10.72,7.55a3.81,3.81,0,0,0,2.15.63c-5.76-6.39-12.38-11.82-18.7-17.56l.39-.46,19.24,15.16.58-.67c-1.76-1.67-3.56-3.32-5.28-5-3.13-3.1-6.2-6.25-9.32-9.35-1.52-1.51-3.11-2.94-4.65-4.42a4.88,4.88,0,0,1-.81-1.07s.44-.53.56-.49a3.46,3.46,0,0,1,1.13.7c.91.84,1.76,1.74,2.66,2.6,4.1,3.92,8.18,7.86,12.3,11.75q3.56,3.36,7.33,6.48c-.81-3-2.94-4.82-5.15-6.69a6.16,6.16,0,0,1-2.51-4.76c3.83,1.61,5.76,4.94,8.37,7.54-.89-3.83-4.7-5.71-5.88-9.37,2,1.27,4.56,1.73,5.76,4.11.48,1,.72,2,2.11,2.13.27,0,.51.58.73.91.34.5.65,1,1,1.53l.65-.34a10.11,10.11,0,0,0-1.21-2.61c-3.34-3.8-5.77-8.22-8.43-12.47-.58-.92-1.11-1.87-1.66-2.81l.34-.29a3.52,3.52,0,0,1,.84.63c2,2.74,3.85,5.52,5.83,8.23a19.76,19.76,0,0,0,2,2c.29.29.67.64.7,1,.23,2.37,1.82,2.93,4.23,3.1-3.31-5-7-9.38-8.91-14.92l11.38,14.5.63-.41c-4.11-7.38-9-14.36-12.29-22.16l15,22.14.44-.27-7.31-14.24.53-.32a3.74,3.74,0,0,1,2.48,2.58c.89,2.1,1.81,4.18,2.72,6.27.14.33.3.65.46,1l.77-.49-4.22-11,.7-.36a20.77,20.77,0,0,1,2.06,2.64,35,35,0,0,1,1.49,3.59q1.5,3.57,3,7.13c.08.17.35.26.53.39l.54-.19-1.95-6.62h0c1.83-.35,1.49,1.66,2.85,2.63a8.19,8.19,0,0,0,.21-2.64c-1.39-4.51-2.93-9-4.34-13.46-1.08-3.44-2.07-6.91-3.06-10.38a8.24,8.24,0,0,1-.15-1.52l.43-.23c.3.38.75.71.87,1.13.7,2.55,1.17,5.17,2,7.67.79,2.33,2,4.52,3,6.79.32.74.58,1.51.83,2.27.18.55.28,1.13.48,1.68.63,1.77,1.22,3.57,2,5.3s1.55,3.16,2.33,4.73l.67-.28-3.69-15a3.08,3.08,0,0,1,2.46,2.7c.19,1.36.17,2.94,1.92,4.16l.34-3,.55-.13,1.13,4.53.57,0-1-8.76c1.71.11,1.62,1.25,1.86,2.17q.91,3.56,1.84,7.11l.78-.14L131,89.95l.71-.12,3.05,13.86c1.73-1.3,1.09-2.93,1.15-4.37,0-.28-.24-.57-.23-.86.21-4.83-1.46-9.41-1.95-14.14-.45-4.34-.68-8.7-1-13,0-.57-.36-1.13-.4-1.7a6.26,6.26,0,0,1,.24-1.47c.4.37,1.09.69,1.14,1.1.19,1.34,0,2.73.22,4.07.32,2.13.9,4.22,1.24,6.35.26,1.63.25,3.3.46,4.94a9.64,9.64,0,0,0,.78,3.63c1.28,2.14.46,4.26.48,6.41a54.47,54.47,0,0,0,.71,6.51,22.29,22.29,0,0,0,.6,3.08,7.6,7.6,0,0,0,.84,1.55c.24-.48.68-1,.68-1.44q0-4.76-.12-9.52c0-.87-.51-1.73-.51-2.6,0-1.86.3-3.73.2-5.59-.26-4.65-.66-9.29-1-13.93-.11-1.4-.34-2.79-.47-4.19,0-.22.19-.47.47-1.11,2.71,13,3.39,25.7,3.8,38.47l.71,0a13.69,13.69,0,0,0,.36-1.88c.15-2.69.25-5.39.37-8.09a2,2,0,0,0,0-.53c-1.5-6.11-.43-12.4-1.3-18.56a46,46,0,0,1-.13-6.86c0-.39.42-.77.64-1.15a4.32,4.32,0,0,1,1,.77,2.19,2.19,0,0,1,.37,1.18c.1,3.31.19,6.61.21,9.92,0,2.37-.1,4.74-.1,7.11,0,1.77,0,3.55.19,5.32a15.24,15.24,0,0,0,.75,2.71,2.25,2.25,0,0,1,.18.67c-.12,2.51-.25,5-.4,7.71a6.64,6.64,0,0,0,1.91-5.35,29.47,29.47,0,0,1-.3-4.18,90.1,90.1,0,0,1,.05-10.16c.44-4.32-1.24-8.73.63-13a5,5,0,0,0,.2-1.94c0-3-.08-6,0-9a7.4,7.4,0,0,1,.89-3c1.21,1.25.75,2.72.77,4.11,0,3.53.1,7.06.05,10.58,0,1.45-.34,2.9-.44,4.35s-.19,3.19-.16,4.78c.05,3,.2,6,.28,9.06,0,1.74-.39,3.47.67,5.18.38.62-.19,1.8-.25,2.74a38.77,38.77,0,0,0-.07,4.14c0,.27.64.52,1,.77a3.51,3.51,0,0,0,.44-1c.24-3.77,0-7.57,1.39-11.22a24.1,24.1,0,0,0,.39-3.08c1.26,5.36.13,10.79.18,16.17l.46.06a27.24,27.24,0,0,0,1.69-4.25c.74-3.39,1.4-6.81,1.83-10.25s.51-7.14.87-10.7c.28-2.73.77-5.44,1.2-8.15,0-.18.29-.32.57-.61,1.2,1.38.75,2.8.47,4.22-.65,3.28-1.47,6.53-.85,9.95a9.33,9.33,0,0,1-.11,3.14c-.46,2.72-1.15,5.4-1.51,8.13-.44,3.33-.69,6.69-.9,10,0,.52.56,1.07.87,1.61.37-.43,1-.83,1.06-1.31.38-2.39.48-4.83.94-7.2.49-2.54,1.23-5,1.94-7.54.12-.42.61-.74,1.16-1-.55,2,1.13,4.16-.83,5.87a.29.29,0,0,0-.07.16c-.39,2.36-.81,4.72-1.15,7.09,0,.29.31.64.61,1.21,1.36-3.88,2.69-7.42,3.68-11.09l1.06.34-2.22,7.65c1.74-.37,2.57-1,3-2.68.92-3.62,2.43-7.09,3.69-10.63.6-1.69,1.19-3.39,1.78-5.09l.58.07a4.64,4.64,0,0,1,.14,1.72c-1.11,3.36-2.36,6.67-3.46,10-.74,2.28-1.32,4.61-2,6.92l.43.22,3.84-6.24.78.31-2.44,9,.36.12,4.19-7.8c1.55.57,1.55.57.5,4.27l1.87-.1-2.41,4.28-.77-.42,1.27-2.54c-2.74,1.12-3,3.63-3.71,5.92l2.24-2.34.52.27-1.38,2.89.36.23,4.21-6.37.54.14.17,2,5.24-.84-3.67,7.71,1.89.59c1.89-2.32,3.63-4.51,5.43-6.65.24-.28.73-.36,1.1-.53.1.47.44,1.08.26,1.38-.52.85-1.28,1.54-1.88,2.34-1.23,1.62-2.5,3.22-3.6,4.93a19.24,19.24,0,0,0-2.32,5.1,39.11,39.11,0,0,0,3.3-3.33c1.21-1.53,2.1-3.3,3.31-4.84a28.24,28.24,0,0,1,3-2.87l.44.35-4.83,7.64.28.26,8.48-9.61.65.5c-1.74,2.44-3.37,5-5.27,7.28-1,1.22-1.64,2.25-.78,4,1.82-2.22,3.58-4.26,5.22-6.38,3.22-4.15,6.36-8.36,9.56-12.52a2.26,2.26,0,0,1,1.06-.9c.43-.09.94.2,1.42.32-.11.4-.1.9-.34,1.19-3.2,3.77-6.57,7.4-9.62,11.29-1.9,2.42-3.28,5.25-5,7.84-.7,1.07-1.59,2-2.37,3-.3.39-.55.83-.82,1.25l.4.32,6.16-7.21c1.56,1.11-.26,2,0,3.18.71-1,1.41-2,2.13-3a19.9,19.9,0,0,1,1.75-2.23c.31-.31.89-.36,1.34-.53a3.57,3.57,0,0,1-.28,1.33c-1.2,1.67-2.49,3.27-3.7,4.93a9.36,9.36,0,0,0-.7,1.69l3.14-1.22.52.36L195.8,127l.21.28a7.59,7.59,0,0,0,1.45-1.4c2.54-4.3,6.07-7.8,9.36-11.48a20.63,20.63,0,0,1,2.65-2.55,8,8,0,0,1,2-.83l0,0c-1.12,1.44-2.2,2.93-3.38,4.32-1.8,2.13-3.81,4.09-5.46,6.32a18.52,18.52,0,0,0-2.3,5.05c2.66-1.69,4.07-4.86,7.41-5.48l0,0c.38.11.81.39,1.14.31a4.47,4.47,0,0,0,1.22-.77l.41.4-3,3.87.27.4,14-10.8.48.27c-.16.52-.17,1.21-.52,1.52-2.76,2.42-5.54,4.83-8.41,7.1-2.5,2-5.16,3.74-7.7,5.65a17.06,17.06,0,0,0-1.89,2l.43.51,1-.41a21.67,21.67,0,0,0,2.3-.95c1.57-.86,3.13-1.73,4.61-2.72.83-.56,1.42-1.06,2.2.09.14.2,1.22-.09,1.76-.36a19.49,19.49,0,0,0,2.21-1.48l.31.39-1,2a13,13,0,0,0,1.59-.67c2.79-1.76,5.56-3.55,8.34-5.32.25-.16.53-.44.77-.42a5,5,0,0,1,1.21.41c-.2.32-.32.75-.6.94-2,1.34-4.06,2.66-6.13,3.93-3,1.82-6,3.59-8,6.64a6.39,6.39,0,0,0-1.19,1.72c1.57-.64,3.17-1.21,4.7-1.93,2.92-1.38,5.8-2.84,8.68-4.3,3.1-1.56,6.17-3.17,9.27-4.73a41.62,41.62,0,0,1,4.34-2c.38-.14,1,.36,1.52.56-.25.43-.41,1.11-.78,1.25-2.11.8-4.27,1.43-6.39,2.2a28.45,28.45,0,0,0-3,1.4c-3.31,1.67-6.67,3.25-9.9,5.07a21.65,21.65,0,0,0-4.76,3.91c1.31-.52,2.67-1,3.94-1.59,2.8-1.39,5.52-3,8.36-4.27a32,32,0,0,1,5.06-1.56c.3-.08.7.19,1.05.3-.14.35-.18.85-.43,1a32.66,32.66,0,0,1-3.8,2.32c-3.29,1.61-6.51,3.55-10,4.52-2.23.62-3.57,2.06-5.27,3.37a3.1,3.1,0,0,0,1-.14c3.25-1.73,6.83-2.06,10.38-2.6,1-.14,1.78-1.13,2.65-1.76.34-.25.61-.59,1-.84,0,0,.47.29.46.43,0,.5,0,1.31-.33,1.44-2.8,1.34-5.63,2.63-8.5,3.82-1.19.49-2.51.69-3.75,1.08-.18.06-.24.46-.52,1.05l13.4-3.45.22.56c-.8,1.09-1.21,2.4-3.06,2.59a8.65,8.65,0,0,0-3.87,1.9c5.31-.75,10.36-2.6,15.57-3.52a5.87,5.87,0,0,1-3.55,6.08l.1.47,8.86,1.73.06.26a8.65,8.65,0,0,1-1.13.27c-2.32.25-4.64.55-7,.69-1.46.09-3.1.32-4.36-.21-2.46-1-4.66.34-7,.24-.23,0-.48.54-.72.83.32.19.64.54,1,.54,4,.05,7.93,0,11.89.09q7.15.13,14.3.4a28.39,28.39,0,0,1,4.36.55,1.68,1.68,0,0,1,1.06,1.28l-23-.84-.22.82a9.28,9.28,0,0,0,2.64,1c2.79.16,5.59.1,8.39.13a6.91,6.91,0,0,1,.71.05c4.41.5,8.81,1.08,13.23,1.49,2.65.24,5.33.14,8,.35,3.18.25,6.34.7,9.51,1,1,.1,2,0,3,0a2.49,2.49,0,0,1,1.67.66c-.33.15-.66.42-1,.42-2.9,0-5.82,0-8.71-.14-3.13-.21-6.23-.75-9.36-1s-6.07-.1-9.08-.35c-5.37-.45-10.71-1.29-16.08-1.52-3.38-.14-6.78-1.1-10.22-.14-1,.29-2.23-.07-3.35-.06a3.71,3.71,0,0,0-1.8.53c6.16.61,12.32.9,18.41,2a49.6,49.6,0,0,1-15.63.24c3.7,1.64,7.81,1.31,11.66,2.21s8,1.81,12,3.11a7.71,7.71,0,0,1-1.63.14c-3.73-.46-7.45-1-11.19-1.4a20.56,20.56,0,0,0-4.22.3,3.16,3.16,0,0,0-1.58.7c10.14,4,21,5.15,31.3,8.27v.68a7.82,7.82,0,0,1-2.73.34,31.73,31.73,0,0,1-3.76-1.59,15.33,15.33,0,0,0-2.24-.55c-2.25-.5-4.49-1-6.74-1.48-1-.21-2-.28-3-.55-4.17-1.16-8.31-2.41-12.49-3.55a42.12,42.12,0,0,0-4.2-.72l-.17.42,6.23,2.83-.1.33-1.15-.06-.24.43c1.54.79,3.09,1.55,4.62,2.37a26.88,26.88,0,0,1,4.76,3.06,4.69,4.69,0,0,1-1.49,0q-3.58-1.28-7.11-2.69c-2.19-.88-4.34-1.85-6.52-2.75a6.56,6.56,0,0,0-1.28-.25l-.24.55a51.17,51.17,0,0,1,4.83,2.62,28,28,0,0,1,4.1,3.7l-9.37-3.45,1,1.54-.16.36L218.74,172l-.26.49,2.73,1.69c.9.56,1.82,1.09,2.65,1.73.22.17.16.7.22,1.06-.33,0-.73.12-1,0-1.25-.78-2.43-1.7-3.7-2.44-.88-.52-1.89-.82-2.82-1.27-.49-.24-.9-.63-1.38-.89a8.58,8.58,0,0,0-1.12-.44c0,.43-.18,1,0,1.27a40,40,0,0,0,4.06,4c2.51,2,5.17,3.85,7.75,5.79.6.45,1.12,1,1.68,1.52l-.19.49a4.4,4.4,0,0,1-1.6-.35c-2.5-1.76-4.93-3.6-7.4-5.39s-5-3.56-7.45-5.32a7.86,7.86,0,0,0-1.06-.54l-.43.36a16.1,16.1,0,0,0,1.41,1.88c2,2.05,4.2,4,6.18,6.1a32.56,32.56,0,0,1,2.64,3.76c-.54-.07-.89,0-1-.15-2.73-2.6-5.49-5.17-8.11-7.87-1-1.07-2-1.07-3.6-.34l7.08,7.61-.28.33a2.78,2.78,0,0,1-.82-.37c-2.23-2.13-4.49-4.23-6.65-6.43a4.33,4.33,0,0,0-4.74-1.09l4.67,5.38-.47.51-3.47-3-.3,1.47-1.57-1.12-.38.27,3.16,4.89-.49.52-5.6-3-.35.12c1.45,2.71,3,5.36,4.32,8.15s2.33,5.81,3.48,8.72l-.42.22c-.86-1.52-1.74-3-2.57-4.56-1.73-3.2-3.39-6.44-5.15-9.63a19.08,19.08,0,0,0-2.32-3.36c-.34-.39-1.17-.34-1.91-.52,1,1.22,1.79,2.12,2.5,3.06.2.26.39.83.26,1-1.75,2-.08,3.73.46,5.43.72,2.24,1.9,4.32,2.84,6.49a3.53,3.53,0,0,1,.08,1.16l-.66.21c-1.11-1.95-2.28-3.86-3.3-5.85s-1.81-4.41-3.07-6.38a36.73,36.73,0,0,0-4.2-4.64c.6,1.67,1.07,3.39,1.81,5,1.69,3.65,3.53,7.23,5.25,10.86a7.6,7.6,0,0,1,.65,2.4,28.25,28.25,0,0,0,3.54,10.79,15.21,15.21,0,0,1,1.28,4,1.36,1.36,0,0,1-.79,1.1,1.41,1.41,0,0,1-1.17-.73c-.56-1.72-.9-3.52-1.48-5.23-.42-1.25-1.15-2.4-1.66-3.62a26.52,26.52,0,0,1-1.82-4.77,27.09,27.09,0,0,0-5.38-12,4.63,4.63,0,0,0-.49-.49s-.11,0-.61,0l.9,4.86-.7.21-1.78-4.08c-2.36,1.19-2.46,1.48-1.82,3.75.7,2.44,1.32,4.91,2,7.36.48,1.73,1,3.45,1.46,5.18a13,13,0,0,1,.23,1.6l-.64.22a15.68,15.68,0,0,1-1.24-2.7c-.7-2.79-1.12-5.65-1.93-8.4-.67-2.27-1.75-4.42-2.71-6.77-.68,1.38.08,5.31.82,7.59a66.29,66.29,0,0,1,1.53,7.41c.49,2.45,1,4.91,1.49,7.36l-.75.19c-.16-.65-.37-1.28-.48-1.94-.27-1.67-.49-3.35-.75-5,0-.28,0-.68-.21-.81-2.15-1.67-1.69-4.3-2.48-6.47a3.57,3.57,0,0,0-1-1.44c-.74,2.43.33,4.63.69,6.92a36.22,36.22,0,0,1,.49,7.31,8.93,8.93,0,0,1-1-1.68,25.35,25.35,0,0,1-1.23-4.53,76.49,76.49,0,0,0-2.35-10,11.86,11.86,0,0,0-1.17-2.92c-.44,2.44,1.74,4.84-.31,7.83l-2.47-3.64-.39.19c1.38,2.55.73,5.74,2.9,8.07,1.14,1.23.39,2.21-.89,3.33l-2.46-5-.41,0a8.89,8.89,0,0,0-.1,2.39c.7,3,1.57,6,2.27,9a11.26,11.26,0,0,1,0,2.51l-.77.11c-.39-1.6-.78-3.2-1.15-4.8,0-.15.18-.36.14-.5-.89-3.21-1.11-6.65-3.18-9.46a3.29,3.29,0,0,0-.64-.62,2.73,2.73,0,0,0-.6-.24c-.76,2.31,0,4.44.55,6.57.84,3.38,2.23,6.63,1.73,10.28-.14,1.06.63,2.23.88,3.37a16.89,16.89,0,0,1,.18,2.36l-.73.14a12,12,0,0,1-.85-1.73c-.68-2.22-1.41-4.44-1.92-6.71-.39-1.72-.35-3.53-.73-5.25-.66-3-1.43-6-2.31-8.9-.15-.51-1.13-.77-1.72-1.15a13.15,13.15,0,0,0-.39,1.77c-.19,2.34.79,4,2.4,5.79,1.15,1.25,1.28,3.34.71,5.43l-1.75-1.59,2,10.85-.67.18c-2.21-2.41-2.23-5.87-4-8.7-1.29.68-1.24,2-1,3.1.79,4.34,1.7,8.66,2.55,13a20.48,20.48,0,0,1,.61,3.78c0,.6-.7,1.2-1.09,1.8l-.77-.09-3.83-22.86-.55,0a6.1,6.1,0,0,0-.3,1.42q.13,5,.34,10.1a6.11,6.11,0,0,0,.3,1.57c.83,2.62.84,2.62-.36,4.72a19.39,19.39,0,0,1,.64,11.47l-.74.1a27.13,27.13,0,0,1-.58-3.66c-.09-3.41.5-6.89-1.21-10.11a2.87,2.87,0,0,1-.14-1.22c-.08-3.63-.1-7.27-.25-10.9a8.83,8.83,0,0,0-.78-2.33l-.68,0a16.07,16.07,0,0,0-.92,3.11,55.4,55.4,0,0,0-.2,6.39c0,1.58.51,3.15.49,4.72,0,3.26-.24,6.51-.4,9.77a3.43,3.43,0,0,1-.31.87c-1.35-.58-1.24-1.69-1.26-2.73-.16-6.52-.34-13-.46-19.56-.06-3.4,0-6.8,0-10.2a7.59,7.59,0,0,0-.37-1.63l-.5-.08a4.38,4.38,0,0,0-.53,1.37c-.09,4.82-.08,9.64-.21,14.46-.06,2.29-.37,4.58-.54,6.87A3.27,3.27,0,0,0,146,230c1.69,2.76,0,5.41-.2,8.1,0,.37-.42.72-.83,1-1.56-10.09,0-20.13.18-30.17l-.85-.11c-.24,1.2-.58,2.39-.7,3.61-.26,2.62-.42,5.25-.58,7.88a25.23,25.23,0,0,1,0,3.16,15.1,15.1,0,0,1-1.19,2.88,2.94,2.94,0,0,1-1.53-3.74c1.51-5.11.78-10.42,1.72-15.57a3.19,3.19,0,0,0-.09-1c0-.07-.17-.12-.4-.26-.57,3.48-2.12,6.58-1.83,10.34.26,3.3-1,6.73-1.62,10.1l-.85-.09c.09-1.89.17-3.79.27-5.68a6.17,6.17,0,0,0,.18-1.57c-1-4.35.79-8.42,1.26-12.62.23-2.11.87-4.17-.45-6.36-2.13,1.55-1.77,3.8-2,5.82-.08.82.24,1.75,0,2.47s-1.09,1.19-1.66,1.78a12.1,12.1,0,0,1-.64-2.17c-.08-.67.26-1.39.16-2.05-.07-.47-.57-.87-.88-1.3a7.35,7.35,0,0,0-.64,1.3c-.44,1.6-.82,3.21-1.22,4.82l-.65-.08v-3.33l-.48-.25a9.19,9.19,0,0,1-.8,1.27c-.69.78-1.43,1.51-2.15,2.26-.34-1-1.09-2-1-3,.43-3.16,1.17-6.29,1.91-10l-4.11,3.6.44-3c-3.09.17-3.65,2.61-4.6,4.76-.84,1.9-1.83,3.73-2.93,5.95a3.64,3.64,0,0,1-.28-4,18.24,18.24,0,0,1,1.84-3.11c1.15-1.6,1-2.06-.59-2.74l-3.35,2.64-.38-.23c1.48-3.67,3.55-7.18,3.29-11.72-.63.68-1.23,1.08-1.48,1.64-1.2,2.73-2.31,5.5-3.44,8.27-.49,1.19-.91,2.4-1.44,3.57-.13.29-.55.45-.84.66l-.48-.28,5.09-13.18-.5-.35c-1.79,1.77-4.29,3.24-5.17,5.38-1,2.47-2.69,4.21-4.19,6.18-.08.11-.3.11-1.07.36,1.44-2.64,2.66-4.85,3.86-7.07.35-.65,1-1.38.92-2-.26-1.81-1.38-2.17-2.71-.81-1.85,1.87-3.54,3.9-5.22,5.93-3,3.61-5.92,7.26-8.88,10.89-.15.18-.31.45-.5.49a11,11,0,0,1-1.46.14,3.35,3.35,0,0,1,.32-1.24c1.39-1.77,2.86-3.47,4.25-5.24,1.2-1.53,2.19-3.26,3.53-4.65,3-3.11,5.2-6.76,7.48-10.37.82-1.3,2.32-2.16,3.42-3.31s1-1.54.35-2l-6.72,6c-1.18-2.15,3-2.67.75-5.22l-11,10.61c-.25-2.08,1.27-2.9,2.21-4.1,1.13-1.44,3.09-2.84,3.16-4.33s1.08-2.1,1.49-3.16c-2.64-1.09-3.49-.74-5.26,2.08l2.11-1.19a21.26,21.26,0,0,1-.56,2.89,2.14,2.14,0,0,1-1,1.13c-3,1.34-5,3.79-7.1,6.12a4.22,4.22,0,0,1-2.07,1.18c1.75-3.75,5.76-5.61,7.72-9.42l-2.11.55c.32-1,.59-1.83.87-2.66a5.89,5.89,0,0,0,4.77-3.92L92,183.15,81.71,192c-.5-2,1-2.68,1.84-3.71,1.49-1.74,4-2.57,4.62-5.11.08-.31.88-.65,1.32-.62,1.73.11,2.29-.6,1.61-2.61,3.38.5,5.1-1.55,6.62-3.89l-.33-.41-4.07,4.06-1-1.63c-1.35,1-2.65,2-4,3-1.84,1.36-3.72,2.67-5.55,4-.51.38-.89.92-1.4,1.29a3.64,3.64,0,0,1-2,.74c3.83-4.8,10-6.85,13.87-12.23l-5.44,1Zm45.52-.68a4.15,4.15,0,0,1,4.67,1.76c.23.33,1,.33,1.58.36a53,53,0,0,1,5.6.22c1.71.26,3.26.53,4.7-.73a2.7,2.7,0,0,1,1.33-.33q2.33-.32,4.67-.6c.27,0,.7,0,.82.11.77,1,1.56.77,2.48.24s1.88-.55,2.4-1.17c1-1.21,1.7-1.07,2.79-.18a2.75,2.75,0,0,0,2.16.55,88.73,88.73,0,0,1,9.46-2.81c3-.56,3.83-1.53,3.38-3.62a39.18,39.18,0,0,1,5.33-1.17c1.36-.12,2.57.11,2.37-1.86,0-.22.37-.62.64-.69s.53.26.77.45a8.65,8.65,0,0,1,.7.73c.64-1.76.41-2.93-1.45-3.26.92-2.93,3.4,0,4.92-1.57-.81-.65-1.53-1.28-2.3-1.84-1.71-1.25-3.12-3.19-5.71-2.56-.25.06-.64-.47-1-.73a4.22,4.22,0,0,1,1.14-.43c.59,0,1.35.33,1.76.07,1.14-.72.76-3.56-.43-4.23a6.11,6.11,0,0,1-1.06-1,8.49,8.49,0,0,1,1.39-1.16,7.34,7.34,0,0,1,1.66-.45l-.09-.53a8,8,0,0,1-2,0c-.45-.12-1.16-.64-1.14-1,.13-2.77-2.29-3.41-3.9-4.57-.76-.55-2.06-.4-3.11-.44a8.75,8.75,0,0,0-1.87.33,21,21,0,0,0,1,2.93,2.23,2.23,0,0,0,1.62-.31,1.82,1.82,0,0,1,2.56-.24c.69.51,1.3,1.13,2,1.7l0,.53a13,13,0,0,1-2.14.32c-.81,0-1.63-.3-2.44-.3-2,0-2.5.71-2.1,2.62a2.59,2.59,0,0,1,0,1c-.5,2.33-1,4.67-1.58,7a5.32,5.32,0,0,1-1.06,2.58c-2,1.81-2.63,4.27-3.69,6.55a2.68,2.68,0,0,1-1.22,1c-1.25.63-2.56,1.14-3.81,1.76s-2.15,1.32-3.3,1.78c-2.27.91-4.61,1.66-6.92,2.48a8.82,8.82,0,0,1-2,.67c-1.71.16-3.43.18-5.14.29a1.14,1.14,0,0,0-.61.32c-2.2,2-4.21.48-6.53-.12l2.27-1.63a35.85,35.85,0,0,1-5.12-1.15A3.56,3.56,0,0,0,133.37,175.3Zm-19.11-6.73c.4.45,1.05.86,1,1.19-.24,2.08,1.3,2.55,2.69,2.95,2.72.78,5.48,1.41,8.25,2,.41.08,1-.51,1.43-.8l-.28-.5c-1,0-2.63.86-2.6-1,.05-2.44,2.18-1.35,3.6-1.84l.09,2,4.43.6c-.12-2.83-3.27-5.77-6.15-5.79l-.32,1.71a9.51,9.51,0,0,1-2.53-1,13.63,13.63,0,0,1-1.91-2.39,14.37,14.37,0,0,1,2.59-.95c1.28-.22,1.76-.55,1-1.84a7.88,7.88,0,0,1-.7-2.17c-.33-1.23-.66-2.46-.93-3.7a11.86,11.86,0,0,1-.22-2.1,10.24,10.24,0,0,0,0-2.41c-.33-1.14-1-2.17,0-3.35.13-.15-.24-.71-.41-1.19a2,2,0,0,1-2.95-.58A2.18,2.18,0,0,0,117,147a1.34,1.34,0,0,1-1.1.23c-1-.34-1.47-.16-1.3,1,0,.3-.42.67-.65,1a5.16,5.16,0,0,1-.9-.88,4.68,4.68,0,0,1-.26-1.34l-4.66,2c1.12.44,1.94,1,2.24.84,2-1.28,2.78.64,4.12,1.09-1.36,3.57-4.48.87-6.46,1.88l0,.53,3.3.6c-.33,2-1.76,1.44-3.47,1.36a10.7,10.7,0,0,0,1.74,1.93,11.45,11.45,0,0,0,2.34.83,3.33,3.33,0,0,0-.32.84c0,.46.06.92.1,1.38a13.06,13.06,0,0,0,1.14-.75,15,15,0,0,1,1.59-1.37c1.16-.69,2.62,0,2.38,1.19a5.21,5.21,0,0,1-1.63,2.59c-.24.22-1.29-.43-2.12-.74-1.17,1-2,.46-5.44-1.83l-.77,1.31,2.4,1L107.67,164a4.09,4.09,0,0,0,1-.05c.59-.27,1.24-1.11,1.67,0,.07.18-.79.73-1.24,1.08s-.89.64-1.34,1l.28.63c2.62-1.32,5.24-2.7,7.23.84Zm27.07-46.27-.13-.46a12.66,12.66,0,0,0-2,.16c-1.53.36-3,.81-4.57,1.23a21.66,21.66,0,0,0-3.88,1.08c-3.71,1.81-7.32,3.83-11,5.69-2,1-3.93,1.85-5.21,3.82-.39.6-1.37.81-2.09,1.2-.31.16-.78.23-.91.47-.69,1.31-1.29,2.67-1.93,4l.35.35a8.83,8.83,0,0,1,1.55-1.45,11.59,11.59,0,0,1,2.22-.75l.15.46-1.75,2.45,14.38-6.11a11.68,11.68,0,0,0,2-1.36,8.38,8.38,0,0,1,2.34-.93c1.87-.47,3.32-2.71,5.7-1.25.47.29,1.42-.19,2.17-.32l-.7-2.39-2.89.31L135,128Zm-7.54,25.42a10.52,10.52,0,0,1,1.27-.5c1.65-.33,3.49-.45,2.65-3-.08-.24.27-.62.42-.93.58-1.23-.23-2.26-1.61-2.32-2.16-.1-4.24-.19-5.35,2.19l-.36.71Zm14.7,34,.08-.57a7.15,7.15,0,0,0-1.55-.36c-.87,0-1.73.16-2.6.18-1.54,0-3.08,0-4.62,0l0,.68C142.71,181.57,145.6,182.52,148.49,181.67Zm-72.8-16.24.2.66a18.88,18.88,0,0,0,3.95-.07c.77-.17,1.39-1.07,2.08-1.64l-.39-.59ZM129.6,193l-.77-.36-2.58,3,2.3,1.2Zm-22.92-30.57c-.44-1.14-.79-2.1-1.21-3-.05-.11-.72-.12-.75,0-.29.76-.94,1.85-.65,2.26.44.62,1.53.78,2.37,1.08C106.5,162.75,106.7,162.41,106.68,162.44ZM235.5,148c-2.33-1.42-4.8-1.3-6.19,0ZM189,151.61l-.47.48c.47.69,1.21,1.34,1.33,2.09s-.45,1.44-.81,2.43l2.85-2.15ZM82.65,147a4.4,4.4,0,0,0-5.63-.5Zm151.69,7.58,0-.71-4.42.23C231.39,154.66,232.89,155.71,234.34,154.53Zm-56.73,21,.33.86,4.49-1.56-.32-.9Zm-1.55-68.14c-1.36.71-1,1.87-.92,2.93,0,.06.81.22,1,.05C177.12,109.42,176.9,108.43,176.06,107.39ZM67.61,155.31v-.93H62.55v.55Zm90.85,59.13c1.67-1.4,1.54-2.29-.75-3.88Zm46.77-52.26.39.58,3.55-2.08-.28-.48A5.63,5.63,0,0,0,205.22,162.18Zm-95.37,7.3,1.24-1a6.25,6.25,0,0,0-1.72-.83c-.32,0-.73.51-1.09.79ZM64.94,149.66l.08-.85-4.06-.2-.06.57Zm89.66,57.77c-1.06,1.15-.84,2.38.54,3.72Zm-36.67-10.17c1.87-.65,2.19-1.4,1.22-2.95Zm33.63,13-1,.13.57,3,.59-.06Z" transform="translate(-17.5 -51.7)"/></svg>